G04 EAGLE Gerber RS-274X export*
G75*
%MOMM*%
%FSLAX34Y34*%
%LPD*%
%INTop Copper*%
%IPPOS*%
%AMOC8*
5,1,8,0,0,1.08239X$1,22.5*%
G01*
G04 Define Apertures*
%ADD10C,1.800000*%
%ADD11P,1.64956X8X22.5*%
%ADD12P,1.42962X8X22.5*%
%ADD13R,0.850000X0.900000*%
%ADD14R,1.100000X1.000000*%
%ADD15C,0.756400*%
G36*
X26134Y10220D02*
X25836Y10160D01*
X-396407Y10160D01*
X-396607Y10187D01*
X-396878Y10323D01*
X-397074Y10554D01*
X-397165Y10844D01*
X-397135Y11145D01*
X-396990Y11412D01*
X-391904Y17474D01*
X-388928Y25650D01*
X-388928Y34350D01*
X-391904Y42526D01*
X-397497Y49191D01*
X-405031Y53542D01*
X-413600Y55053D01*
X-422169Y53542D01*
X-429704Y49191D01*
X-432094Y46342D01*
X-432359Y46140D01*
X-432654Y46070D01*
X-432953Y46121D01*
X-433208Y46285D01*
X-433380Y46535D01*
X-433440Y46832D01*
X-433440Y253168D01*
X-433367Y253493D01*
X-433186Y253736D01*
X-432924Y253889D01*
X-432624Y253928D01*
X-432332Y253847D01*
X-432094Y253658D01*
X-429704Y250809D01*
X-422169Y246458D01*
X-413600Y244947D01*
X-405031Y246458D01*
X-397497Y250809D01*
X-391904Y257474D01*
X-388928Y265650D01*
X-388928Y274350D01*
X-391904Y282526D01*
X-396990Y288588D01*
X-397098Y288759D01*
X-397168Y289054D01*
X-397117Y289353D01*
X-396954Y289608D01*
X-396704Y289780D01*
X-396407Y289840D01*
X25836Y289840D01*
X25998Y289823D01*
X26276Y289701D01*
X26484Y289480D01*
X26589Y289196D01*
X26575Y288893D01*
X26445Y288619D01*
X26217Y288418D01*
X18897Y284191D01*
X13304Y277526D01*
X10328Y269350D01*
X10328Y260650D01*
X13304Y252474D01*
X18897Y245809D01*
X26431Y241458D01*
X35000Y239947D01*
X43569Y241458D01*
X51104Y245809D01*
X56696Y252474D01*
X59672Y260650D01*
X59672Y269350D01*
X56696Y277526D01*
X51104Y284191D01*
X43783Y288418D01*
X43651Y288514D01*
X43472Y288759D01*
X43402Y289054D01*
X43453Y289353D01*
X43616Y289608D01*
X43866Y289780D01*
X44164Y289840D01*
X190300Y289840D01*
X190497Y289814D01*
X195036Y288598D01*
X195378Y288401D01*
X198701Y285078D01*
X198898Y284736D01*
X200114Y280197D01*
X200140Y280000D01*
X200140Y242300D01*
X200131Y242181D01*
X198707Y233195D01*
X198634Y232968D01*
X194504Y224862D01*
X194363Y224670D01*
X187930Y218237D01*
X187738Y218096D01*
X179632Y213966D01*
X179405Y213893D01*
X170419Y212469D01*
X170300Y212460D01*
X118495Y212460D01*
X103081Y208942D01*
X88836Y202082D01*
X76475Y192225D01*
X66618Y179864D01*
X59758Y165619D01*
X56240Y150205D01*
X56240Y50164D01*
X56167Y49839D01*
X55986Y49596D01*
X55724Y49443D01*
X55424Y49404D01*
X55132Y49485D01*
X54894Y49674D01*
X51104Y54191D01*
X43569Y58542D01*
X35000Y60053D01*
X26431Y58542D01*
X18897Y54191D01*
X13304Y47526D01*
X10328Y39350D01*
X10328Y30650D01*
X13304Y22474D01*
X18897Y15809D01*
X26217Y11582D01*
X26349Y11486D01*
X26528Y11241D01*
X26598Y10946D01*
X26547Y10647D01*
X26384Y10392D01*
X26134Y10220D01*
G37*
%LPC*%
G36*
X124340Y280162D02*
X144660Y280162D01*
X144660Y282338D01*
X138708Y288290D01*
X130292Y288290D01*
X124340Y282338D01*
X124340Y280162D01*
G37*
G36*
X181512Y268986D02*
X189088Y268986D01*
X194444Y274342D01*
X194444Y281918D01*
X189088Y287274D01*
X181512Y287274D01*
X176156Y281918D01*
X176156Y274342D01*
X181512Y268986D01*
G37*
G36*
X156112Y268986D02*
X163688Y268986D01*
X169044Y274342D01*
X169044Y281918D01*
X163688Y287274D01*
X156112Y287274D01*
X150756Y281918D01*
X150756Y274342D01*
X156112Y268986D01*
G37*
G36*
X105312Y268986D02*
X112888Y268986D01*
X118244Y274342D01*
X118244Y281918D01*
X112888Y287274D01*
X105312Y287274D01*
X99956Y281918D01*
X99956Y274342D01*
X105312Y268986D01*
G37*
G36*
X79912Y268986D02*
X87488Y268986D01*
X92844Y274342D01*
X92844Y281918D01*
X87488Y287274D01*
X79912Y287274D01*
X74556Y281918D01*
X74556Y274342D01*
X79912Y268986D01*
G37*
G36*
X136532Y267970D02*
X138708Y267970D01*
X144660Y273922D01*
X144660Y276098D01*
X136532Y276098D01*
X136532Y267970D01*
G37*
G36*
X130292Y267970D02*
X132468Y267970D01*
X132468Y276098D01*
X124340Y276098D01*
X124340Y273922D01*
X130292Y267970D01*
G37*
G36*
X-261730Y263822D02*
X-252222Y263822D01*
X-252222Y273330D01*
X-252485Y273330D01*
X-256727Y271573D01*
X-259973Y268327D01*
X-261730Y264085D01*
X-261730Y263822D01*
G37*
G36*
X-345550Y263822D02*
X-336042Y263822D01*
X-336042Y273330D01*
X-336305Y273330D01*
X-340547Y271573D01*
X-343793Y268327D01*
X-345550Y264085D01*
X-345550Y263822D01*
G37*
G36*
X-331978Y263822D02*
X-322470Y263822D01*
X-322470Y264085D01*
X-324227Y268327D01*
X-327473Y271573D01*
X-331715Y273330D01*
X-331978Y273330D01*
X-331978Y263822D01*
G37*
G36*
X-248158Y263822D02*
X-238650Y263822D01*
X-238650Y264085D01*
X-240407Y268327D01*
X-243653Y271573D01*
X-247895Y273330D01*
X-248158Y273330D01*
X-248158Y263822D01*
G37*
G36*
X-67818Y263652D02*
X-58310Y263652D01*
X-58310Y263915D01*
X-60067Y268157D01*
X-63313Y271403D01*
X-67555Y273160D01*
X-67818Y273160D01*
X-67818Y263652D01*
G37*
G36*
X-81390Y263652D02*
X-71882Y263652D01*
X-71882Y273160D01*
X-72145Y273160D01*
X-76387Y271403D01*
X-79633Y268157D01*
X-81390Y263915D01*
X-81390Y263652D01*
G37*
G36*
X-165960Y263652D02*
X-156452Y263652D01*
X-156452Y273160D01*
X-156715Y273160D01*
X-160957Y271403D01*
X-164203Y268157D01*
X-165960Y263915D01*
X-165960Y263652D01*
G37*
G36*
X-152388Y263652D02*
X-142880Y263652D01*
X-142880Y263915D01*
X-144637Y268157D01*
X-147883Y271403D01*
X-152125Y273160D01*
X-152388Y273160D01*
X-152388Y263652D01*
G37*
G36*
X-310703Y251266D02*
X-306517Y251266D01*
X-302649Y252868D01*
X-299688Y255829D01*
X-298086Y259697D01*
X-298086Y263883D01*
X-299688Y267751D01*
X-302649Y270712D01*
X-306517Y272314D01*
X-310703Y272314D01*
X-314571Y270712D01*
X-317532Y267751D01*
X-319134Y263883D01*
X-319134Y259697D01*
X-317532Y255829D01*
X-314571Y252868D01*
X-310703Y251266D01*
G37*
G36*
X-201483Y251266D02*
X-197297Y251266D01*
X-193429Y252868D01*
X-190468Y255829D01*
X-188866Y259697D01*
X-188866Y263883D01*
X-190468Y267751D01*
X-193429Y270712D01*
X-197297Y272314D01*
X-201483Y272314D01*
X-205351Y270712D01*
X-208312Y267751D01*
X-209914Y263883D01*
X-209914Y259697D01*
X-208312Y255829D01*
X-205351Y252868D01*
X-201483Y251266D01*
G37*
G36*
X-226883Y251266D02*
X-222697Y251266D01*
X-218829Y252868D01*
X-215868Y255829D01*
X-214266Y259697D01*
X-214266Y263883D01*
X-215868Y267751D01*
X-218829Y270712D01*
X-222697Y272314D01*
X-226883Y272314D01*
X-230751Y270712D01*
X-233712Y267751D01*
X-235314Y263883D01*
X-235314Y259697D01*
X-233712Y255829D01*
X-230751Y252868D01*
X-226883Y251266D01*
G37*
G36*
X-285303Y251266D02*
X-281117Y251266D01*
X-277249Y252868D01*
X-274288Y255829D01*
X-272686Y259697D01*
X-272686Y263883D01*
X-274288Y267751D01*
X-277249Y270712D01*
X-281117Y272314D01*
X-285303Y272314D01*
X-289171Y270712D01*
X-292132Y267751D01*
X-293734Y263883D01*
X-293734Y259697D01*
X-292132Y255829D01*
X-289171Y252868D01*
X-285303Y251266D01*
G37*
G36*
X-131113Y251096D02*
X-126927Y251096D01*
X-123059Y252698D01*
X-120098Y255659D01*
X-118496Y259527D01*
X-118496Y263713D01*
X-120098Y267581D01*
X-123059Y270542D01*
X-126927Y272144D01*
X-131113Y272144D01*
X-134981Y270542D01*
X-137942Y267581D01*
X-139544Y263713D01*
X-139544Y259527D01*
X-137942Y255659D01*
X-134981Y252698D01*
X-131113Y251096D01*
G37*
G36*
X-105713Y251096D02*
X-101527Y251096D01*
X-97659Y252698D01*
X-94698Y255659D01*
X-93096Y259527D01*
X-93096Y263713D01*
X-94698Y267581D01*
X-97659Y270542D01*
X-101527Y272144D01*
X-105713Y272144D01*
X-109581Y270542D01*
X-112542Y267581D01*
X-114144Y263713D01*
X-114144Y259527D01*
X-112542Y255659D01*
X-109581Y252698D01*
X-105713Y251096D01*
G37*
G36*
X-21143Y251096D02*
X-16957Y251096D01*
X-13089Y252698D01*
X-10128Y255659D01*
X-8526Y259527D01*
X-8526Y263713D01*
X-10128Y267581D01*
X-13089Y270542D01*
X-16957Y272144D01*
X-21143Y272144D01*
X-25011Y270542D01*
X-27972Y267581D01*
X-29574Y263713D01*
X-29574Y259527D01*
X-27972Y255659D01*
X-25011Y252698D01*
X-21143Y251096D01*
G37*
G36*
X-46543Y251096D02*
X-42357Y251096D01*
X-38489Y252698D01*
X-35528Y255659D01*
X-33926Y259527D01*
X-33926Y263713D01*
X-35528Y267581D01*
X-38489Y270542D01*
X-42357Y272144D01*
X-46543Y272144D01*
X-50411Y270542D01*
X-53372Y267581D01*
X-54974Y263713D01*
X-54974Y259527D01*
X-53372Y255659D01*
X-50411Y252698D01*
X-46543Y251096D01*
G37*
G36*
X130712Y243586D02*
X138288Y243586D01*
X143644Y248942D01*
X143644Y256518D01*
X138288Y261874D01*
X130712Y261874D01*
X125356Y256518D01*
X125356Y248942D01*
X130712Y243586D01*
G37*
G36*
X181512Y243586D02*
X189088Y243586D01*
X194444Y248942D01*
X194444Y256518D01*
X189088Y261874D01*
X181512Y261874D01*
X176156Y256518D01*
X176156Y248942D01*
X181512Y243586D01*
G37*
G36*
X156112Y243586D02*
X163688Y243586D01*
X169044Y248942D01*
X169044Y256518D01*
X163688Y261874D01*
X156112Y261874D01*
X150756Y256518D01*
X150756Y248942D01*
X156112Y243586D01*
G37*
G36*
X105312Y243586D02*
X112888Y243586D01*
X118244Y248942D01*
X118244Y256518D01*
X112888Y261874D01*
X105312Y261874D01*
X99956Y256518D01*
X99956Y248942D01*
X105312Y243586D01*
G37*
G36*
X79912Y243586D02*
X87488Y243586D01*
X92844Y248942D01*
X92844Y256518D01*
X87488Y261874D01*
X79912Y261874D01*
X74556Y256518D01*
X74556Y248942D01*
X79912Y243586D01*
G37*
G36*
X-248158Y250250D02*
X-247895Y250250D01*
X-243653Y252007D01*
X-240407Y255253D01*
X-238650Y259495D01*
X-238650Y259758D01*
X-248158Y259758D01*
X-248158Y250250D01*
G37*
G36*
X-252485Y250250D02*
X-252222Y250250D01*
X-252222Y259758D01*
X-261730Y259758D01*
X-261730Y259495D01*
X-259973Y255253D01*
X-256727Y252007D01*
X-252485Y250250D01*
G37*
G36*
X-331978Y250250D02*
X-331715Y250250D01*
X-327473Y252007D01*
X-324227Y255253D01*
X-322470Y259495D01*
X-322470Y259758D01*
X-331978Y259758D01*
X-331978Y250250D01*
G37*
G36*
X-336305Y250250D02*
X-336042Y250250D01*
X-336042Y259758D01*
X-345550Y259758D01*
X-345550Y259495D01*
X-343793Y255253D01*
X-340547Y252007D01*
X-336305Y250250D01*
G37*
G36*
X-156715Y250080D02*
X-156452Y250080D01*
X-156452Y259588D01*
X-165960Y259588D01*
X-165960Y259325D01*
X-164203Y255083D01*
X-160957Y251837D01*
X-156715Y250080D01*
G37*
G36*
X-152388Y250080D02*
X-152125Y250080D01*
X-147883Y251837D01*
X-144637Y255083D01*
X-142880Y259325D01*
X-142880Y259588D01*
X-152388Y259588D01*
X-152388Y250080D01*
G37*
G36*
X-67818Y250080D02*
X-67555Y250080D01*
X-63313Y251837D01*
X-60067Y255083D01*
X-58310Y259325D01*
X-58310Y259588D01*
X-67818Y259588D01*
X-67818Y250080D01*
G37*
G36*
X-72145Y250080D02*
X-71882Y250080D01*
X-71882Y259588D01*
X-81390Y259588D01*
X-81390Y259325D01*
X-79633Y255083D01*
X-76387Y251837D01*
X-72145Y250080D01*
G37*
G36*
X-408493Y207916D02*
X-404307Y207916D01*
X-400439Y209518D01*
X-397478Y212479D01*
X-395876Y216347D01*
X-395876Y220533D01*
X-397478Y224401D01*
X-400439Y227362D01*
X-404307Y228964D01*
X-408493Y228964D01*
X-412361Y227362D01*
X-415322Y224401D01*
X-416924Y220533D01*
X-416924Y216347D01*
X-415322Y212479D01*
X-412361Y209518D01*
X-408493Y207916D01*
G37*
G36*
X-408493Y182516D02*
X-404307Y182516D01*
X-400439Y184118D01*
X-397478Y187079D01*
X-395876Y190947D01*
X-395876Y195133D01*
X-397478Y199001D01*
X-400439Y201962D01*
X-404307Y203564D01*
X-408493Y203564D01*
X-412361Y201962D01*
X-415322Y199001D01*
X-416924Y195133D01*
X-416924Y190947D01*
X-415322Y187079D01*
X-412361Y184118D01*
X-408493Y182516D01*
G37*
G36*
X-37990Y191052D02*
X-33232Y191052D01*
X-33232Y196060D01*
X-36502Y196060D01*
X-37990Y194572D01*
X-37990Y191052D01*
G37*
G36*
X-34408Y167720D02*
X-29888Y167720D01*
X-28400Y169208D01*
X-28400Y181218D01*
X-28349Y181493D01*
X-28185Y181748D01*
X-27935Y181920D01*
X-27638Y181980D01*
X-27215Y181980D01*
X-26952Y181933D01*
X-26694Y181774D01*
X-26518Y181526D01*
X-26453Y181230D01*
X-26464Y181171D01*
X-26464Y169629D01*
X-25571Y168736D01*
X-13309Y168736D01*
X-12416Y169629D01*
X-12416Y180891D01*
X-13309Y181784D01*
X-14091Y181784D01*
X-14354Y181831D01*
X-14612Y181990D01*
X-14788Y182238D01*
X-14853Y182534D01*
X-14797Y182832D01*
X-14630Y183085D01*
X-13826Y183889D01*
X-13826Y186635D01*
X-13770Y186921D01*
X-13744Y186960D01*
X-13744Y191496D01*
X-13766Y191528D01*
X-13826Y191825D01*
X-13826Y194151D01*
X-14719Y195044D01*
X-24566Y195044D01*
X-24852Y195100D01*
X-25105Y195267D01*
X-25898Y196060D01*
X-29168Y196060D01*
X-29168Y186988D01*
X-37990Y186988D01*
X-37990Y183562D01*
X-38041Y183287D01*
X-38205Y183032D01*
X-38455Y182860D01*
X-38752Y182800D01*
X-42992Y182800D01*
X-44480Y181312D01*
X-44480Y177292D01*
X-34408Y177292D01*
X-34408Y167720D01*
G37*
G36*
X-417940Y169672D02*
X-408432Y169672D01*
X-408432Y179180D01*
X-408695Y179180D01*
X-412937Y177423D01*
X-416183Y174177D01*
X-417940Y169935D01*
X-417940Y169672D01*
G37*
G36*
X-404368Y169672D02*
X-394860Y169672D01*
X-394860Y169935D01*
X-396617Y174177D01*
X-399863Y177423D01*
X-404105Y179180D01*
X-404368Y179180D01*
X-404368Y169672D01*
G37*
G36*
X-42992Y167720D02*
X-38472Y167720D01*
X-38472Y173228D01*
X-44480Y173228D01*
X-44480Y169208D01*
X-42992Y167720D01*
G37*
G36*
X-404368Y156100D02*
X-404105Y156100D01*
X-399863Y157857D01*
X-396617Y161103D01*
X-394860Y165345D01*
X-394860Y165608D01*
X-404368Y165608D01*
X-404368Y156100D01*
G37*
G36*
X-408695Y156100D02*
X-408432Y156100D01*
X-408432Y165608D01*
X-417940Y165608D01*
X-417940Y165345D01*
X-416183Y161103D01*
X-412937Y157857D01*
X-408695Y156100D01*
G37*
G36*
X-408493Y122826D02*
X-404307Y122826D01*
X-400439Y124428D01*
X-397478Y127389D01*
X-395876Y131257D01*
X-395876Y135443D01*
X-397478Y139311D01*
X-400439Y142272D01*
X-404307Y143874D01*
X-408493Y143874D01*
X-412361Y142272D01*
X-415322Y139311D01*
X-416924Y135443D01*
X-416924Y131257D01*
X-415322Y127389D01*
X-412361Y124428D01*
X-408493Y122826D01*
G37*
G36*
X-237047Y108712D02*
X-230313Y108712D01*
X-225552Y113473D01*
X-225552Y120207D01*
X-230313Y124968D01*
X-237047Y124968D01*
X-241808Y120207D01*
X-241808Y113473D01*
X-237047Y108712D01*
G37*
G36*
X-135447Y108712D02*
X-128713Y108712D01*
X-123952Y113473D01*
X-123952Y120207D01*
X-128713Y124968D01*
X-135447Y124968D01*
X-140208Y120207D01*
X-140208Y113473D01*
X-135447Y108712D01*
G37*
G36*
X-408493Y97426D02*
X-404307Y97426D01*
X-400439Y99028D01*
X-397478Y101989D01*
X-395876Y105857D01*
X-395876Y110043D01*
X-397478Y113911D01*
X-400439Y116872D01*
X-404307Y118474D01*
X-408493Y118474D01*
X-412361Y116872D01*
X-415322Y113911D01*
X-416924Y110043D01*
X-416924Y105857D01*
X-415322Y101989D01*
X-412361Y99028D01*
X-408493Y97426D01*
G37*
G36*
X-417940Y84582D02*
X-408432Y84582D01*
X-408432Y94090D01*
X-408695Y94090D01*
X-412937Y92333D01*
X-416183Y89087D01*
X-417940Y84845D01*
X-417940Y84582D01*
G37*
G36*
X-404368Y84582D02*
X-394860Y84582D01*
X-394860Y84845D01*
X-396617Y89087D01*
X-399863Y92333D01*
X-404105Y94090D01*
X-404368Y94090D01*
X-404368Y84582D01*
G37*
G36*
X-408695Y71010D02*
X-408432Y71010D01*
X-408432Y80518D01*
X-417940Y80518D01*
X-417940Y80255D01*
X-416183Y76013D01*
X-412937Y72767D01*
X-408695Y71010D01*
G37*
G36*
X-404368Y71010D02*
X-404105Y71010D01*
X-399863Y72767D01*
X-396617Y76013D01*
X-394860Y80255D01*
X-394860Y80518D01*
X-404368Y80518D01*
X-404368Y71010D01*
G37*
G36*
X-115160Y40132D02*
X-105652Y40132D01*
X-105652Y49640D01*
X-105915Y49640D01*
X-110157Y47883D01*
X-113403Y44637D01*
X-115160Y40395D01*
X-115160Y40132D01*
G37*
G36*
X-210930Y40132D02*
X-201422Y40132D01*
X-201422Y49640D01*
X-201685Y49640D01*
X-205927Y47883D01*
X-209173Y44637D01*
X-210930Y40395D01*
X-210930Y40132D01*
G37*
G36*
X-294750Y40132D02*
X-285242Y40132D01*
X-285242Y49640D01*
X-285505Y49640D01*
X-289747Y47883D01*
X-292993Y44637D01*
X-294750Y40395D01*
X-294750Y40132D01*
G37*
G36*
X-30590Y40132D02*
X-21082Y40132D01*
X-21082Y49640D01*
X-21345Y49640D01*
X-25587Y47883D01*
X-28833Y44637D01*
X-30590Y40395D01*
X-30590Y40132D01*
G37*
G36*
X-17018Y40132D02*
X-7510Y40132D01*
X-7510Y40395D01*
X-9267Y44637D01*
X-12513Y47883D01*
X-16755Y49640D01*
X-17018Y49640D01*
X-17018Y40132D01*
G37*
G36*
X-281178Y40132D02*
X-271670Y40132D01*
X-271670Y40395D01*
X-273427Y44637D01*
X-276673Y47883D01*
X-280915Y49640D01*
X-281178Y49640D01*
X-281178Y40132D01*
G37*
G36*
X-197358Y40132D02*
X-187850Y40132D01*
X-187850Y40395D01*
X-189607Y44637D01*
X-192853Y47883D01*
X-197095Y49640D01*
X-197358Y49640D01*
X-197358Y40132D01*
G37*
G36*
X-101588Y40132D02*
X-92080Y40132D01*
X-92080Y40395D01*
X-93837Y44637D01*
X-97083Y47883D01*
X-101325Y49640D01*
X-101588Y49640D01*
X-101588Y40132D01*
G37*
G36*
X-46543Y27576D02*
X-42357Y27576D01*
X-38489Y29178D01*
X-35528Y32139D01*
X-33926Y36007D01*
X-33926Y40193D01*
X-35528Y44061D01*
X-38489Y47022D01*
X-42357Y48624D01*
X-46543Y48624D01*
X-50411Y47022D01*
X-53372Y44061D01*
X-54974Y40193D01*
X-54974Y36007D01*
X-53372Y32139D01*
X-50411Y29178D01*
X-46543Y27576D01*
G37*
G36*
X-71943Y27576D02*
X-67757Y27576D01*
X-63889Y29178D01*
X-60928Y32139D01*
X-59326Y36007D01*
X-59326Y40193D01*
X-60928Y44061D01*
X-63889Y47022D01*
X-67757Y48624D01*
X-71943Y48624D01*
X-75811Y47022D01*
X-78772Y44061D01*
X-80374Y40193D01*
X-80374Y36007D01*
X-78772Y32139D01*
X-75811Y29178D01*
X-71943Y27576D01*
G37*
G36*
X-131113Y27576D02*
X-126927Y27576D01*
X-123059Y29178D01*
X-120098Y32139D01*
X-118496Y36007D01*
X-118496Y40193D01*
X-120098Y44061D01*
X-123059Y47022D01*
X-126927Y48624D01*
X-131113Y48624D01*
X-134981Y47022D01*
X-137942Y44061D01*
X-139544Y40193D01*
X-139544Y36007D01*
X-137942Y32139D01*
X-134981Y29178D01*
X-131113Y27576D01*
G37*
G36*
X-156513Y27576D02*
X-152327Y27576D01*
X-148459Y29178D01*
X-145498Y32139D01*
X-143896Y36007D01*
X-143896Y40193D01*
X-145498Y44061D01*
X-148459Y47022D01*
X-152327Y48624D01*
X-156513Y48624D01*
X-160381Y47022D01*
X-163342Y44061D01*
X-164944Y40193D01*
X-164944Y36007D01*
X-163342Y32139D01*
X-160381Y29178D01*
X-156513Y27576D01*
G37*
G36*
X-226883Y27576D02*
X-222697Y27576D01*
X-218829Y29178D01*
X-215868Y32139D01*
X-214266Y36007D01*
X-214266Y40193D01*
X-215868Y44061D01*
X-218829Y47022D01*
X-222697Y48624D01*
X-226883Y48624D01*
X-230751Y47022D01*
X-233712Y44061D01*
X-235314Y40193D01*
X-235314Y36007D01*
X-233712Y32139D01*
X-230751Y29178D01*
X-226883Y27576D01*
G37*
G36*
X-252283Y27576D02*
X-248097Y27576D01*
X-244229Y29178D01*
X-241268Y32139D01*
X-239666Y36007D01*
X-239666Y40193D01*
X-241268Y44061D01*
X-244229Y47022D01*
X-248097Y48624D01*
X-252283Y48624D01*
X-256151Y47022D01*
X-259112Y44061D01*
X-260714Y40193D01*
X-260714Y36007D01*
X-259112Y32139D01*
X-256151Y29178D01*
X-252283Y27576D01*
G37*
G36*
X-310703Y27576D02*
X-306517Y27576D01*
X-302649Y29178D01*
X-299688Y32139D01*
X-298086Y36007D01*
X-298086Y40193D01*
X-299688Y44061D01*
X-302649Y47022D01*
X-306517Y48624D01*
X-310703Y48624D01*
X-314571Y47022D01*
X-317532Y44061D01*
X-319134Y40193D01*
X-319134Y36007D01*
X-317532Y32139D01*
X-314571Y29178D01*
X-310703Y27576D01*
G37*
G36*
X-336103Y27576D02*
X-331917Y27576D01*
X-328049Y29178D01*
X-325088Y32139D01*
X-323486Y36007D01*
X-323486Y40193D01*
X-325088Y44061D01*
X-328049Y47022D01*
X-331917Y48624D01*
X-336103Y48624D01*
X-339971Y47022D01*
X-342932Y44061D01*
X-344534Y40193D01*
X-344534Y36007D01*
X-342932Y32139D01*
X-339971Y29178D01*
X-336103Y27576D01*
G37*
G36*
X-17018Y26560D02*
X-16755Y26560D01*
X-12513Y28317D01*
X-9267Y31563D01*
X-7510Y35805D01*
X-7510Y36068D01*
X-17018Y36068D01*
X-17018Y26560D01*
G37*
G36*
X-21345Y26560D02*
X-21082Y26560D01*
X-21082Y36068D01*
X-30590Y36068D01*
X-30590Y35805D01*
X-28833Y31563D01*
X-25587Y28317D01*
X-21345Y26560D01*
G37*
G36*
X-101588Y26560D02*
X-101325Y26560D01*
X-97083Y28317D01*
X-93837Y31563D01*
X-92080Y35805D01*
X-92080Y36068D01*
X-101588Y36068D01*
X-101588Y26560D01*
G37*
G36*
X-105915Y26560D02*
X-105652Y26560D01*
X-105652Y36068D01*
X-115160Y36068D01*
X-115160Y35805D01*
X-113403Y31563D01*
X-110157Y28317D01*
X-105915Y26560D01*
G37*
G36*
X-197358Y26560D02*
X-197095Y26560D01*
X-192853Y28317D01*
X-189607Y31563D01*
X-187850Y35805D01*
X-187850Y36068D01*
X-197358Y36068D01*
X-197358Y26560D01*
G37*
G36*
X-201685Y26560D02*
X-201422Y26560D01*
X-201422Y36068D01*
X-210930Y36068D01*
X-210930Y35805D01*
X-209173Y31563D01*
X-205927Y28317D01*
X-201685Y26560D01*
G37*
G36*
X-281178Y26560D02*
X-280915Y26560D01*
X-276673Y28317D01*
X-273427Y31563D01*
X-271670Y35805D01*
X-271670Y36068D01*
X-281178Y36068D01*
X-281178Y26560D01*
G37*
G36*
X-285505Y26560D02*
X-285242Y26560D01*
X-285242Y36068D01*
X-294750Y36068D01*
X-294750Y35805D01*
X-292993Y31563D01*
X-289747Y28317D01*
X-285505Y26560D01*
G37*
%LPD*%
D10*
X-19050Y261620D03*
X-69850Y261620D03*
X-44450Y261620D03*
X-334010Y38100D03*
X-283210Y38100D03*
X-308610Y38100D03*
X-103620Y261620D03*
X-154420Y261620D03*
X-129020Y261620D03*
X-199390Y261790D03*
X-250190Y261790D03*
X-224790Y261790D03*
X-283210Y261790D03*
X-334010Y261790D03*
X-308610Y261790D03*
X-406400Y218440D03*
X-406400Y167640D03*
X-406400Y193040D03*
X-406400Y133350D03*
X-406400Y82550D03*
X-406400Y107950D03*
X-69850Y38100D03*
X-19050Y38100D03*
X-44450Y38100D03*
X-154420Y38100D03*
X-103620Y38100D03*
X-129020Y38100D03*
X-250190Y38100D03*
X-199390Y38100D03*
X-224790Y38100D03*
D11*
X83700Y252730D03*
X83700Y278130D03*
X109100Y252730D03*
X109100Y278130D03*
X134500Y252730D03*
X134500Y278130D03*
X159900Y252730D03*
X159900Y278130D03*
X185300Y252730D03*
X185300Y278130D03*
D12*
X-233680Y116840D03*
X-132080Y116840D03*
D13*
X-19600Y189020D03*
X-31200Y189020D03*
D14*
X-19440Y175260D03*
X-36440Y175260D03*
D15*
X-19050Y189230D03*
X-19050Y175260D03*
M02*
