G04 EAGLE Gerber RS-274X export*
G75*
%MOMM*%
%FSLAX34Y34*%
%LPD*%
%INSilkscreen Top*%
%IPPOS*%
%AMOC8*
5,1,8,0,0,1.08239X$1,22.5*%
G01*
G04 Define Apertures*
%ADD10C,0.152400*%
%ADD11C,1.016000*%
%ADD12R,0.863600X0.609600*%
%ADD13C,0.177800*%
%ADD14C,0.127000*%
G36*
X-121389Y143510D02*
X-124800Y143510D01*
X-124800Y169147D01*
X-112735Y169147D01*
X-112284Y169140D01*
X-111845Y169119D01*
X-111418Y169084D01*
X-111004Y169035D01*
X-110602Y168972D01*
X-110213Y168895D01*
X-109837Y168803D01*
X-109472Y168698D01*
X-109121Y168579D01*
X-108781Y168446D01*
X-108455Y168298D01*
X-108140Y168137D01*
X-107839Y167962D01*
X-107549Y167773D01*
X-107273Y167569D01*
X-107008Y167352D01*
X-106758Y167122D01*
X-106524Y166882D01*
X-106307Y166632D01*
X-106105Y166371D01*
X-105920Y166100D01*
X-105750Y165818D01*
X-105597Y165527D01*
X-105460Y165224D01*
X-105339Y164912D01*
X-105234Y164589D01*
X-105145Y164255D01*
X-105073Y163911D01*
X-105016Y163557D01*
X-104976Y163193D01*
X-104952Y162818D01*
X-104944Y162433D01*
X-104960Y161858D01*
X-105010Y161302D01*
X-105093Y160763D01*
X-105209Y160242D01*
X-105357Y159740D01*
X-105540Y159255D01*
X-105755Y158788D01*
X-106003Y158339D01*
X-106288Y157917D01*
X-106612Y157529D01*
X-106977Y157176D01*
X-107381Y156858D01*
X-107825Y156575D01*
X-108309Y156326D01*
X-108833Y156113D01*
X-109396Y155934D01*
X-109396Y155862D01*
X-108865Y155736D01*
X-108386Y155575D01*
X-107959Y155377D01*
X-107583Y155144D01*
X-107251Y154880D01*
X-106954Y154592D01*
X-106694Y154279D01*
X-106470Y153941D01*
X-106277Y153581D01*
X-106111Y153200D01*
X-105972Y152800D01*
X-105859Y152379D01*
X-105684Y151499D01*
X-105554Y150584D01*
X-105491Y149641D01*
X-105446Y148681D01*
X-105422Y148198D01*
X-105384Y147720D01*
X-105332Y147246D01*
X-105267Y146777D01*
X-105187Y146316D01*
X-105092Y145866D01*
X-104981Y145428D01*
X-104854Y145000D01*
X-104702Y144591D01*
X-104517Y144206D01*
X-104299Y143845D01*
X-104046Y143510D01*
X-107852Y143510D01*
X-108017Y143725D01*
X-108153Y143977D01*
X-108259Y144264D01*
X-108337Y144587D01*
X-108394Y144938D01*
X-108440Y145310D01*
X-108475Y145701D01*
X-108498Y146113D01*
X-108570Y147926D01*
X-108597Y148409D01*
X-108642Y148887D01*
X-108705Y149360D01*
X-108786Y149830D01*
X-108947Y150741D01*
X-109145Y151607D01*
X-109268Y152015D01*
X-109423Y152397D01*
X-109609Y152751D01*
X-109827Y153079D01*
X-110078Y153377D01*
X-110366Y153645D01*
X-110689Y153880D01*
X-111048Y154084D01*
X-111244Y154173D01*
X-111456Y154249D01*
X-111684Y154314D01*
X-111927Y154367D01*
X-112187Y154408D01*
X-112462Y154438D01*
X-112752Y154456D01*
X-113059Y154461D01*
X-121389Y154461D01*
X-121389Y143510D01*
G37*
%LPC*%
G36*
X-114279Y157334D02*
X-113694Y157345D01*
X-113121Y157379D01*
X-112563Y157435D01*
X-112017Y157513D01*
X-111495Y157625D01*
X-111007Y157778D01*
X-110553Y157975D01*
X-110132Y158214D01*
X-109748Y158496D01*
X-109405Y158824D01*
X-109102Y159197D01*
X-108840Y159614D01*
X-108726Y159842D01*
X-108627Y160086D01*
X-108544Y160347D01*
X-108476Y160624D01*
X-108423Y160917D01*
X-108385Y161226D01*
X-108362Y161552D01*
X-108355Y161894D01*
X-108372Y162368D01*
X-108422Y162819D01*
X-108506Y163247D01*
X-108624Y163653D01*
X-108776Y164037D01*
X-108961Y164398D01*
X-109180Y164737D01*
X-109432Y165054D01*
X-109722Y165340D01*
X-110054Y165588D01*
X-110427Y165798D01*
X-110841Y165969D01*
X-111297Y166103D01*
X-111795Y166198D01*
X-112334Y166255D01*
X-112915Y166275D01*
X-121389Y166275D01*
X-121389Y157334D01*
X-114279Y157334D01*
G37*
%LPD*%
G36*
X-46330Y136436D02*
X-49382Y136436D01*
X-49382Y162074D01*
X-46330Y162074D01*
X-46330Y159560D01*
X-46258Y159560D01*
X-46057Y159933D01*
X-46043Y159953D01*
X-45828Y160279D01*
X-45572Y160599D01*
X-45289Y160893D01*
X-44979Y161160D01*
X-44643Y161401D01*
X-44279Y161616D01*
X-43889Y161804D01*
X-43480Y161968D01*
X-43061Y162111D01*
X-42631Y162231D01*
X-42192Y162329D01*
X-41743Y162406D01*
X-41283Y162461D01*
X-40814Y162493D01*
X-40334Y162504D01*
X-39804Y162492D01*
X-39292Y162455D01*
X-38796Y162393D01*
X-38319Y162307D01*
X-37858Y162196D01*
X-37415Y162060D01*
X-36990Y161900D01*
X-36582Y161714D01*
X-36191Y161508D01*
X-35817Y161285D01*
X-35459Y161044D01*
X-35119Y160785D01*
X-34795Y160510D01*
X-34488Y160217D01*
X-34198Y159906D01*
X-33925Y159578D01*
X-33668Y159235D01*
X-33428Y158879D01*
X-33203Y158510D01*
X-32996Y158128D01*
X-32804Y157734D01*
X-32629Y157326D01*
X-32470Y156906D01*
X-32327Y156472D01*
X-32201Y156029D01*
X-32091Y155579D01*
X-31999Y155122D01*
X-31923Y154659D01*
X-31864Y154189D01*
X-31822Y153712D01*
X-31797Y153228D01*
X-31788Y152738D01*
X-31796Y152248D01*
X-31821Y151764D01*
X-31861Y151287D01*
X-31918Y150817D01*
X-31992Y150354D01*
X-32081Y149897D01*
X-32187Y149447D01*
X-32309Y149004D01*
X-32447Y148571D01*
X-32603Y148152D01*
X-32775Y147747D01*
X-32964Y147356D01*
X-33170Y146980D01*
X-33393Y146617D01*
X-33632Y146268D01*
X-33889Y145934D01*
X-34162Y145615D01*
X-34452Y145313D01*
X-34759Y145029D01*
X-35083Y144762D01*
X-35423Y144513D01*
X-35781Y144281D01*
X-36155Y144066D01*
X-36546Y143869D01*
X-36953Y143692D01*
X-37377Y143539D01*
X-37817Y143410D01*
X-38274Y143304D01*
X-38747Y143221D01*
X-39235Y143162D01*
X-39741Y143127D01*
X-40262Y143115D01*
X-40613Y143124D01*
X-40985Y143151D01*
X-41376Y143196D01*
X-41788Y143259D01*
X-42209Y143342D01*
X-42627Y143447D01*
X-43044Y143575D01*
X-43458Y143725D01*
X-43865Y143902D01*
X-44261Y144107D01*
X-44646Y144341D01*
X-45020Y144605D01*
X-45373Y144900D01*
X-45697Y145229D01*
X-45993Y145591D01*
X-46258Y145988D01*
X-46330Y145988D01*
X-46330Y136436D01*
G37*
%LPC*%
G36*
X-40585Y145772D02*
X-40198Y145782D01*
X-39828Y145810D01*
X-39474Y145858D01*
X-39136Y145925D01*
X-38814Y146011D01*
X-38508Y146115D01*
X-38219Y146239D01*
X-37946Y146383D01*
X-37688Y146541D01*
X-37442Y146712D01*
X-37210Y146896D01*
X-36990Y147092D01*
X-36783Y147300D01*
X-36590Y147520D01*
X-36409Y147753D01*
X-36241Y147998D01*
X-35940Y148519D01*
X-35684Y149075D01*
X-35473Y149668D01*
X-35307Y150296D01*
X-35181Y150947D01*
X-35092Y151607D01*
X-35038Y152276D01*
X-35020Y152953D01*
X-35041Y153596D01*
X-35105Y154233D01*
X-35212Y154862D01*
X-35361Y155485D01*
X-35554Y156087D01*
X-35792Y156656D01*
X-36075Y157191D01*
X-36402Y157693D01*
X-36583Y157929D01*
X-36777Y158153D01*
X-36983Y158365D01*
X-37201Y158564D01*
X-37432Y158751D01*
X-37675Y158925D01*
X-37930Y159087D01*
X-38198Y159237D01*
X-38477Y159372D01*
X-38769Y159488D01*
X-39072Y159587D01*
X-39387Y159668D01*
X-39714Y159731D01*
X-40052Y159776D01*
X-40403Y159802D01*
X-40765Y159811D01*
X-41144Y159802D01*
X-41508Y159773D01*
X-41857Y159726D01*
X-42192Y159659D01*
X-42512Y159573D01*
X-42818Y159468D01*
X-43109Y159344D01*
X-43386Y159201D01*
X-43649Y159043D01*
X-43900Y158872D01*
X-44100Y158719D01*
X-44138Y158690D01*
X-44364Y158496D01*
X-44578Y158291D01*
X-44780Y158073D01*
X-44969Y157844D01*
X-45145Y157603D01*
X-45463Y157093D01*
X-45733Y156548D01*
X-45957Y155971D01*
X-46133Y155359D01*
X-46266Y154728D01*
X-46362Y154093D01*
X-46419Y153454D01*
X-46438Y152810D01*
X-46418Y152133D01*
X-46357Y151468D01*
X-46256Y150814D01*
X-46115Y150171D01*
X-45930Y149552D01*
X-45697Y148972D01*
X-45418Y148430D01*
X-45092Y147926D01*
X-44910Y147690D01*
X-44716Y147465D01*
X-44508Y147252D01*
X-44288Y147051D01*
X-44055Y146862D01*
X-43809Y146684D01*
X-43550Y146519D01*
X-43278Y146365D01*
X-42993Y146226D01*
X-42693Y146105D01*
X-42378Y146004D01*
X-42048Y145920D01*
X-41705Y145855D01*
X-41346Y145809D01*
X-40973Y145781D01*
X-40585Y145772D01*
G37*
%LPD*%
G36*
X-28367Y98336D02*
X-31419Y98336D01*
X-31419Y123974D01*
X-28367Y123974D01*
X-28367Y121460D01*
X-28296Y121460D01*
X-28094Y121833D01*
X-28080Y121853D01*
X-27865Y122179D01*
X-27609Y122499D01*
X-27326Y122793D01*
X-27016Y123060D01*
X-26680Y123301D01*
X-26316Y123516D01*
X-25926Y123704D01*
X-25517Y123868D01*
X-25098Y124011D01*
X-24669Y124131D01*
X-24229Y124229D01*
X-23780Y124306D01*
X-23320Y124361D01*
X-22851Y124393D01*
X-22371Y124404D01*
X-21841Y124392D01*
X-21329Y124355D01*
X-20834Y124293D01*
X-20356Y124207D01*
X-19896Y124096D01*
X-19453Y123960D01*
X-19027Y123800D01*
X-18619Y123614D01*
X-18228Y123408D01*
X-17854Y123185D01*
X-17496Y122944D01*
X-17156Y122685D01*
X-16832Y122410D01*
X-16525Y122117D01*
X-16235Y121806D01*
X-15962Y121478D01*
X-15705Y121135D01*
X-15465Y120779D01*
X-15241Y120410D01*
X-15033Y120028D01*
X-14841Y119634D01*
X-14666Y119226D01*
X-14507Y118806D01*
X-14364Y118372D01*
X-14238Y117929D01*
X-14128Y117479D01*
X-14036Y117022D01*
X-13960Y116559D01*
X-13901Y116089D01*
X-13859Y115612D01*
X-13834Y115128D01*
X-13825Y114638D01*
X-13834Y114148D01*
X-13858Y113664D01*
X-13899Y113187D01*
X-13956Y112717D01*
X-14029Y112254D01*
X-14118Y111797D01*
X-14224Y111347D01*
X-14346Y110904D01*
X-14485Y110471D01*
X-14640Y110052D01*
X-14812Y109647D01*
X-15001Y109256D01*
X-15207Y108880D01*
X-15430Y108517D01*
X-15670Y108168D01*
X-15926Y107834D01*
X-16199Y107515D01*
X-16489Y107213D01*
X-16796Y106929D01*
X-17120Y106662D01*
X-17460Y106413D01*
X-17818Y106181D01*
X-18192Y105966D01*
X-18583Y105769D01*
X-18991Y105592D01*
X-19414Y105439D01*
X-19855Y105310D01*
X-20311Y105204D01*
X-20784Y105121D01*
X-21273Y105062D01*
X-21778Y105027D01*
X-22299Y105015D01*
X-22650Y105024D01*
X-23022Y105051D01*
X-23413Y105096D01*
X-23825Y105159D01*
X-24246Y105242D01*
X-24665Y105347D01*
X-25081Y105475D01*
X-25495Y105625D01*
X-25902Y105802D01*
X-26298Y106007D01*
X-26683Y106241D01*
X-27057Y106505D01*
X-27410Y106800D01*
X-27735Y107129D01*
X-28030Y107491D01*
X-28296Y107888D01*
X-28367Y107888D01*
X-28367Y98336D01*
G37*
%LPC*%
G36*
X-22622Y107672D02*
X-22236Y107682D01*
X-21865Y107710D01*
X-21511Y107758D01*
X-21173Y107825D01*
X-20851Y107911D01*
X-20545Y108015D01*
X-20256Y108139D01*
X-19983Y108283D01*
X-19725Y108441D01*
X-19480Y108612D01*
X-19247Y108796D01*
X-19027Y108992D01*
X-18821Y109200D01*
X-18627Y109420D01*
X-18446Y109653D01*
X-18278Y109898D01*
X-17977Y110419D01*
X-17721Y110975D01*
X-17510Y111568D01*
X-17344Y112196D01*
X-17219Y112847D01*
X-17129Y113507D01*
X-17075Y114176D01*
X-17057Y114853D01*
X-17078Y115496D01*
X-17142Y116133D01*
X-17249Y116762D01*
X-17398Y117385D01*
X-17591Y117987D01*
X-17829Y118556D01*
X-18112Y119091D01*
X-18439Y119593D01*
X-18621Y119829D01*
X-18814Y120053D01*
X-19020Y120265D01*
X-19238Y120464D01*
X-19469Y120651D01*
X-19712Y120825D01*
X-19967Y120987D01*
X-20235Y121137D01*
X-20514Y121272D01*
X-20806Y121388D01*
X-21109Y121487D01*
X-21424Y121568D01*
X-21751Y121631D01*
X-22089Y121676D01*
X-22440Y121702D01*
X-22802Y121711D01*
X-23181Y121702D01*
X-23545Y121673D01*
X-23894Y121626D01*
X-24229Y121559D01*
X-24550Y121473D01*
X-24855Y121368D01*
X-25147Y121244D01*
X-25423Y121101D01*
X-25686Y120943D01*
X-25937Y120772D01*
X-26137Y120619D01*
X-26175Y120590D01*
X-26402Y120396D01*
X-26615Y120191D01*
X-26817Y119973D01*
X-27006Y119744D01*
X-27183Y119503D01*
X-27500Y118993D01*
X-27770Y118448D01*
X-27994Y117871D01*
X-28170Y117259D01*
X-28303Y116628D01*
X-28399Y115993D01*
X-28456Y115354D01*
X-28475Y114710D01*
X-28455Y114033D01*
X-28394Y113368D01*
X-28293Y112714D01*
X-28152Y112071D01*
X-27967Y111452D01*
X-27735Y110872D01*
X-27455Y110330D01*
X-27129Y109826D01*
X-26947Y109590D01*
X-26753Y109365D01*
X-26545Y109152D01*
X-26325Y108951D01*
X-26092Y108762D01*
X-25846Y108584D01*
X-25587Y108419D01*
X-25315Y108265D01*
X-25030Y108126D01*
X-24730Y108005D01*
X-24415Y107904D01*
X-24086Y107820D01*
X-23742Y107755D01*
X-23383Y107709D01*
X-23010Y107681D01*
X-22622Y107672D01*
G37*
%LPD*%
G36*
X-92702Y143115D02*
X-93241Y143127D01*
X-93765Y143161D01*
X-94274Y143219D01*
X-94766Y143299D01*
X-95243Y143403D01*
X-95704Y143529D01*
X-96150Y143679D01*
X-96580Y143851D01*
X-96993Y144044D01*
X-97390Y144255D01*
X-97770Y144484D01*
X-98133Y144731D01*
X-98479Y144996D01*
X-98808Y145278D01*
X-99121Y145579D01*
X-99416Y145898D01*
X-99694Y146232D01*
X-99955Y146581D01*
X-100197Y146944D01*
X-100422Y147321D01*
X-100628Y147711D01*
X-100817Y148116D01*
X-100987Y148535D01*
X-101140Y148968D01*
X-101274Y149412D01*
X-101391Y149865D01*
X-101490Y150328D01*
X-101571Y150799D01*
X-101633Y151279D01*
X-101678Y151768D01*
X-101705Y152267D01*
X-101714Y152774D01*
X-101705Y153281D01*
X-101678Y153780D01*
X-101633Y154271D01*
X-101571Y154753D01*
X-101490Y155227D01*
X-101391Y155692D01*
X-101274Y156149D01*
X-101140Y156598D01*
X-100987Y157035D01*
X-100817Y157457D01*
X-100628Y157865D01*
X-100422Y158258D01*
X-100197Y158637D01*
X-99955Y159001D01*
X-99694Y159351D01*
X-99416Y159686D01*
X-99121Y160005D01*
X-98808Y160306D01*
X-98479Y160590D01*
X-98133Y160857D01*
X-97770Y161107D01*
X-97390Y161339D01*
X-96993Y161553D01*
X-96580Y161750D01*
X-96150Y161927D01*
X-95704Y162080D01*
X-95243Y162210D01*
X-94766Y162316D01*
X-94274Y162398D01*
X-93765Y162457D01*
X-93241Y162493D01*
X-92702Y162504D01*
X-92154Y162493D01*
X-91623Y162457D01*
X-91110Y162398D01*
X-90615Y162316D01*
X-90136Y162210D01*
X-89675Y162080D01*
X-89232Y161927D01*
X-88806Y161750D01*
X-88397Y161553D01*
X-88004Y161339D01*
X-87627Y161107D01*
X-87266Y160857D01*
X-86922Y160590D01*
X-86594Y160306D01*
X-86283Y160005D01*
X-85987Y159686D01*
X-85709Y159351D01*
X-85449Y159001D01*
X-85206Y158637D01*
X-84982Y158258D01*
X-84775Y157865D01*
X-84587Y157457D01*
X-84416Y157035D01*
X-84264Y156598D01*
X-84129Y156149D01*
X-84012Y155692D01*
X-83914Y155227D01*
X-83833Y154753D01*
X-83770Y154271D01*
X-83725Y153780D01*
X-83698Y153281D01*
X-83689Y152774D01*
X-83698Y152267D01*
X-83725Y151768D01*
X-83770Y151279D01*
X-83833Y150799D01*
X-83914Y150328D01*
X-84012Y149865D01*
X-84129Y149412D01*
X-84264Y148968D01*
X-84416Y148535D01*
X-84587Y148116D01*
X-84775Y147711D01*
X-84982Y147321D01*
X-85206Y146944D01*
X-85449Y146581D01*
X-85709Y146232D01*
X-85987Y145898D01*
X-86283Y145579D01*
X-86594Y145278D01*
X-86922Y144996D01*
X-87266Y144731D01*
X-87627Y144484D01*
X-88004Y144255D01*
X-88397Y144044D01*
X-88806Y143851D01*
X-89232Y143679D01*
X-89675Y143529D01*
X-90136Y143403D01*
X-90615Y143299D01*
X-91110Y143219D01*
X-91623Y143161D01*
X-92154Y143127D01*
X-92702Y143115D01*
G37*
%LPC*%
G36*
X-92702Y145772D02*
X-92407Y145779D01*
X-92117Y145801D01*
X-91831Y145838D01*
X-91548Y145889D01*
X-91270Y145954D01*
X-90995Y146035D01*
X-90458Y146239D01*
X-89945Y146498D01*
X-89466Y146809D01*
X-89020Y147171D01*
X-88608Y147585D01*
X-88416Y147812D01*
X-88235Y148052D01*
X-88064Y148306D01*
X-87904Y148573D01*
X-87615Y149147D01*
X-87370Y149776D01*
X-87264Y150109D01*
X-87173Y150454D01*
X-87096Y150812D01*
X-87033Y151180D01*
X-86984Y151561D01*
X-86949Y151954D01*
X-86928Y152358D01*
X-86921Y152774D01*
X-86928Y153190D01*
X-86949Y153594D01*
X-86984Y153986D01*
X-87033Y154367D01*
X-87096Y154736D01*
X-87173Y155093D01*
X-87264Y155438D01*
X-87370Y155772D01*
X-87615Y156401D01*
X-87904Y156979D01*
X-88235Y157506D01*
X-88608Y157980D01*
X-89020Y158402D01*
X-89466Y158770D01*
X-89945Y159084D01*
X-90197Y159221D01*
X-90458Y159345D01*
X-90995Y159549D01*
X-91270Y159629D01*
X-91548Y159695D01*
X-91831Y159746D01*
X-92117Y159782D01*
X-92407Y159804D01*
X-92702Y159811D01*
X-92996Y159804D01*
X-93286Y159782D01*
X-93573Y159746D01*
X-93855Y159695D01*
X-94134Y159629D01*
X-94408Y159549D01*
X-94946Y159345D01*
X-95206Y159221D01*
X-95459Y159084D01*
X-95938Y158770D01*
X-96383Y158402D01*
X-96795Y157980D01*
X-97169Y157506D01*
X-97500Y156979D01*
X-97788Y156401D01*
X-98034Y155772D01*
X-98139Y155438D01*
X-98230Y155093D01*
X-98307Y154736D01*
X-98370Y154367D01*
X-98420Y153986D01*
X-98455Y153594D01*
X-98476Y153190D01*
X-98483Y152774D01*
X-98476Y152358D01*
X-98455Y151954D01*
X-98420Y151561D01*
X-98370Y151180D01*
X-98307Y150812D01*
X-98230Y150454D01*
X-98139Y150109D01*
X-98034Y149776D01*
X-97788Y149147D01*
X-97500Y148573D01*
X-97340Y148306D01*
X-97169Y148052D01*
X-96987Y147812D01*
X-96795Y147585D01*
X-96383Y147171D01*
X-95938Y146809D01*
X-95459Y146498D01*
X-94946Y146239D01*
X-94408Y146035D01*
X-94134Y145954D01*
X-93855Y145889D01*
X-93573Y145838D01*
X-93286Y145801D01*
X-92996Y145779D01*
X-92702Y145772D01*
G37*
%LPD*%
G36*
X-64083Y105015D02*
X-64622Y105027D01*
X-65146Y105061D01*
X-65655Y105119D01*
X-66147Y105199D01*
X-66624Y105303D01*
X-67085Y105429D01*
X-67531Y105579D01*
X-67960Y105751D01*
X-68374Y105944D01*
X-68771Y106155D01*
X-69150Y106384D01*
X-69513Y106631D01*
X-69860Y106896D01*
X-70189Y107178D01*
X-70501Y107479D01*
X-70797Y107798D01*
X-71075Y108132D01*
X-71336Y108481D01*
X-71578Y108844D01*
X-71802Y109221D01*
X-72009Y109611D01*
X-72197Y110016D01*
X-72368Y110435D01*
X-72521Y110868D01*
X-72655Y111312D01*
X-72772Y111765D01*
X-72871Y112228D01*
X-72951Y112699D01*
X-73014Y113179D01*
X-73059Y113668D01*
X-73086Y114167D01*
X-73095Y114674D01*
X-73086Y115181D01*
X-73059Y115680D01*
X-73014Y116171D01*
X-72951Y116653D01*
X-72871Y117127D01*
X-72772Y117592D01*
X-72655Y118049D01*
X-72521Y118498D01*
X-72368Y118935D01*
X-72197Y119357D01*
X-72009Y119765D01*
X-71802Y120158D01*
X-71578Y120537D01*
X-71336Y120901D01*
X-71075Y121251D01*
X-70797Y121586D01*
X-70501Y121905D01*
X-70189Y122206D01*
X-69860Y122490D01*
X-69513Y122757D01*
X-69150Y123007D01*
X-68771Y123239D01*
X-68374Y123453D01*
X-67960Y123650D01*
X-67531Y123827D01*
X-67085Y123980D01*
X-66624Y124110D01*
X-66147Y124216D01*
X-65655Y124298D01*
X-65146Y124357D01*
X-64622Y124393D01*
X-64083Y124404D01*
X-63535Y124393D01*
X-63004Y124357D01*
X-62491Y124298D01*
X-61996Y124216D01*
X-61517Y124110D01*
X-61056Y123980D01*
X-60613Y123827D01*
X-60187Y123650D01*
X-59777Y123453D01*
X-59384Y123239D01*
X-59008Y123007D01*
X-58647Y122757D01*
X-58303Y122490D01*
X-57975Y122206D01*
X-57664Y121905D01*
X-57368Y121586D01*
X-57090Y121251D01*
X-56830Y120901D01*
X-56587Y120537D01*
X-56363Y120158D01*
X-56156Y119765D01*
X-55968Y119357D01*
X-55797Y118935D01*
X-55645Y118498D01*
X-55510Y118049D01*
X-55393Y117592D01*
X-55295Y117127D01*
X-55214Y116653D01*
X-55151Y116171D01*
X-55106Y115680D01*
X-55079Y115181D01*
X-55070Y114674D01*
X-55079Y114167D01*
X-55106Y113668D01*
X-55151Y113179D01*
X-55214Y112699D01*
X-55295Y112228D01*
X-55393Y111765D01*
X-55510Y111312D01*
X-55645Y110868D01*
X-55797Y110435D01*
X-55968Y110016D01*
X-56156Y109611D01*
X-56363Y109221D01*
X-56587Y108844D01*
X-56830Y108481D01*
X-57090Y108132D01*
X-57368Y107798D01*
X-57664Y107479D01*
X-57975Y107178D01*
X-58303Y106896D01*
X-58647Y106631D01*
X-59008Y106384D01*
X-59384Y106155D01*
X-59777Y105944D01*
X-60187Y105751D01*
X-60613Y105579D01*
X-61056Y105429D01*
X-61517Y105303D01*
X-61996Y105199D01*
X-62491Y105119D01*
X-63004Y105061D01*
X-63535Y105027D01*
X-64083Y105015D01*
G37*
%LPC*%
G36*
X-64083Y107672D02*
X-63788Y107679D01*
X-63498Y107701D01*
X-63212Y107738D01*
X-62929Y107789D01*
X-62651Y107854D01*
X-62376Y107935D01*
X-61838Y108139D01*
X-61326Y108398D01*
X-60847Y108709D01*
X-60401Y109071D01*
X-59989Y109485D01*
X-59797Y109712D01*
X-59616Y109952D01*
X-59445Y110206D01*
X-59285Y110473D01*
X-58996Y111047D01*
X-58751Y111676D01*
X-58645Y112009D01*
X-58554Y112354D01*
X-58477Y112712D01*
X-58414Y113080D01*
X-58365Y113461D01*
X-58330Y113854D01*
X-58309Y114258D01*
X-58302Y114674D01*
X-58309Y115090D01*
X-58330Y115494D01*
X-58365Y115886D01*
X-58414Y116267D01*
X-58477Y116636D01*
X-58554Y116993D01*
X-58645Y117338D01*
X-58751Y117672D01*
X-58996Y118301D01*
X-59285Y118879D01*
X-59616Y119406D01*
X-59989Y119880D01*
X-60401Y120302D01*
X-60847Y120670D01*
X-61326Y120984D01*
X-61578Y121121D01*
X-61838Y121245D01*
X-62376Y121449D01*
X-62651Y121529D01*
X-62929Y121595D01*
X-63212Y121646D01*
X-63498Y121682D01*
X-63788Y121704D01*
X-64083Y121711D01*
X-64377Y121704D01*
X-64667Y121682D01*
X-64954Y121646D01*
X-65236Y121595D01*
X-65515Y121529D01*
X-65789Y121449D01*
X-66327Y121245D01*
X-66587Y121121D01*
X-66840Y120984D01*
X-67319Y120670D01*
X-67764Y120302D01*
X-68176Y119880D01*
X-68550Y119406D01*
X-68881Y118879D01*
X-69169Y118301D01*
X-69415Y117672D01*
X-69520Y117338D01*
X-69611Y116993D01*
X-69688Y116636D01*
X-69751Y116267D01*
X-69800Y115886D01*
X-69835Y115494D01*
X-69856Y115090D01*
X-69863Y114674D01*
X-69856Y114258D01*
X-69835Y113854D01*
X-69800Y113461D01*
X-69751Y113080D01*
X-69688Y112712D01*
X-69611Y112354D01*
X-69520Y112009D01*
X-69415Y111676D01*
X-69169Y111047D01*
X-68881Y110473D01*
X-68720Y110206D01*
X-68550Y109952D01*
X-68368Y109712D01*
X-68176Y109485D01*
X-67764Y109071D01*
X-67319Y108709D01*
X-66840Y108398D01*
X-66327Y108139D01*
X-65789Y107935D01*
X-65515Y107854D01*
X-65236Y107789D01*
X-64954Y107738D01*
X-64667Y107701D01*
X-64377Y107679D01*
X-64083Y107672D01*
G37*
%LPD*%
G36*
X-99198Y104836D02*
X-99907Y104852D01*
X-100596Y104902D01*
X-101267Y104984D01*
X-101918Y105100D01*
X-102550Y105249D01*
X-103163Y105431D01*
X-103758Y105646D01*
X-104333Y105895D01*
X-104888Y106171D01*
X-105421Y106470D01*
X-105933Y106793D01*
X-106424Y107138D01*
X-106894Y107506D01*
X-107342Y107898D01*
X-107769Y108312D01*
X-108175Y108749D01*
X-108558Y109207D01*
X-108917Y109681D01*
X-109254Y110172D01*
X-109566Y110679D01*
X-109855Y111204D01*
X-110120Y111745D01*
X-110362Y112303D01*
X-110580Y112879D01*
X-110774Y113465D01*
X-110942Y114057D01*
X-111084Y114654D01*
X-111200Y115257D01*
X-111290Y115866D01*
X-111355Y116480D01*
X-111393Y117100D01*
X-111406Y117726D01*
X-111394Y118422D01*
X-111358Y119109D01*
X-111298Y119788D01*
X-111213Y120459D01*
X-111105Y121122D01*
X-110972Y121775D01*
X-110815Y122421D01*
X-110634Y123058D01*
X-110429Y123681D01*
X-110201Y124284D01*
X-109949Y124868D01*
X-109674Y125432D01*
X-109375Y125977D01*
X-109052Y126502D01*
X-108706Y127007D01*
X-108336Y127492D01*
X-107943Y127956D01*
X-107526Y128396D01*
X-107086Y128811D01*
X-106622Y129202D01*
X-106134Y129570D01*
X-105623Y129913D01*
X-105088Y130232D01*
X-104530Y130526D01*
X-103948Y130792D01*
X-103342Y131021D01*
X-102712Y131216D01*
X-102057Y131375D01*
X-101379Y131498D01*
X-100676Y131587D01*
X-99949Y131640D01*
X-99198Y131657D01*
X-98681Y131650D01*
X-98171Y131627D01*
X-97669Y131589D01*
X-97174Y131536D01*
X-96686Y131468D01*
X-96206Y131385D01*
X-95732Y131286D01*
X-95266Y131173D01*
X-94810Y131043D01*
X-94366Y130896D01*
X-93935Y130731D01*
X-93516Y130549D01*
X-93109Y130349D01*
X-92715Y130133D01*
X-92333Y129898D01*
X-91963Y129647D01*
X-91607Y129378D01*
X-91265Y129091D01*
X-90938Y128787D01*
X-90625Y128466D01*
X-90328Y128128D01*
X-90044Y127772D01*
X-89776Y127398D01*
X-89521Y127008D01*
X-89284Y126598D01*
X-89067Y126167D01*
X-88869Y125716D01*
X-88691Y125244D01*
X-88533Y124751D01*
X-88394Y124237D01*
X-88274Y123703D01*
X-88175Y123148D01*
X-91586Y123148D01*
X-91656Y123509D01*
X-91739Y123858D01*
X-91835Y124194D01*
X-91945Y124517D01*
X-92068Y124827D01*
X-92205Y125124D01*
X-92356Y125408D01*
X-92520Y125679D01*
X-92881Y126185D01*
X-93283Y126644D01*
X-93725Y127056D01*
X-94207Y127421D01*
X-94727Y127740D01*
X-95280Y128017D01*
X-95867Y128252D01*
X-96487Y128444D01*
X-97135Y128593D01*
X-97802Y128700D01*
X-98490Y128764D01*
X-99198Y128785D01*
X-99771Y128770D01*
X-100324Y128727D01*
X-100855Y128654D01*
X-101366Y128552D01*
X-101856Y128420D01*
X-102325Y128260D01*
X-102774Y128070D01*
X-103202Y127851D01*
X-103610Y127609D01*
X-103998Y127348D01*
X-104368Y127068D01*
X-104719Y126770D01*
X-105050Y126453D01*
X-105363Y126118D01*
X-105656Y125764D01*
X-105931Y125392D01*
X-106187Y125004D01*
X-106425Y124602D01*
X-106647Y124187D01*
X-106851Y123758D01*
X-107037Y123316D01*
X-107206Y122860D01*
X-107358Y122391D01*
X-107492Y121909D01*
X-107610Y121418D01*
X-107712Y120925D01*
X-107799Y120429D01*
X-107869Y119930D01*
X-107924Y119428D01*
X-107964Y118923D01*
X-107987Y118416D01*
X-107995Y117905D01*
X-107986Y117405D01*
X-107959Y116910D01*
X-107914Y116420D01*
X-107851Y115935D01*
X-107771Y115455D01*
X-107672Y114980D01*
X-107555Y114510D01*
X-107421Y114045D01*
X-107269Y113590D01*
X-107100Y113148D01*
X-106914Y112719D01*
X-106711Y112304D01*
X-106492Y111902D01*
X-106256Y111514D01*
X-106003Y111139D01*
X-105733Y110778D01*
X-105447Y110432D01*
X-105144Y110105D01*
X-104825Y109795D01*
X-104490Y109503D01*
X-104138Y109230D01*
X-103771Y108974D01*
X-103387Y108736D01*
X-102986Y108516D01*
X-102570Y108318D01*
X-102137Y108147D01*
X-101688Y108002D01*
X-101222Y107883D01*
X-100741Y107791D01*
X-100243Y107725D01*
X-99729Y107685D01*
X-99198Y107672D01*
X-98703Y107682D01*
X-98222Y107712D01*
X-97756Y107763D01*
X-97304Y107834D01*
X-96867Y107925D01*
X-96445Y108036D01*
X-96037Y108167D01*
X-95643Y108318D01*
X-95265Y108488D01*
X-94902Y108672D01*
X-94554Y108871D01*
X-94221Y109086D01*
X-93903Y109316D01*
X-93600Y109561D01*
X-93313Y109821D01*
X-93040Y110096D01*
X-92783Y110385D01*
X-92543Y110686D01*
X-92319Y111000D01*
X-92111Y111326D01*
X-91920Y111664D01*
X-91744Y112015D01*
X-91585Y112377D01*
X-91442Y112753D01*
X-91317Y113138D01*
X-91211Y113530D01*
X-91124Y113930D01*
X-91056Y114337D01*
X-91008Y114752D01*
X-90978Y115173D01*
X-90967Y115602D01*
X-90976Y116038D01*
X-99162Y116038D01*
X-99162Y118911D01*
X-87924Y118911D01*
X-87924Y105410D01*
X-90078Y105410D01*
X-90976Y108606D01*
X-91364Y108121D01*
X-91774Y107671D01*
X-92208Y107257D01*
X-92663Y106878D01*
X-93141Y106534D01*
X-93642Y106226D01*
X-94164Y105953D01*
X-94710Y105715D01*
X-95267Y105509D01*
X-95825Y105330D01*
X-96385Y105179D01*
X-96945Y105055D01*
X-97507Y104959D01*
X-98069Y104891D01*
X-98633Y104849D01*
X-99198Y104836D01*
G37*
G36*
X-77063Y143510D02*
X-80115Y143510D01*
X-80115Y162074D01*
X-77243Y162074D01*
X-77243Y159345D01*
X-77171Y159345D01*
X-76903Y159727D01*
X-76621Y160085D01*
X-76325Y160418D01*
X-76015Y160727D01*
X-75690Y161011D01*
X-75351Y161270D01*
X-74998Y161505D01*
X-74630Y161714D01*
X-74248Y161900D01*
X-73852Y162060D01*
X-73442Y162196D01*
X-73017Y162307D01*
X-72578Y162393D01*
X-72124Y162455D01*
X-71656Y162492D01*
X-71174Y162504D01*
X-70749Y162493D01*
X-70333Y162460D01*
X-69927Y162403D01*
X-69532Y162325D01*
X-69146Y162224D01*
X-68771Y162100D01*
X-68406Y161955D01*
X-68051Y161786D01*
X-67713Y161591D01*
X-67402Y161364D01*
X-67116Y161106D01*
X-66857Y160817D01*
X-66623Y160496D01*
X-66415Y160144D01*
X-66232Y159760D01*
X-66076Y159345D01*
X-65833Y159711D01*
X-65572Y160056D01*
X-65292Y160380D01*
X-64994Y160682D01*
X-64677Y160963D01*
X-64342Y161223D01*
X-63988Y161461D01*
X-63616Y161679D01*
X-63230Y161872D01*
X-62834Y162040D01*
X-62429Y162182D01*
X-62014Y162298D01*
X-61589Y162388D01*
X-61155Y162453D01*
X-60712Y162492D01*
X-60259Y162504D01*
X-59576Y162485D01*
X-58926Y162428D01*
X-58310Y162333D01*
X-57728Y162199D01*
X-57182Y162025D01*
X-56677Y161809D01*
X-56213Y161550D01*
X-55789Y161248D01*
X-55407Y160901D01*
X-55070Y160507D01*
X-54779Y160066D01*
X-54532Y159578D01*
X-54427Y159316D01*
X-54335Y159041D01*
X-54258Y158752D01*
X-54195Y158451D01*
X-54146Y158138D01*
X-54111Y157811D01*
X-54090Y157471D01*
X-54083Y157118D01*
X-54083Y143510D01*
X-57135Y143510D01*
X-57135Y155682D01*
X-57144Y156106D01*
X-57171Y156517D01*
X-57216Y156914D01*
X-57279Y157298D01*
X-57366Y157663D01*
X-57485Y158003D01*
X-57636Y158318D01*
X-57817Y158609D01*
X-58034Y158872D01*
X-58289Y159107D01*
X-58581Y159312D01*
X-58912Y159488D01*
X-59288Y159630D01*
X-59716Y159731D01*
X-60195Y159791D01*
X-60726Y159811D01*
X-61276Y159791D01*
X-61796Y159731D01*
X-62286Y159630D01*
X-62745Y159488D01*
X-63175Y159307D01*
X-63574Y159084D01*
X-63942Y158822D01*
X-64280Y158519D01*
X-64583Y158182D01*
X-64846Y157819D01*
X-65068Y157428D01*
X-65250Y157011D01*
X-65391Y156566D01*
X-65492Y156095D01*
X-65553Y155597D01*
X-65573Y155072D01*
X-65573Y143510D01*
X-68625Y143510D01*
X-68625Y155682D01*
X-68635Y156122D01*
X-68665Y156544D01*
X-68716Y156948D01*
X-68787Y157334D01*
X-68882Y157699D01*
X-69007Y158039D01*
X-69160Y158354D01*
X-69343Y158644D01*
X-69558Y158907D01*
X-69805Y159138D01*
X-70087Y159338D01*
X-70402Y159506D01*
X-70758Y159640D01*
X-71161Y159735D01*
X-71611Y159792D01*
X-72108Y159811D01*
X-72434Y159803D01*
X-72749Y159778D01*
X-73051Y159736D01*
X-73342Y159677D01*
X-73621Y159601D01*
X-73889Y159508D01*
X-74144Y159399D01*
X-74388Y159273D01*
X-74841Y158990D01*
X-75250Y158680D01*
X-75613Y158344D01*
X-75932Y157980D01*
X-76208Y157600D01*
X-76444Y157213D01*
X-76639Y156819D01*
X-76794Y156418D01*
X-76912Y156031D01*
X-76996Y155678D01*
X-77046Y155358D01*
X-77063Y155072D01*
X-77063Y143510D01*
G37*
G36*
X-21499Y143115D02*
X-22262Y143135D01*
X-23007Y143196D01*
X-23734Y143297D01*
X-24443Y143438D01*
X-24788Y143525D01*
X-25123Y143626D01*
X-25448Y143739D01*
X-25763Y143865D01*
X-26068Y144003D01*
X-26362Y144155D01*
X-26646Y144320D01*
X-26921Y144497D01*
X-27183Y144689D01*
X-27433Y144895D01*
X-27668Y145115D01*
X-27890Y145350D01*
X-28099Y145600D01*
X-28294Y145864D01*
X-28476Y146143D01*
X-28644Y146436D01*
X-28797Y146745D01*
X-28932Y147070D01*
X-29048Y147412D01*
X-29147Y147769D01*
X-29228Y148143D01*
X-29291Y148534D01*
X-29336Y148940D01*
X-29362Y149363D01*
X-26310Y149363D01*
X-26295Y149116D01*
X-26268Y148879D01*
X-26228Y148652D01*
X-26176Y148434D01*
X-26034Y148026D01*
X-25844Y147657D01*
X-25611Y147325D01*
X-25345Y147029D01*
X-25046Y146768D01*
X-24713Y146544D01*
X-24351Y146352D01*
X-23968Y146190D01*
X-23561Y146056D01*
X-23133Y145952D01*
X-22690Y145873D01*
X-22240Y145817D01*
X-21783Y145783D01*
X-21319Y145772D01*
X-20956Y145779D01*
X-20583Y145799D01*
X-19811Y145880D01*
X-19424Y145945D01*
X-19053Y146032D01*
X-18697Y146142D01*
X-18357Y146275D01*
X-18040Y146435D01*
X-17751Y146629D01*
X-17492Y146857D01*
X-17262Y147119D01*
X-17161Y147262D01*
X-17074Y147416D01*
X-16999Y147579D01*
X-16939Y147751D01*
X-16892Y147933D01*
X-16858Y148125D01*
X-16838Y148326D01*
X-16831Y148537D01*
X-16845Y148824D01*
X-16887Y149093D01*
X-16957Y149345D01*
X-17056Y149578D01*
X-17182Y149794D01*
X-17336Y149991D01*
X-17518Y150171D01*
X-17729Y150332D01*
X-18206Y150623D01*
X-18739Y150884D01*
X-19328Y151117D01*
X-19973Y151320D01*
X-20661Y151504D01*
X-21378Y151679D01*
X-22124Y151845D01*
X-22899Y152002D01*
X-23675Y152170D01*
X-24421Y152370D01*
X-25138Y152601D01*
X-25826Y152864D01*
X-26155Y153010D01*
X-26471Y153170D01*
X-26772Y153344D01*
X-27060Y153532D01*
X-27333Y153735D01*
X-27593Y153951D01*
X-27838Y154181D01*
X-28070Y154426D01*
X-28280Y154689D01*
X-28463Y154978D01*
X-28617Y155291D01*
X-28743Y155628D01*
X-28841Y155991D01*
X-28911Y156378D01*
X-28953Y156790D01*
X-28967Y157226D01*
X-28958Y157570D01*
X-28928Y157902D01*
X-28879Y158221D01*
X-28810Y158528D01*
X-28722Y158822D01*
X-28614Y159105D01*
X-28486Y159374D01*
X-28339Y159632D01*
X-28003Y160111D01*
X-27621Y160543D01*
X-27195Y160928D01*
X-26723Y161266D01*
X-26214Y161560D01*
X-25673Y161813D01*
X-25101Y162026D01*
X-24497Y162199D01*
X-23879Y162333D01*
X-23263Y162428D01*
X-22649Y162485D01*
X-22038Y162504D01*
X-21263Y162488D01*
X-20521Y162437D01*
X-19809Y162353D01*
X-19129Y162235D01*
X-18802Y162162D01*
X-18484Y162076D01*
X-17877Y161867D01*
X-17308Y161609D01*
X-16777Y161302D01*
X-16528Y161128D01*
X-16291Y160940D01*
X-16068Y160738D01*
X-15857Y160521D01*
X-15659Y160289D01*
X-15475Y160043D01*
X-15303Y159782D01*
X-15144Y159506D01*
X-14999Y159215D01*
X-14870Y158906D01*
X-14756Y158580D01*
X-14659Y158236D01*
X-14577Y157875D01*
X-14511Y157497D01*
X-14460Y157101D01*
X-14425Y156688D01*
X-17477Y156688D01*
X-17534Y157117D01*
X-17630Y157509D01*
X-17767Y157862D01*
X-17944Y158178D01*
X-18155Y158459D01*
X-18393Y158712D01*
X-18658Y158935D01*
X-18950Y159129D01*
X-19263Y159296D01*
X-19591Y159439D01*
X-19936Y159557D01*
X-20296Y159650D01*
X-20665Y159721D01*
X-21037Y159771D01*
X-21410Y159801D01*
X-21786Y159811D01*
X-22128Y159805D01*
X-22473Y159785D01*
X-22820Y159751D01*
X-23169Y159704D01*
X-23511Y159640D01*
X-23837Y159556D01*
X-24148Y159451D01*
X-24443Y159327D01*
X-24717Y159181D01*
X-24964Y159013D01*
X-25184Y158822D01*
X-25377Y158609D01*
X-25534Y158367D01*
X-25646Y158092D01*
X-25713Y157784D01*
X-25736Y157442D01*
X-25727Y157248D01*
X-25701Y157063D01*
X-25658Y156887D01*
X-25597Y156719D01*
X-25519Y156559D01*
X-25423Y156408D01*
X-25310Y156265D01*
X-25179Y156131D01*
X-24882Y155882D01*
X-24547Y155655D01*
X-24173Y155451D01*
X-23761Y155269D01*
X-23317Y155105D01*
X-22845Y154955D01*
X-22347Y154818D01*
X-21822Y154695D01*
X-19668Y154210D01*
X-19097Y154078D01*
X-18532Y153932D01*
X-17975Y153772D01*
X-17424Y153600D01*
X-16892Y153406D01*
X-16391Y153182D01*
X-15922Y152930D01*
X-15485Y152648D01*
X-15083Y152333D01*
X-14722Y151979D01*
X-14401Y151588D01*
X-14120Y151158D01*
X-13998Y150927D01*
X-13892Y150682D01*
X-13803Y150424D01*
X-13730Y150153D01*
X-13673Y149868D01*
X-13632Y149569D01*
X-13608Y149257D01*
X-13600Y148932D01*
X-13611Y148519D01*
X-13643Y148124D01*
X-13698Y147747D01*
X-13775Y147388D01*
X-13873Y147047D01*
X-13993Y146724D01*
X-14136Y146418D01*
X-14300Y146131D01*
X-14482Y145860D01*
X-14677Y145602D01*
X-14886Y145357D01*
X-15108Y145126D01*
X-15343Y144908D01*
X-15592Y144704D01*
X-15855Y144513D01*
X-16131Y144336D01*
X-16714Y144021D01*
X-17020Y143882D01*
X-17334Y143757D01*
X-17657Y143644D01*
X-17989Y143545D01*
X-18330Y143458D01*
X-18680Y143384D01*
X-19388Y143267D01*
X-20094Y143182D01*
X-20798Y143132D01*
X-21499Y143115D01*
G37*
G36*
X-45105Y105015D02*
X-45553Y105023D01*
X-45982Y105045D01*
X-46392Y105083D01*
X-46783Y105136D01*
X-47155Y105204D01*
X-47508Y105288D01*
X-47842Y105386D01*
X-48157Y105500D01*
X-48455Y105627D01*
X-48738Y105768D01*
X-49007Y105921D01*
X-49261Y106088D01*
X-49500Y106267D01*
X-49725Y106459D01*
X-49936Y106664D01*
X-50131Y106882D01*
X-50313Y107112D01*
X-50480Y107352D01*
X-50634Y107603D01*
X-50773Y107865D01*
X-50899Y108137D01*
X-51010Y108421D01*
X-51107Y108714D01*
X-51191Y109019D01*
X-51324Y109655D01*
X-51420Y110325D01*
X-51477Y111028D01*
X-51496Y111765D01*
X-51496Y123974D01*
X-48444Y123974D01*
X-48444Y111406D01*
X-48428Y110987D01*
X-48381Y110589D01*
X-48303Y110215D01*
X-48193Y109862D01*
X-48051Y109532D01*
X-47878Y109225D01*
X-47674Y108940D01*
X-47439Y108677D01*
X-47175Y108442D01*
X-46889Y108238D01*
X-46578Y108065D01*
X-46245Y107923D01*
X-45887Y107813D01*
X-45506Y107735D01*
X-45102Y107688D01*
X-44674Y107672D01*
X-44330Y107679D01*
X-43997Y107699D01*
X-43677Y107733D01*
X-43368Y107780D01*
X-43071Y107840D01*
X-42785Y107914D01*
X-42512Y108002D01*
X-42250Y108103D01*
X-41760Y108341D01*
X-41312Y108624D01*
X-40907Y108951D01*
X-40545Y109324D01*
X-40225Y109736D01*
X-39948Y110181D01*
X-39713Y110660D01*
X-39521Y111173D01*
X-39372Y111715D01*
X-39265Y112282D01*
X-39201Y112873D01*
X-39180Y113489D01*
X-39180Y123974D01*
X-36128Y123974D01*
X-36128Y105410D01*
X-39001Y105410D01*
X-39001Y108354D01*
X-39072Y108354D01*
X-39323Y107938D01*
X-39591Y107550D01*
X-39875Y107190D01*
X-40176Y106860D01*
X-40495Y106558D01*
X-40830Y106284D01*
X-41181Y106039D01*
X-41550Y105823D01*
X-41935Y105634D01*
X-42338Y105469D01*
X-42757Y105331D01*
X-43193Y105217D01*
X-43645Y105129D01*
X-44115Y105066D01*
X-44601Y105028D01*
X-45105Y105015D01*
G37*
G36*
X-80458Y105410D02*
X-83510Y105410D01*
X-83510Y123974D01*
X-80637Y123974D01*
X-80637Y120060D01*
X-80566Y120060D01*
X-80279Y120607D01*
X-79978Y121117D01*
X-79660Y121590D01*
X-79327Y122026D01*
X-78978Y122425D01*
X-78613Y122786D01*
X-78233Y123111D01*
X-77837Y123399D01*
X-77419Y123650D01*
X-76975Y123866D01*
X-76504Y124045D01*
X-76005Y124189D01*
X-75480Y124297D01*
X-74928Y124368D01*
X-74349Y124404D01*
X-73743Y124404D01*
X-73743Y121173D01*
X-74193Y121165D01*
X-74625Y121141D01*
X-75041Y121102D01*
X-75440Y121047D01*
X-75822Y120976D01*
X-76187Y120890D01*
X-76536Y120788D01*
X-76867Y120670D01*
X-77183Y120537D01*
X-77482Y120390D01*
X-77766Y120227D01*
X-78034Y120051D01*
X-78287Y119859D01*
X-78523Y119654D01*
X-78744Y119433D01*
X-78950Y119198D01*
X-79141Y118949D01*
X-79318Y118687D01*
X-79482Y118413D01*
X-79632Y118125D01*
X-79769Y117825D01*
X-79892Y117512D01*
X-80002Y117185D01*
X-80099Y116846D01*
X-80256Y116129D01*
X-80368Y115361D01*
X-80435Y114540D01*
X-80458Y113668D01*
X-80458Y105410D01*
G37*
G36*
X-5578Y105410D02*
X-9564Y105410D01*
X-9564Y109396D01*
X-5578Y109396D01*
X-5578Y105410D01*
G37*
G36*
X-43035Y204445D02*
X-48211Y204445D01*
X-48638Y204455D01*
X-48981Y204491D01*
X-49248Y204559D01*
X-49356Y204607D01*
X-49449Y204665D01*
X-49526Y204734D01*
X-49590Y204815D01*
X-49641Y204910D01*
X-49681Y205017D01*
X-49729Y205277D01*
X-49744Y205601D01*
X-49744Y205676D01*
X-49719Y219796D01*
X-49719Y219947D01*
X-49707Y220331D01*
X-49666Y220640D01*
X-49588Y220881D01*
X-49532Y220979D01*
X-49464Y221062D01*
X-49383Y221132D01*
X-49288Y221190D01*
X-49178Y221236D01*
X-49051Y221272D01*
X-48745Y221316D01*
X-48362Y221329D01*
X-42458Y221329D01*
X-42098Y221317D01*
X-41744Y221280D01*
X-41399Y221221D01*
X-41062Y221139D01*
X-40736Y221036D01*
X-40422Y220912D01*
X-40120Y220767D01*
X-39832Y220603D01*
X-39560Y220421D01*
X-39304Y220221D01*
X-39066Y220004D01*
X-38847Y219771D01*
X-38648Y219522D01*
X-38471Y219259D01*
X-38317Y218981D01*
X-38186Y218691D01*
X-38071Y218380D01*
X-37970Y218051D01*
X-37884Y217705D01*
X-37813Y217343D01*
X-37757Y216966D01*
X-37716Y216574D01*
X-37692Y216169D01*
X-37684Y215751D01*
X-37684Y215651D01*
X-37709Y209922D01*
X-37709Y209847D01*
X-37730Y209190D01*
X-37791Y208576D01*
X-37895Y208005D01*
X-38039Y207476D01*
X-38226Y206991D01*
X-38454Y206548D01*
X-38723Y206147D01*
X-39034Y205789D01*
X-39387Y205473D01*
X-39782Y205200D01*
X-40219Y204969D01*
X-40698Y204780D01*
X-41219Y204633D01*
X-41782Y204529D01*
X-42388Y204466D01*
X-43035Y204445D01*
G37*
%LPC*%
G36*
X-42759Y206304D02*
X-42367Y206317D01*
X-42003Y206354D01*
X-41665Y206417D01*
X-41353Y206505D01*
X-41067Y206619D01*
X-40808Y206759D01*
X-40574Y206925D01*
X-40366Y207118D01*
X-40183Y207337D01*
X-40025Y207584D01*
X-39892Y207858D01*
X-39784Y208159D01*
X-39700Y208488D01*
X-39641Y208846D01*
X-39605Y209231D01*
X-39593Y209646D01*
X-39593Y209797D01*
X-39568Y216002D01*
X-39568Y216053D01*
X-39581Y216476D01*
X-39618Y216870D01*
X-39680Y217236D01*
X-39768Y217572D01*
X-39882Y217881D01*
X-40021Y218161D01*
X-40187Y218413D01*
X-40378Y218637D01*
X-40597Y218835D01*
X-40842Y219005D01*
X-41113Y219148D01*
X-41413Y219264D01*
X-41739Y219355D01*
X-42093Y219419D01*
X-42475Y219457D01*
X-42885Y219470D01*
X-47483Y219470D01*
X-47629Y219455D01*
X-47728Y219410D01*
X-47779Y219332D01*
X-47784Y219218D01*
X-47784Y206581D01*
X-47770Y206442D01*
X-47724Y206358D01*
X-47646Y206316D01*
X-47533Y206304D01*
X-42759Y206304D01*
G37*
%LPD*%
G36*
X-307838Y77445D02*
X-313014Y77445D01*
X-313441Y77455D01*
X-313783Y77491D01*
X-314051Y77559D01*
X-314159Y77607D01*
X-314251Y77665D01*
X-314329Y77734D01*
X-314393Y77815D01*
X-314444Y77910D01*
X-314484Y78017D01*
X-314532Y78277D01*
X-314547Y78601D01*
X-314547Y78676D01*
X-314522Y92796D01*
X-314522Y92947D01*
X-314510Y93331D01*
X-314469Y93640D01*
X-314390Y93881D01*
X-314335Y93979D01*
X-314267Y94062D01*
X-314186Y94132D01*
X-314091Y94190D01*
X-313980Y94236D01*
X-313854Y94272D01*
X-313548Y94316D01*
X-313165Y94329D01*
X-307260Y94329D01*
X-306901Y94317D01*
X-306547Y94280D01*
X-306202Y94221D01*
X-305865Y94139D01*
X-305539Y94036D01*
X-305224Y93912D01*
X-304923Y93767D01*
X-304635Y93603D01*
X-304362Y93421D01*
X-304107Y93221D01*
X-303868Y93004D01*
X-303649Y92771D01*
X-303451Y92522D01*
X-303274Y92259D01*
X-303119Y91981D01*
X-302989Y91691D01*
X-302874Y91380D01*
X-302773Y91051D01*
X-302687Y90705D01*
X-302615Y90343D01*
X-302560Y89966D01*
X-302519Y89574D01*
X-302495Y89169D01*
X-302487Y88751D01*
X-302487Y88651D01*
X-302512Y82922D01*
X-302512Y82847D01*
X-302532Y82190D01*
X-302594Y81576D01*
X-302698Y81005D01*
X-302842Y80476D01*
X-303029Y79991D01*
X-303256Y79548D01*
X-303526Y79147D01*
X-303837Y78789D01*
X-304190Y78473D01*
X-304585Y78200D01*
X-305022Y77969D01*
X-305501Y77780D01*
X-306022Y77633D01*
X-306585Y77529D01*
X-307191Y77466D01*
X-307838Y77445D01*
G37*
%LPC*%
G36*
X-307562Y79304D02*
X-307170Y79317D01*
X-306806Y79354D01*
X-306467Y79417D01*
X-306156Y79505D01*
X-305870Y79619D01*
X-305611Y79759D01*
X-305377Y79925D01*
X-305169Y80118D01*
X-304986Y80337D01*
X-304828Y80584D01*
X-304695Y80858D01*
X-304587Y81159D01*
X-304503Y81488D01*
X-304444Y81846D01*
X-304408Y82231D01*
X-304396Y82646D01*
X-304396Y82797D01*
X-304371Y89002D01*
X-304371Y89053D01*
X-304383Y89476D01*
X-304421Y89870D01*
X-304483Y90236D01*
X-304571Y90572D01*
X-304685Y90881D01*
X-304824Y91161D01*
X-304990Y91413D01*
X-305181Y91637D01*
X-305400Y91835D01*
X-305644Y92005D01*
X-305916Y92148D01*
X-306215Y92264D01*
X-306542Y92355D01*
X-306896Y92419D01*
X-307278Y92457D01*
X-307688Y92470D01*
X-312285Y92470D01*
X-312431Y92455D01*
X-312530Y92410D01*
X-312582Y92332D01*
X-312587Y92218D01*
X-312587Y79581D01*
X-312572Y79442D01*
X-312527Y79358D01*
X-312449Y79316D01*
X-312336Y79304D01*
X-307562Y79304D01*
G37*
%LPD*%
G36*
X-127605Y204445D02*
X-132781Y204445D01*
X-133208Y204455D01*
X-133551Y204491D01*
X-133818Y204559D01*
X-133926Y204607D01*
X-134019Y204665D01*
X-134096Y204734D01*
X-134160Y204815D01*
X-134211Y204910D01*
X-134251Y205017D01*
X-134299Y205277D01*
X-134314Y205601D01*
X-134314Y205676D01*
X-134289Y219796D01*
X-134289Y219947D01*
X-134277Y220331D01*
X-134236Y220640D01*
X-134158Y220881D01*
X-134102Y220979D01*
X-134034Y221062D01*
X-133953Y221132D01*
X-133858Y221190D01*
X-133748Y221236D01*
X-133621Y221272D01*
X-133315Y221316D01*
X-132932Y221329D01*
X-127028Y221329D01*
X-126668Y221317D01*
X-126314Y221280D01*
X-125969Y221221D01*
X-125632Y221139D01*
X-125306Y221036D01*
X-124992Y220912D01*
X-124690Y220767D01*
X-124402Y220603D01*
X-124130Y220421D01*
X-123874Y220221D01*
X-123636Y220004D01*
X-123417Y219771D01*
X-123218Y219522D01*
X-123041Y219259D01*
X-122887Y218981D01*
X-122756Y218691D01*
X-122641Y218380D01*
X-122540Y218051D01*
X-122454Y217705D01*
X-122383Y217343D01*
X-122327Y216966D01*
X-122286Y216574D01*
X-122262Y216169D01*
X-122254Y215751D01*
X-122254Y215651D01*
X-122279Y209922D01*
X-122279Y209847D01*
X-122300Y209190D01*
X-122361Y208576D01*
X-122465Y208005D01*
X-122609Y207476D01*
X-122796Y206991D01*
X-123024Y206548D01*
X-123293Y206147D01*
X-123604Y205789D01*
X-123957Y205473D01*
X-124352Y205200D01*
X-124789Y204969D01*
X-125268Y204780D01*
X-125789Y204633D01*
X-126352Y204529D01*
X-126958Y204466D01*
X-127605Y204445D01*
G37*
%LPC*%
G36*
X-127329Y206304D02*
X-126937Y206317D01*
X-126573Y206354D01*
X-126235Y206417D01*
X-125923Y206505D01*
X-125637Y206619D01*
X-125378Y206759D01*
X-125144Y206925D01*
X-124936Y207118D01*
X-124753Y207337D01*
X-124595Y207584D01*
X-124462Y207858D01*
X-124354Y208159D01*
X-124270Y208488D01*
X-124211Y208846D01*
X-124175Y209231D01*
X-124163Y209646D01*
X-124163Y209797D01*
X-124138Y216002D01*
X-124138Y216053D01*
X-124151Y216476D01*
X-124188Y216870D01*
X-124250Y217236D01*
X-124338Y217572D01*
X-124452Y217881D01*
X-124591Y218161D01*
X-124757Y218413D01*
X-124948Y218637D01*
X-125167Y218835D01*
X-125412Y219005D01*
X-125683Y219148D01*
X-125983Y219264D01*
X-126309Y219355D01*
X-126663Y219419D01*
X-127045Y219457D01*
X-127455Y219470D01*
X-132053Y219470D01*
X-132199Y219455D01*
X-132298Y219410D01*
X-132349Y219332D01*
X-132354Y219218D01*
X-132354Y206581D01*
X-132340Y206442D01*
X-132294Y206358D01*
X-132216Y206316D01*
X-132103Y206304D01*
X-127329Y206304D01*
G37*
%LPD*%
G36*
X-223375Y204615D02*
X-228551Y204615D01*
X-228978Y204625D01*
X-229321Y204661D01*
X-229588Y204729D01*
X-229696Y204777D01*
X-229789Y204835D01*
X-229866Y204904D01*
X-229930Y204985D01*
X-229981Y205080D01*
X-230021Y205187D01*
X-230069Y205447D01*
X-230084Y205771D01*
X-230084Y205846D01*
X-230059Y219966D01*
X-230059Y220117D01*
X-230047Y220501D01*
X-230006Y220810D01*
X-229928Y221051D01*
X-229872Y221149D01*
X-229804Y221232D01*
X-229723Y221302D01*
X-229628Y221360D01*
X-229518Y221406D01*
X-229391Y221442D01*
X-229085Y221486D01*
X-228702Y221499D01*
X-222798Y221499D01*
X-222438Y221487D01*
X-222084Y221450D01*
X-221739Y221391D01*
X-221402Y221309D01*
X-221076Y221206D01*
X-220762Y221082D01*
X-220460Y220937D01*
X-220172Y220773D01*
X-219900Y220591D01*
X-219644Y220391D01*
X-219406Y220174D01*
X-219187Y219941D01*
X-218988Y219692D01*
X-218811Y219429D01*
X-218657Y219151D01*
X-218526Y218861D01*
X-218411Y218550D01*
X-218310Y218221D01*
X-218224Y217875D01*
X-218153Y217513D01*
X-218097Y217136D01*
X-218056Y216744D01*
X-218032Y216339D01*
X-218024Y215921D01*
X-218024Y215821D01*
X-218049Y210092D01*
X-218049Y210017D01*
X-218070Y209360D01*
X-218131Y208746D01*
X-218235Y208175D01*
X-218379Y207646D01*
X-218566Y207161D01*
X-218794Y206718D01*
X-219063Y206317D01*
X-219374Y205959D01*
X-219727Y205643D01*
X-220122Y205370D01*
X-220559Y205139D01*
X-221038Y204950D01*
X-221559Y204803D01*
X-222122Y204699D01*
X-222728Y204636D01*
X-223375Y204615D01*
G37*
%LPC*%
G36*
X-223099Y206474D02*
X-222707Y206487D01*
X-222343Y206524D01*
X-222005Y206587D01*
X-221693Y206675D01*
X-221407Y206789D01*
X-221148Y206929D01*
X-220914Y207095D01*
X-220706Y207288D01*
X-220523Y207507D01*
X-220365Y207754D01*
X-220232Y208028D01*
X-220124Y208329D01*
X-220040Y208658D01*
X-219981Y209016D01*
X-219945Y209401D01*
X-219933Y209816D01*
X-219933Y209967D01*
X-219908Y216172D01*
X-219908Y216223D01*
X-219921Y216646D01*
X-219958Y217040D01*
X-220020Y217406D01*
X-220108Y217742D01*
X-220222Y218051D01*
X-220361Y218331D01*
X-220527Y218583D01*
X-220718Y218807D01*
X-220937Y219005D01*
X-221182Y219175D01*
X-221453Y219318D01*
X-221753Y219434D01*
X-222079Y219525D01*
X-222433Y219589D01*
X-222815Y219627D01*
X-223225Y219640D01*
X-227823Y219640D01*
X-227969Y219625D01*
X-228068Y219580D01*
X-228119Y219502D01*
X-228124Y219388D01*
X-228124Y206751D01*
X-228110Y206612D01*
X-228064Y206528D01*
X-227986Y206486D01*
X-227873Y206474D01*
X-223099Y206474D01*
G37*
%LPD*%
G36*
X-307195Y204615D02*
X-312371Y204615D01*
X-312798Y204625D01*
X-313141Y204661D01*
X-313408Y204729D01*
X-313516Y204777D01*
X-313609Y204835D01*
X-313686Y204904D01*
X-313750Y204985D01*
X-313801Y205080D01*
X-313841Y205187D01*
X-313889Y205447D01*
X-313904Y205771D01*
X-313904Y205846D01*
X-313879Y219966D01*
X-313879Y220117D01*
X-313867Y220501D01*
X-313826Y220810D01*
X-313748Y221051D01*
X-313692Y221149D01*
X-313624Y221232D01*
X-313543Y221302D01*
X-313448Y221360D01*
X-313338Y221406D01*
X-313211Y221442D01*
X-312905Y221486D01*
X-312522Y221499D01*
X-306618Y221499D01*
X-306258Y221487D01*
X-305904Y221450D01*
X-305559Y221391D01*
X-305222Y221309D01*
X-304896Y221206D01*
X-304582Y221082D01*
X-304280Y220937D01*
X-303992Y220773D01*
X-303720Y220591D01*
X-303464Y220391D01*
X-303226Y220174D01*
X-303007Y219941D01*
X-302808Y219692D01*
X-302631Y219429D01*
X-302477Y219151D01*
X-302346Y218861D01*
X-302231Y218550D01*
X-302130Y218221D01*
X-302044Y217875D01*
X-301973Y217513D01*
X-301917Y217136D01*
X-301876Y216744D01*
X-301852Y216339D01*
X-301844Y215921D01*
X-301844Y215821D01*
X-301869Y210092D01*
X-301869Y210017D01*
X-301890Y209360D01*
X-301951Y208746D01*
X-302055Y208175D01*
X-302199Y207646D01*
X-302386Y207161D01*
X-302614Y206718D01*
X-302883Y206317D01*
X-303194Y205959D01*
X-303547Y205643D01*
X-303942Y205370D01*
X-304379Y205139D01*
X-304858Y204950D01*
X-305379Y204803D01*
X-305942Y204699D01*
X-306548Y204636D01*
X-307195Y204615D01*
G37*
%LPC*%
G36*
X-306919Y206474D02*
X-306527Y206487D01*
X-306163Y206524D01*
X-305825Y206587D01*
X-305513Y206675D01*
X-305227Y206789D01*
X-304968Y206929D01*
X-304734Y207095D01*
X-304526Y207288D01*
X-304343Y207507D01*
X-304185Y207754D01*
X-304052Y208028D01*
X-303944Y208329D01*
X-303860Y208658D01*
X-303801Y209016D01*
X-303765Y209401D01*
X-303753Y209816D01*
X-303753Y209967D01*
X-303728Y216172D01*
X-303728Y216223D01*
X-303741Y216646D01*
X-303778Y217040D01*
X-303840Y217406D01*
X-303928Y217742D01*
X-304042Y218051D01*
X-304181Y218331D01*
X-304347Y218583D01*
X-304538Y218807D01*
X-304757Y219005D01*
X-305002Y219175D01*
X-305273Y219318D01*
X-305573Y219434D01*
X-305899Y219525D01*
X-306253Y219589D01*
X-306635Y219627D01*
X-307045Y219640D01*
X-311643Y219640D01*
X-311789Y219625D01*
X-311888Y219580D01*
X-311939Y219502D01*
X-311944Y219388D01*
X-311944Y206751D01*
X-311930Y206612D01*
X-311884Y206528D01*
X-311806Y206486D01*
X-311693Y206474D01*
X-306919Y206474D01*
G37*
%LPD*%
G36*
X-350381Y187746D02*
X-350456Y187746D01*
X-364576Y187771D01*
X-364727Y187771D01*
X-365111Y187783D01*
X-365420Y187824D01*
X-365661Y187903D01*
X-365759Y187958D01*
X-365842Y188026D01*
X-365912Y188107D01*
X-365970Y188202D01*
X-366016Y188312D01*
X-366052Y188439D01*
X-366096Y188745D01*
X-366109Y189128D01*
X-366109Y195032D01*
X-366097Y195392D01*
X-366060Y195746D01*
X-366001Y196091D01*
X-365919Y196428D01*
X-365816Y196754D01*
X-365692Y197068D01*
X-365547Y197370D01*
X-365383Y197658D01*
X-365201Y197930D01*
X-365001Y198186D01*
X-364784Y198424D01*
X-364551Y198643D01*
X-364302Y198842D01*
X-364039Y199019D01*
X-363761Y199173D01*
X-363471Y199304D01*
X-363160Y199419D01*
X-362831Y199520D01*
X-362485Y199606D01*
X-362123Y199677D01*
X-361746Y199733D01*
X-361354Y199774D01*
X-360949Y199798D01*
X-360531Y199806D01*
X-360431Y199806D01*
X-354702Y199781D01*
X-354627Y199781D01*
X-353970Y199760D01*
X-353356Y199699D01*
X-352785Y199595D01*
X-352256Y199451D01*
X-351771Y199264D01*
X-351328Y199036D01*
X-350927Y198767D01*
X-350569Y198456D01*
X-350253Y198103D01*
X-349980Y197708D01*
X-349749Y197271D01*
X-349560Y196792D01*
X-349413Y196271D01*
X-349309Y195708D01*
X-349246Y195102D01*
X-349225Y194455D01*
X-349225Y189279D01*
X-349235Y188852D01*
X-349271Y188509D01*
X-349339Y188242D01*
X-349387Y188134D01*
X-349445Y188041D01*
X-349514Y187964D01*
X-349595Y187900D01*
X-349690Y187849D01*
X-349797Y187809D01*
X-350057Y187761D01*
X-350381Y187746D01*
G37*
%LPC*%
G36*
X-351361Y189706D02*
X-351222Y189720D01*
X-351138Y189766D01*
X-351096Y189844D01*
X-351084Y189957D01*
X-351084Y194731D01*
X-351097Y195123D01*
X-351134Y195487D01*
X-351197Y195825D01*
X-351285Y196137D01*
X-351399Y196423D01*
X-351539Y196682D01*
X-351705Y196916D01*
X-351898Y197124D01*
X-352117Y197307D01*
X-352364Y197465D01*
X-352638Y197598D01*
X-352939Y197706D01*
X-353268Y197790D01*
X-353626Y197849D01*
X-354011Y197885D01*
X-354426Y197897D01*
X-354577Y197897D01*
X-360782Y197922D01*
X-360833Y197922D01*
X-361256Y197909D01*
X-361650Y197872D01*
X-362016Y197810D01*
X-362352Y197722D01*
X-362661Y197608D01*
X-362941Y197469D01*
X-363193Y197303D01*
X-363417Y197112D01*
X-363615Y196893D01*
X-363785Y196648D01*
X-363928Y196377D01*
X-364044Y196078D01*
X-364135Y195751D01*
X-364199Y195397D01*
X-364237Y195015D01*
X-364250Y194605D01*
X-364250Y190007D01*
X-364235Y189861D01*
X-364190Y189763D01*
X-364112Y189711D01*
X-363998Y189706D01*
X-351361Y189706D01*
G37*
%LPD*%
G36*
X-350381Y102656D02*
X-350456Y102656D01*
X-364576Y102681D01*
X-364727Y102681D01*
X-365111Y102693D01*
X-365420Y102734D01*
X-365661Y102813D01*
X-365759Y102868D01*
X-365842Y102936D01*
X-365912Y103017D01*
X-365970Y103112D01*
X-366016Y103222D01*
X-366052Y103349D01*
X-366096Y103655D01*
X-366109Y104038D01*
X-366109Y109942D01*
X-366097Y110302D01*
X-366060Y110656D01*
X-366001Y111001D01*
X-365919Y111338D01*
X-365816Y111664D01*
X-365692Y111978D01*
X-365547Y112280D01*
X-365383Y112568D01*
X-365201Y112840D01*
X-365001Y113096D01*
X-364784Y113334D01*
X-364551Y113553D01*
X-364302Y113752D01*
X-364039Y113929D01*
X-363761Y114083D01*
X-363471Y114214D01*
X-363160Y114329D01*
X-362831Y114430D01*
X-362485Y114516D01*
X-362123Y114587D01*
X-361746Y114643D01*
X-361354Y114684D01*
X-360949Y114708D01*
X-360531Y114716D01*
X-360431Y114716D01*
X-354702Y114691D01*
X-354627Y114691D01*
X-353970Y114670D01*
X-353356Y114609D01*
X-352785Y114505D01*
X-352256Y114361D01*
X-351771Y114174D01*
X-351328Y113946D01*
X-350927Y113677D01*
X-350569Y113366D01*
X-350253Y113013D01*
X-349980Y112618D01*
X-349749Y112181D01*
X-349560Y111702D01*
X-349413Y111181D01*
X-349309Y110618D01*
X-349246Y110012D01*
X-349225Y109365D01*
X-349225Y104189D01*
X-349235Y103762D01*
X-349271Y103419D01*
X-349339Y103152D01*
X-349387Y103044D01*
X-349445Y102951D01*
X-349514Y102874D01*
X-349595Y102810D01*
X-349690Y102759D01*
X-349797Y102719D01*
X-350057Y102671D01*
X-350381Y102656D01*
G37*
%LPC*%
G36*
X-351361Y104616D02*
X-351222Y104630D01*
X-351138Y104676D01*
X-351096Y104754D01*
X-351084Y104867D01*
X-351084Y109641D01*
X-351097Y110033D01*
X-351134Y110397D01*
X-351197Y110735D01*
X-351285Y111047D01*
X-351399Y111333D01*
X-351539Y111592D01*
X-351705Y111826D01*
X-351898Y112034D01*
X-352117Y112217D01*
X-352364Y112375D01*
X-352638Y112508D01*
X-352939Y112616D01*
X-353268Y112700D01*
X-353626Y112759D01*
X-354011Y112795D01*
X-354426Y112807D01*
X-354577Y112807D01*
X-360782Y112832D01*
X-360833Y112832D01*
X-361256Y112819D01*
X-361650Y112782D01*
X-362016Y112720D01*
X-362352Y112632D01*
X-362661Y112518D01*
X-362941Y112379D01*
X-363193Y112213D01*
X-363417Y112022D01*
X-363615Y111803D01*
X-363785Y111558D01*
X-363928Y111287D01*
X-364044Y110988D01*
X-364135Y110661D01*
X-364199Y110307D01*
X-364237Y109925D01*
X-364250Y109515D01*
X-364250Y104917D01*
X-364235Y104771D01*
X-364190Y104673D01*
X-364112Y104621D01*
X-363998Y104616D01*
X-351361Y104616D01*
G37*
%LPD*%
G36*
X-43678Y77445D02*
X-48854Y77445D01*
X-49281Y77455D01*
X-49623Y77491D01*
X-49891Y77559D01*
X-49999Y77607D01*
X-50091Y77665D01*
X-50169Y77734D01*
X-50233Y77815D01*
X-50284Y77910D01*
X-50324Y78017D01*
X-50372Y78277D01*
X-50387Y78601D01*
X-50387Y78676D01*
X-50362Y92796D01*
X-50362Y92947D01*
X-50350Y93331D01*
X-50309Y93640D01*
X-50230Y93881D01*
X-50175Y93979D01*
X-50107Y94062D01*
X-50026Y94132D01*
X-49931Y94190D01*
X-49820Y94236D01*
X-49694Y94272D01*
X-49388Y94316D01*
X-49005Y94329D01*
X-43100Y94329D01*
X-42741Y94317D01*
X-42387Y94280D01*
X-42042Y94221D01*
X-41705Y94139D01*
X-41379Y94036D01*
X-41064Y93912D01*
X-40763Y93767D01*
X-40475Y93603D01*
X-40202Y93421D01*
X-39947Y93221D01*
X-39708Y93004D01*
X-39489Y92771D01*
X-39291Y92522D01*
X-39114Y92259D01*
X-38959Y91981D01*
X-38829Y91691D01*
X-38714Y91380D01*
X-38613Y91051D01*
X-38527Y90705D01*
X-38455Y90343D01*
X-38400Y89966D01*
X-38359Y89574D01*
X-38335Y89169D01*
X-38327Y88751D01*
X-38327Y88651D01*
X-38352Y82922D01*
X-38352Y82847D01*
X-38372Y82190D01*
X-38434Y81576D01*
X-38538Y81005D01*
X-38682Y80476D01*
X-38869Y79991D01*
X-39096Y79548D01*
X-39366Y79147D01*
X-39677Y78789D01*
X-40030Y78473D01*
X-40425Y78200D01*
X-40862Y77969D01*
X-41341Y77780D01*
X-41862Y77633D01*
X-42425Y77529D01*
X-43031Y77466D01*
X-43678Y77445D01*
G37*
%LPC*%
G36*
X-43402Y79304D02*
X-43010Y79317D01*
X-42646Y79354D01*
X-42307Y79417D01*
X-41996Y79505D01*
X-41710Y79619D01*
X-41451Y79759D01*
X-41217Y79925D01*
X-41009Y80118D01*
X-40826Y80337D01*
X-40668Y80584D01*
X-40535Y80858D01*
X-40427Y81159D01*
X-40343Y81488D01*
X-40284Y81846D01*
X-40248Y82231D01*
X-40236Y82646D01*
X-40236Y82797D01*
X-40211Y89002D01*
X-40211Y89053D01*
X-40223Y89476D01*
X-40261Y89870D01*
X-40323Y90236D01*
X-40411Y90572D01*
X-40525Y90881D01*
X-40664Y91161D01*
X-40830Y91413D01*
X-41021Y91637D01*
X-41240Y91835D01*
X-41484Y92005D01*
X-41756Y92148D01*
X-42055Y92264D01*
X-42382Y92355D01*
X-42736Y92419D01*
X-43118Y92457D01*
X-43528Y92470D01*
X-48125Y92470D01*
X-48271Y92455D01*
X-48370Y92410D01*
X-48422Y92332D01*
X-48427Y92218D01*
X-48427Y79581D01*
X-48412Y79442D01*
X-48367Y79358D01*
X-48289Y79316D01*
X-48176Y79304D01*
X-43402Y79304D01*
G37*
%LPD*%
G36*
X-128248Y77445D02*
X-133424Y77445D01*
X-133851Y77455D01*
X-134193Y77491D01*
X-134461Y77559D01*
X-134569Y77607D01*
X-134661Y77665D01*
X-134739Y77734D01*
X-134803Y77815D01*
X-134854Y77910D01*
X-134894Y78017D01*
X-134942Y78277D01*
X-134957Y78601D01*
X-134957Y78676D01*
X-134932Y92796D01*
X-134932Y92947D01*
X-134920Y93331D01*
X-134879Y93640D01*
X-134800Y93881D01*
X-134745Y93979D01*
X-134677Y94062D01*
X-134596Y94132D01*
X-134501Y94190D01*
X-134390Y94236D01*
X-134264Y94272D01*
X-133958Y94316D01*
X-133575Y94329D01*
X-127670Y94329D01*
X-127311Y94317D01*
X-126957Y94280D01*
X-126612Y94221D01*
X-126275Y94139D01*
X-125949Y94036D01*
X-125634Y93912D01*
X-125333Y93767D01*
X-125045Y93603D01*
X-124772Y93421D01*
X-124517Y93221D01*
X-124278Y93004D01*
X-124059Y92771D01*
X-123861Y92522D01*
X-123684Y92259D01*
X-123529Y91981D01*
X-123399Y91691D01*
X-123284Y91380D01*
X-123183Y91051D01*
X-123097Y90705D01*
X-123025Y90343D01*
X-122970Y89966D01*
X-122929Y89574D01*
X-122905Y89169D01*
X-122897Y88751D01*
X-122897Y88651D01*
X-122922Y82922D01*
X-122922Y82847D01*
X-122942Y82190D01*
X-123004Y81576D01*
X-123108Y81005D01*
X-123252Y80476D01*
X-123439Y79991D01*
X-123666Y79548D01*
X-123936Y79147D01*
X-124247Y78789D01*
X-124600Y78473D01*
X-124995Y78200D01*
X-125432Y77969D01*
X-125911Y77780D01*
X-126432Y77633D01*
X-126995Y77529D01*
X-127601Y77466D01*
X-128248Y77445D01*
G37*
%LPC*%
G36*
X-127972Y79304D02*
X-127580Y79317D01*
X-127216Y79354D01*
X-126877Y79417D01*
X-126566Y79505D01*
X-126280Y79619D01*
X-126021Y79759D01*
X-125787Y79925D01*
X-125579Y80118D01*
X-125396Y80337D01*
X-125238Y80584D01*
X-125105Y80858D01*
X-124997Y81159D01*
X-124913Y81488D01*
X-124854Y81846D01*
X-124818Y82231D01*
X-124806Y82646D01*
X-124806Y82797D01*
X-124781Y89002D01*
X-124781Y89053D01*
X-124793Y89476D01*
X-124831Y89870D01*
X-124893Y90236D01*
X-124981Y90572D01*
X-125095Y90881D01*
X-125234Y91161D01*
X-125400Y91413D01*
X-125591Y91637D01*
X-125810Y91835D01*
X-126054Y92005D01*
X-126326Y92148D01*
X-126625Y92264D01*
X-126952Y92355D01*
X-127306Y92419D01*
X-127688Y92457D01*
X-128098Y92470D01*
X-132695Y92470D01*
X-132841Y92455D01*
X-132940Y92410D01*
X-132992Y92332D01*
X-132997Y92218D01*
X-132997Y79581D01*
X-132982Y79442D01*
X-132937Y79358D01*
X-132859Y79316D01*
X-132746Y79304D01*
X-127972Y79304D01*
G37*
%LPD*%
G36*
X-224018Y77445D02*
X-229194Y77445D01*
X-229621Y77455D01*
X-229963Y77491D01*
X-230231Y77559D01*
X-230339Y77607D01*
X-230431Y77665D01*
X-230509Y77734D01*
X-230573Y77815D01*
X-230624Y77910D01*
X-230664Y78017D01*
X-230712Y78277D01*
X-230727Y78601D01*
X-230727Y78676D01*
X-230702Y92796D01*
X-230702Y92947D01*
X-230690Y93331D01*
X-230649Y93640D01*
X-230570Y93881D01*
X-230515Y93979D01*
X-230447Y94062D01*
X-230366Y94132D01*
X-230271Y94190D01*
X-230160Y94236D01*
X-230034Y94272D01*
X-229728Y94316D01*
X-229345Y94329D01*
X-223440Y94329D01*
X-223081Y94317D01*
X-222727Y94280D01*
X-222382Y94221D01*
X-222045Y94139D01*
X-221719Y94036D01*
X-221404Y93912D01*
X-221103Y93767D01*
X-220815Y93603D01*
X-220542Y93421D01*
X-220287Y93221D01*
X-220048Y93004D01*
X-219829Y92771D01*
X-219631Y92522D01*
X-219454Y92259D01*
X-219299Y91981D01*
X-219169Y91691D01*
X-219054Y91380D01*
X-218953Y91051D01*
X-218867Y90705D01*
X-218795Y90343D01*
X-218740Y89966D01*
X-218699Y89574D01*
X-218675Y89169D01*
X-218667Y88751D01*
X-218667Y88651D01*
X-218692Y82922D01*
X-218692Y82847D01*
X-218712Y82190D01*
X-218774Y81576D01*
X-218878Y81005D01*
X-219022Y80476D01*
X-219209Y79991D01*
X-219436Y79548D01*
X-219706Y79147D01*
X-220017Y78789D01*
X-220370Y78473D01*
X-220765Y78200D01*
X-221202Y77969D01*
X-221681Y77780D01*
X-222202Y77633D01*
X-222765Y77529D01*
X-223371Y77466D01*
X-224018Y77445D01*
G37*
%LPC*%
G36*
X-223742Y79304D02*
X-223350Y79317D01*
X-222986Y79354D01*
X-222647Y79417D01*
X-222336Y79505D01*
X-222050Y79619D01*
X-221791Y79759D01*
X-221557Y79925D01*
X-221349Y80118D01*
X-221166Y80337D01*
X-221008Y80584D01*
X-220875Y80858D01*
X-220767Y81159D01*
X-220683Y81488D01*
X-220624Y81846D01*
X-220588Y82231D01*
X-220576Y82646D01*
X-220576Y82797D01*
X-220551Y89002D01*
X-220551Y89053D01*
X-220563Y89476D01*
X-220601Y89870D01*
X-220663Y90236D01*
X-220751Y90572D01*
X-220865Y90881D01*
X-221004Y91161D01*
X-221170Y91413D01*
X-221361Y91637D01*
X-221580Y91835D01*
X-221824Y92005D01*
X-222096Y92148D01*
X-222395Y92264D01*
X-222722Y92355D01*
X-223076Y92419D01*
X-223458Y92457D01*
X-223868Y92470D01*
X-228465Y92470D01*
X-228611Y92455D01*
X-228710Y92410D01*
X-228762Y92332D01*
X-228767Y92218D01*
X-228767Y79581D01*
X-228752Y79442D01*
X-228707Y79358D01*
X-228629Y79316D01*
X-228516Y79304D01*
X-223742Y79304D01*
G37*
%LPD*%
G36*
X-208618Y113030D02*
X-209790Y113030D01*
X-209790Y121673D01*
X-205723Y121673D01*
X-205368Y121663D01*
X-205034Y121632D01*
X-204721Y121581D01*
X-204429Y121510D01*
X-204158Y121418D01*
X-203907Y121305D01*
X-203677Y121173D01*
X-203468Y121020D01*
X-203282Y120848D01*
X-203121Y120661D01*
X-202984Y120458D01*
X-202873Y120238D01*
X-202786Y120003D01*
X-202724Y119752D01*
X-202686Y119484D01*
X-202674Y119201D01*
X-202683Y118965D01*
X-202709Y118738D01*
X-202753Y118522D01*
X-202814Y118314D01*
X-202893Y118117D01*
X-202990Y117929D01*
X-203104Y117750D01*
X-203235Y117581D01*
X-203382Y117425D01*
X-203543Y117284D01*
X-203716Y117157D01*
X-203794Y117111D01*
X-203903Y117046D01*
X-204103Y116950D01*
X-204317Y116870D01*
X-204544Y116804D01*
X-204784Y116753D01*
X-203740Y115168D01*
X-202331Y113030D01*
X-203680Y113030D01*
X-205925Y116618D01*
X-208618Y116618D01*
X-208618Y113030D01*
G37*
%LPC*%
G36*
X-205790Y117545D02*
X-205565Y117551D01*
X-205353Y117572D01*
X-205155Y117605D01*
X-204969Y117653D01*
X-204796Y117714D01*
X-204637Y117788D01*
X-204491Y117876D01*
X-204358Y117977D01*
X-204239Y118091D01*
X-204136Y118215D01*
X-204049Y118350D01*
X-203978Y118496D01*
X-203923Y118653D01*
X-203883Y118821D01*
X-203860Y118999D01*
X-203852Y119189D01*
X-203860Y119372D01*
X-203884Y119543D01*
X-203924Y119704D01*
X-203980Y119853D01*
X-204052Y119992D01*
X-204140Y120118D01*
X-204244Y120234D01*
X-204364Y120339D01*
X-204499Y120431D01*
X-204648Y120512D01*
X-204812Y120580D01*
X-204989Y120635D01*
X-205180Y120679D01*
X-205386Y120710D01*
X-205605Y120728D01*
X-205839Y120734D01*
X-208618Y120734D01*
X-208618Y117545D01*
X-205790Y117545D01*
G37*
%LPD*%
G36*
X-195384Y113030D02*
X-200801Y113030D01*
X-200801Y113969D01*
X-198599Y113969D01*
X-198599Y120618D01*
X-200549Y119225D01*
X-200549Y120268D01*
X-198506Y121673D01*
X-197488Y121673D01*
X-197488Y113969D01*
X-195384Y113969D01*
X-195384Y113030D01*
G37*
D10*
X-86100Y227620D02*
X-86100Y295620D01*
X-2800Y295620D01*
X-2800Y227620D01*
X-25403Y227620D02*
X-64770Y227620D01*
X-86100Y224018D02*
X-2800Y224018D01*
X-2800Y227620D02*
X-86100Y227620D01*
X-19352Y219918D02*
X-19352Y208225D01*
X-13762Y213662D02*
X-25455Y213662D01*
X-64562Y213662D02*
X-76255Y213662D01*
X-2800Y226402D02*
X-2800Y227620D01*
X-2800Y226402D02*
X-2800Y225184D01*
X-2800Y224018D01*
X-86100Y226402D02*
X-86100Y227620D01*
X-86100Y226402D02*
X-86100Y225184D01*
X-86100Y224018D01*
X-86100Y225184D02*
X-2800Y225184D01*
X-2800Y226402D02*
X-86100Y226402D01*
X-266960Y72100D02*
X-266960Y4100D01*
X-350260Y4100D01*
X-350260Y72100D01*
X-327657Y72100D02*
X-288290Y72100D01*
X-266960Y75702D02*
X-350260Y75702D01*
X-350260Y72100D02*
X-266960Y72100D01*
X-333708Y79802D02*
X-333708Y91495D01*
X-339298Y86058D02*
X-327605Y86058D01*
X-288498Y86058D02*
X-276805Y86058D01*
X-350260Y73318D02*
X-350260Y72100D01*
X-350260Y73318D02*
X-350260Y74536D01*
X-350260Y75702D01*
X-266960Y73318D02*
X-266960Y72100D01*
X-266960Y73318D02*
X-266960Y74536D01*
X-266960Y75702D01*
X-266960Y74536D02*
X-350260Y74536D01*
X-350260Y73318D02*
X-266960Y73318D01*
X-170670Y227620D02*
X-170670Y295620D01*
X-87370Y295620D01*
X-87370Y227620D01*
X-109973Y227620D02*
X-149340Y227620D01*
X-170670Y224018D02*
X-87370Y224018D01*
X-87370Y227620D02*
X-170670Y227620D01*
X-103922Y219918D02*
X-103922Y208225D01*
X-98332Y213662D02*
X-110025Y213662D01*
X-149132Y213662D02*
X-160825Y213662D01*
X-87370Y226402D02*
X-87370Y227620D01*
X-87370Y226402D02*
X-87370Y225184D01*
X-87370Y224018D01*
X-170670Y226402D02*
X-170670Y227620D01*
X-170670Y226402D02*
X-170670Y225184D01*
X-170670Y224018D01*
X-170670Y225184D02*
X-87370Y225184D01*
X-87370Y226402D02*
X-170670Y226402D01*
X-266440Y227790D02*
X-266440Y295790D01*
X-183140Y295790D01*
X-183140Y227790D01*
X-205743Y227790D02*
X-245110Y227790D01*
X-266440Y224188D02*
X-183140Y224188D01*
X-183140Y227790D02*
X-266440Y227790D01*
X-199692Y220088D02*
X-199692Y208395D01*
X-194102Y213832D02*
X-205795Y213832D01*
X-244902Y213832D02*
X-256595Y213832D01*
X-183140Y226572D02*
X-183140Y227790D01*
X-183140Y226572D02*
X-183140Y225354D01*
X-183140Y224188D01*
X-266440Y226572D02*
X-266440Y227790D01*
X-266440Y226572D02*
X-266440Y225354D01*
X-266440Y224188D01*
X-266440Y225354D02*
X-183140Y225354D01*
X-183140Y226572D02*
X-266440Y226572D01*
X-350260Y227790D02*
X-350260Y295790D01*
X-266960Y295790D01*
X-266960Y227790D01*
X-289563Y227790D02*
X-328930Y227790D01*
X-350260Y224188D02*
X-266960Y224188D01*
X-266960Y227790D02*
X-350260Y227790D01*
X-283512Y220088D02*
X-283512Y208395D01*
X-277922Y213832D02*
X-289615Y213832D01*
X-328722Y213832D02*
X-340415Y213832D01*
X-266960Y226572D02*
X-266960Y227790D01*
X-266960Y226572D02*
X-266960Y225354D01*
X-266960Y224188D01*
X-350260Y226572D02*
X-350260Y227790D01*
X-350260Y226572D02*
X-350260Y225354D01*
X-350260Y224188D01*
X-350260Y225354D02*
X-266960Y225354D01*
X-266960Y226572D02*
X-350260Y226572D01*
X-372400Y151390D02*
X-440400Y151390D01*
X-440400Y234690D01*
X-372400Y234690D01*
X-372400Y212087D02*
X-372400Y172720D01*
X-368798Y151390D02*
X-368798Y234690D01*
X-372400Y234690D02*
X-372400Y151390D01*
X-364698Y218138D02*
X-353005Y218138D01*
X-358442Y223728D02*
X-358442Y212035D01*
X-358442Y172928D02*
X-358442Y161235D01*
X-371182Y234690D02*
X-372400Y234690D01*
X-371182Y234690D02*
X-369964Y234690D01*
X-368798Y234690D01*
X-371182Y151390D02*
X-372400Y151390D01*
X-371182Y151390D02*
X-369964Y151390D01*
X-368798Y151390D01*
X-369964Y151390D02*
X-369964Y234690D01*
X-371182Y234690D02*
X-371182Y151390D01*
X-372400Y66300D02*
X-440400Y66300D01*
X-440400Y149600D01*
X-372400Y149600D01*
X-372400Y126997D02*
X-372400Y87630D01*
X-368798Y66300D02*
X-368798Y149600D01*
X-372400Y149600D02*
X-372400Y66300D01*
X-364698Y133048D02*
X-353005Y133048D01*
X-358442Y138638D02*
X-358442Y126945D01*
X-358442Y87838D02*
X-358442Y76145D01*
X-371182Y149600D02*
X-372400Y149600D01*
X-371182Y149600D02*
X-369964Y149600D01*
X-368798Y149600D01*
X-371182Y66300D02*
X-372400Y66300D01*
X-371182Y66300D02*
X-369964Y66300D01*
X-368798Y66300D01*
X-369964Y66300D02*
X-369964Y149600D01*
X-371182Y149600D02*
X-371182Y66300D01*
X-2800Y72100D02*
X-2800Y4100D01*
X-86100Y4100D01*
X-86100Y72100D01*
X-63497Y72100D02*
X-24130Y72100D01*
X-2800Y75702D02*
X-86100Y75702D01*
X-86100Y72100D02*
X-2800Y72100D01*
X-69548Y79802D02*
X-69548Y91495D01*
X-75138Y86058D02*
X-63445Y86058D01*
X-24338Y86058D02*
X-12645Y86058D01*
X-86100Y73318D02*
X-86100Y72100D01*
X-86100Y73318D02*
X-86100Y74536D01*
X-86100Y75702D01*
X-2800Y73318D02*
X-2800Y72100D01*
X-2800Y73318D02*
X-2800Y74536D01*
X-2800Y75702D01*
X-2800Y74536D02*
X-86100Y74536D01*
X-86100Y73318D02*
X-2800Y73318D01*
X-87370Y72100D02*
X-87370Y4100D01*
X-170670Y4100D01*
X-170670Y72100D01*
X-148067Y72100D02*
X-108700Y72100D01*
X-87370Y75702D02*
X-170670Y75702D01*
X-170670Y72100D02*
X-87370Y72100D01*
X-154118Y79802D02*
X-154118Y91495D01*
X-159708Y86058D02*
X-148015Y86058D01*
X-108908Y86058D02*
X-97215Y86058D01*
X-170670Y73318D02*
X-170670Y72100D01*
X-170670Y73318D02*
X-170670Y74536D01*
X-170670Y75702D01*
X-87370Y73318D02*
X-87370Y72100D01*
X-87370Y73318D02*
X-87370Y74536D01*
X-87370Y75702D01*
X-87370Y74536D02*
X-170670Y74536D01*
X-170670Y73318D02*
X-87370Y73318D01*
X-183140Y72100D02*
X-183140Y4100D01*
X-266440Y4100D01*
X-266440Y72100D01*
X-243837Y72100D02*
X-204470Y72100D01*
X-183140Y75702D02*
X-266440Y75702D01*
X-266440Y72100D02*
X-183140Y72100D01*
X-249888Y79802D02*
X-249888Y91495D01*
X-255478Y86058D02*
X-243785Y86058D01*
X-204678Y86058D02*
X-192985Y86058D01*
X-266440Y73318D02*
X-266440Y72100D01*
X-266440Y73318D02*
X-266440Y74536D01*
X-266440Y75702D01*
X-183140Y73318D02*
X-183140Y72100D01*
X-183140Y73318D02*
X-183140Y74536D01*
X-183140Y75702D01*
X-183140Y74536D02*
X-266440Y74536D01*
X-266440Y73318D02*
X-183140Y73318D01*
D11*
X109079Y278109D02*
X109087Y278111D01*
X109094Y278115D01*
X109098Y278122D01*
X109100Y278130D01*
D10*
X-212090Y128270D02*
X-212190Y128268D01*
X-212289Y128262D01*
X-212389Y128252D01*
X-212487Y128239D01*
X-212586Y128221D01*
X-212683Y128200D01*
X-212779Y128175D01*
X-212875Y128146D01*
X-212969Y128113D01*
X-213062Y128077D01*
X-213153Y128037D01*
X-213243Y127993D01*
X-213331Y127946D01*
X-213417Y127896D01*
X-213501Y127842D01*
X-213583Y127785D01*
X-213662Y127725D01*
X-213740Y127661D01*
X-213814Y127595D01*
X-213886Y127526D01*
X-213955Y127454D01*
X-214021Y127380D01*
X-214085Y127302D01*
X-214145Y127223D01*
X-214202Y127141D01*
X-214256Y127057D01*
X-214306Y126971D01*
X-214353Y126883D01*
X-214397Y126793D01*
X-214437Y126702D01*
X-214473Y126609D01*
X-214506Y126515D01*
X-214535Y126419D01*
X-214560Y126323D01*
X-214581Y126226D01*
X-214599Y126127D01*
X-214612Y126029D01*
X-214622Y125929D01*
X-214628Y125830D01*
X-214630Y125730D01*
X-214630Y107950D02*
X-214628Y107850D01*
X-214622Y107751D01*
X-214612Y107651D01*
X-214599Y107553D01*
X-214581Y107454D01*
X-214560Y107357D01*
X-214535Y107261D01*
X-214506Y107165D01*
X-214473Y107071D01*
X-214437Y106978D01*
X-214397Y106887D01*
X-214353Y106797D01*
X-214306Y106709D01*
X-214256Y106623D01*
X-214202Y106539D01*
X-214145Y106457D01*
X-214085Y106378D01*
X-214021Y106300D01*
X-213955Y106226D01*
X-213886Y106154D01*
X-213814Y106085D01*
X-213740Y106019D01*
X-213662Y105955D01*
X-213583Y105895D01*
X-213501Y105838D01*
X-213417Y105784D01*
X-213331Y105734D01*
X-213243Y105687D01*
X-213153Y105643D01*
X-213062Y105603D01*
X-212969Y105567D01*
X-212875Y105534D01*
X-212779Y105505D01*
X-212683Y105480D01*
X-212586Y105459D01*
X-212487Y105441D01*
X-212389Y105428D01*
X-212289Y105418D01*
X-212190Y105412D01*
X-212090Y105410D01*
X-153670Y105410D02*
X-153570Y105412D01*
X-153471Y105418D01*
X-153371Y105428D01*
X-153273Y105441D01*
X-153174Y105459D01*
X-153077Y105480D01*
X-152981Y105505D01*
X-152885Y105534D01*
X-152791Y105567D01*
X-152698Y105603D01*
X-152607Y105643D01*
X-152517Y105687D01*
X-152429Y105734D01*
X-152343Y105784D01*
X-152259Y105838D01*
X-152177Y105895D01*
X-152098Y105955D01*
X-152020Y106019D01*
X-151946Y106085D01*
X-151874Y106154D01*
X-151805Y106226D01*
X-151739Y106300D01*
X-151675Y106378D01*
X-151615Y106457D01*
X-151558Y106539D01*
X-151504Y106623D01*
X-151454Y106709D01*
X-151407Y106797D01*
X-151363Y106887D01*
X-151323Y106978D01*
X-151287Y107071D01*
X-151254Y107165D01*
X-151225Y107261D01*
X-151200Y107357D01*
X-151179Y107454D01*
X-151161Y107553D01*
X-151148Y107651D01*
X-151138Y107751D01*
X-151132Y107850D01*
X-151130Y107950D01*
X-151130Y125730D02*
X-151132Y125830D01*
X-151138Y125929D01*
X-151148Y126029D01*
X-151161Y126127D01*
X-151179Y126226D01*
X-151200Y126323D01*
X-151225Y126419D01*
X-151254Y126515D01*
X-151287Y126609D01*
X-151323Y126702D01*
X-151363Y126793D01*
X-151407Y126883D01*
X-151454Y126971D01*
X-151504Y127057D01*
X-151558Y127141D01*
X-151615Y127223D01*
X-151675Y127302D01*
X-151739Y127380D01*
X-151805Y127454D01*
X-151874Y127526D01*
X-151946Y127595D01*
X-152020Y127661D01*
X-152098Y127725D01*
X-152177Y127785D01*
X-152259Y127842D01*
X-152343Y127896D01*
X-152429Y127946D01*
X-152517Y127993D01*
X-152607Y128037D01*
X-152698Y128077D01*
X-152791Y128113D01*
X-152885Y128146D01*
X-152981Y128175D01*
X-153077Y128200D01*
X-153174Y128221D01*
X-153273Y128239D01*
X-153371Y128252D01*
X-153471Y128262D01*
X-153570Y128268D01*
X-153670Y128270D01*
X-214630Y125730D02*
X-214630Y107950D01*
X-212090Y128270D02*
X-208280Y128270D01*
X-207010Y127000D01*
X-208280Y105410D02*
X-212090Y105410D01*
X-208280Y105410D02*
X-207010Y106680D01*
X-158750Y127000D02*
X-157480Y128270D01*
X-158750Y127000D02*
X-207010Y127000D01*
X-158750Y106680D02*
X-157480Y105410D01*
X-158750Y106680D02*
X-207010Y106680D01*
X-157480Y128270D02*
X-153670Y128270D01*
X-153670Y105410D02*
X-157480Y105410D01*
X-151130Y107950D02*
X-151130Y125730D01*
D12*
X-146812Y116840D03*
X-218948Y116840D03*
D13*
X-270581Y121031D02*
X-272161Y115499D01*
X-268210Y115499D01*
X-269395Y117080D02*
X-269395Y113919D01*
X-264782Y113919D02*
X-264782Y114314D01*
X-264387Y114314D01*
X-264387Y113919D01*
X-264782Y113919D01*
X-260960Y120241D02*
X-260960Y121031D01*
X-257009Y121031D01*
X-258984Y113919D01*
X-252485Y113919D02*
X-252485Y121031D01*
X-248534Y121031D02*
X-252485Y116685D01*
X-250904Y118265D02*
X-248534Y113919D01*
D14*
X-64928Y189528D02*
X-64926Y189648D01*
X-64921Y189768D01*
X-64912Y189888D01*
X-64899Y190008D01*
X-64883Y190127D01*
X-64863Y190246D01*
X-64839Y190364D01*
X-64812Y190481D01*
X-64782Y190597D01*
X-64748Y190712D01*
X-64710Y190827D01*
X-64669Y190940D01*
X-64625Y191051D01*
X-64577Y191162D01*
X-64526Y191271D01*
X-64525Y191271D02*
X-64504Y191328D01*
X-64478Y191384D01*
X-64450Y191439D01*
X-64418Y191491D01*
X-64382Y191542D01*
X-64344Y191590D01*
X-64303Y191636D01*
X-64259Y191679D01*
X-64213Y191719D01*
X-64164Y191756D01*
X-64112Y191790D01*
X-64059Y191821D01*
X-64004Y191849D01*
X-63948Y191873D01*
X-63890Y191894D01*
X-63831Y191911D01*
X-63771Y191924D01*
X-63710Y191933D01*
X-63648Y191939D01*
X-63587Y191941D01*
X-63526Y191939D01*
X-63464Y191933D01*
X-63403Y191924D01*
X-63343Y191911D01*
X-63284Y191894D01*
X-63226Y191873D01*
X-63170Y191849D01*
X-63115Y191821D01*
X-63062Y191790D01*
X-63010Y191756D01*
X-62962Y191719D01*
X-62915Y191679D01*
X-62871Y191636D01*
X-62830Y191590D01*
X-62792Y191542D01*
X-62756Y191491D01*
X-62724Y191439D01*
X-62696Y191384D01*
X-62670Y191328D01*
X-62649Y191271D01*
X-62648Y191271D02*
X-62597Y191162D01*
X-62549Y191051D01*
X-62505Y190940D01*
X-62464Y190827D01*
X-62426Y190712D01*
X-62392Y190597D01*
X-62362Y190481D01*
X-62335Y190364D01*
X-62311Y190246D01*
X-62291Y190127D01*
X-62275Y190008D01*
X-62262Y189888D01*
X-62253Y189768D01*
X-62248Y189648D01*
X-62246Y189528D01*
X-64927Y189528D02*
X-64925Y189408D01*
X-64920Y189288D01*
X-64911Y189168D01*
X-64898Y189048D01*
X-64882Y188929D01*
X-64862Y188810D01*
X-64838Y188692D01*
X-64811Y188575D01*
X-64781Y188459D01*
X-64747Y188344D01*
X-64709Y188229D01*
X-64668Y188116D01*
X-64624Y188005D01*
X-64576Y187894D01*
X-64525Y187785D01*
X-64504Y187728D01*
X-64478Y187672D01*
X-64450Y187617D01*
X-64418Y187565D01*
X-64382Y187514D01*
X-64344Y187466D01*
X-64303Y187420D01*
X-64259Y187377D01*
X-64213Y187337D01*
X-64164Y187300D01*
X-64112Y187266D01*
X-64059Y187235D01*
X-64004Y187207D01*
X-63948Y187183D01*
X-63890Y187162D01*
X-63831Y187145D01*
X-63771Y187132D01*
X-63710Y187123D01*
X-63648Y187117D01*
X-63587Y187115D01*
X-62649Y187785D02*
X-62598Y187894D01*
X-62550Y188005D01*
X-62506Y188116D01*
X-62465Y188229D01*
X-62427Y188344D01*
X-62393Y188459D01*
X-62363Y188575D01*
X-62336Y188692D01*
X-62312Y188810D01*
X-62292Y188929D01*
X-62276Y189048D01*
X-62263Y189168D01*
X-62254Y189288D01*
X-62249Y189408D01*
X-62247Y189528D01*
X-62649Y187785D02*
X-62670Y187728D01*
X-62696Y187672D01*
X-62724Y187617D01*
X-62756Y187565D01*
X-62792Y187514D01*
X-62830Y187466D01*
X-62871Y187420D01*
X-62915Y187377D01*
X-62962Y187337D01*
X-63010Y187300D01*
X-63062Y187266D01*
X-63115Y187235D01*
X-63170Y187207D01*
X-63226Y187183D01*
X-63284Y187162D01*
X-63343Y187145D01*
X-63403Y187132D01*
X-63464Y187123D01*
X-63526Y187117D01*
X-63587Y187115D01*
X-64659Y188187D02*
X-62515Y190869D01*
X-59881Y187383D02*
X-59881Y187115D01*
X-59881Y187383D02*
X-59613Y187383D01*
X-59613Y187115D01*
X-59881Y187115D01*
X-57247Y190869D02*
X-55906Y191941D01*
X-55906Y187115D01*
X-54566Y187115D02*
X-57247Y187115D01*
X-51675Y187919D02*
X-51675Y190332D01*
X-51675Y187919D02*
X-51673Y187864D01*
X-51668Y187810D01*
X-51658Y187755D01*
X-51645Y187702D01*
X-51629Y187650D01*
X-51608Y187599D01*
X-51585Y187549D01*
X-51558Y187501D01*
X-51528Y187455D01*
X-51495Y187412D01*
X-51459Y187370D01*
X-51420Y187331D01*
X-51378Y187295D01*
X-51335Y187262D01*
X-51289Y187232D01*
X-51241Y187205D01*
X-51191Y187182D01*
X-51140Y187161D01*
X-51088Y187145D01*
X-51035Y187132D01*
X-50980Y187122D01*
X-50926Y187117D01*
X-50871Y187115D01*
X-49530Y187115D01*
X-49530Y190332D01*
X-46437Y191941D02*
X-46437Y187115D01*
X-46437Y191941D02*
X-44292Y191941D01*
X-44292Y189796D02*
X-46437Y189796D01*
X-62490Y178181D02*
X-63830Y177109D01*
X-62490Y178181D02*
X-62490Y173355D01*
X-63830Y173355D02*
X-61149Y173355D01*
X-58344Y175768D02*
X-58342Y175888D01*
X-58337Y176008D01*
X-58328Y176128D01*
X-58315Y176248D01*
X-58299Y176367D01*
X-58279Y176486D01*
X-58255Y176604D01*
X-58228Y176721D01*
X-58198Y176837D01*
X-58164Y176952D01*
X-58126Y177067D01*
X-58085Y177180D01*
X-58041Y177291D01*
X-57993Y177402D01*
X-57942Y177511D01*
X-57941Y177511D02*
X-57920Y177568D01*
X-57894Y177624D01*
X-57866Y177679D01*
X-57834Y177731D01*
X-57798Y177782D01*
X-57760Y177830D01*
X-57719Y177876D01*
X-57675Y177919D01*
X-57629Y177959D01*
X-57580Y177996D01*
X-57528Y178030D01*
X-57475Y178061D01*
X-57420Y178089D01*
X-57364Y178113D01*
X-57306Y178134D01*
X-57247Y178151D01*
X-57187Y178164D01*
X-57126Y178173D01*
X-57064Y178179D01*
X-57003Y178181D01*
X-56942Y178179D01*
X-56880Y178173D01*
X-56819Y178164D01*
X-56759Y178151D01*
X-56700Y178134D01*
X-56642Y178113D01*
X-56586Y178089D01*
X-56531Y178061D01*
X-56478Y178030D01*
X-56426Y177996D01*
X-56378Y177959D01*
X-56331Y177919D01*
X-56287Y177876D01*
X-56246Y177830D01*
X-56208Y177782D01*
X-56172Y177731D01*
X-56140Y177679D01*
X-56112Y177624D01*
X-56086Y177568D01*
X-56065Y177511D01*
X-56014Y177402D01*
X-55966Y177291D01*
X-55922Y177180D01*
X-55881Y177067D01*
X-55843Y176952D01*
X-55809Y176837D01*
X-55779Y176721D01*
X-55752Y176604D01*
X-55728Y176486D01*
X-55708Y176367D01*
X-55692Y176248D01*
X-55679Y176128D01*
X-55670Y176008D01*
X-55665Y175888D01*
X-55663Y175768D01*
X-58344Y175768D02*
X-58342Y175648D01*
X-58337Y175528D01*
X-58328Y175408D01*
X-58315Y175288D01*
X-58299Y175169D01*
X-58279Y175050D01*
X-58255Y174932D01*
X-58228Y174815D01*
X-58198Y174699D01*
X-58164Y174584D01*
X-58126Y174469D01*
X-58085Y174356D01*
X-58041Y174245D01*
X-57993Y174134D01*
X-57942Y174025D01*
X-57941Y174025D02*
X-57920Y173968D01*
X-57894Y173912D01*
X-57866Y173857D01*
X-57834Y173805D01*
X-57798Y173754D01*
X-57760Y173706D01*
X-57719Y173660D01*
X-57675Y173617D01*
X-57629Y173577D01*
X-57580Y173540D01*
X-57528Y173506D01*
X-57475Y173475D01*
X-57420Y173447D01*
X-57364Y173423D01*
X-57306Y173402D01*
X-57247Y173385D01*
X-57187Y173372D01*
X-57126Y173363D01*
X-57064Y173357D01*
X-57003Y173355D01*
X-56065Y174025D02*
X-56014Y174134D01*
X-55966Y174245D01*
X-55922Y174356D01*
X-55881Y174469D01*
X-55843Y174584D01*
X-55809Y174699D01*
X-55779Y174815D01*
X-55752Y174932D01*
X-55728Y175050D01*
X-55708Y175169D01*
X-55692Y175288D01*
X-55679Y175408D01*
X-55670Y175528D01*
X-55665Y175648D01*
X-55663Y175768D01*
X-56065Y174025D02*
X-56086Y173968D01*
X-56112Y173912D01*
X-56140Y173857D01*
X-56172Y173805D01*
X-56208Y173754D01*
X-56246Y173706D01*
X-56287Y173660D01*
X-56331Y173617D01*
X-56378Y173577D01*
X-56426Y173540D01*
X-56478Y173506D01*
X-56531Y173475D01*
X-56586Y173447D01*
X-56642Y173423D01*
X-56700Y173402D01*
X-56759Y173385D01*
X-56819Y173372D01*
X-56880Y173363D01*
X-56942Y173357D01*
X-57003Y173355D01*
X-58076Y174427D02*
X-55931Y177109D01*
X-52772Y176572D02*
X-52772Y174159D01*
X-52770Y174104D01*
X-52765Y174050D01*
X-52755Y173995D01*
X-52742Y173942D01*
X-52726Y173890D01*
X-52705Y173839D01*
X-52682Y173789D01*
X-52655Y173741D01*
X-52625Y173695D01*
X-52592Y173652D01*
X-52556Y173610D01*
X-52517Y173571D01*
X-52475Y173535D01*
X-52432Y173502D01*
X-52386Y173472D01*
X-52338Y173445D01*
X-52288Y173422D01*
X-52237Y173401D01*
X-52185Y173385D01*
X-52132Y173372D01*
X-52077Y173362D01*
X-52023Y173357D01*
X-51968Y173355D01*
X-50628Y173355D01*
X-50628Y176572D01*
X-47535Y178181D02*
X-47535Y173355D01*
X-47535Y178181D02*
X-45390Y178181D01*
X-45390Y176036D02*
X-47535Y176036D01*
M02*
