G04 EAGLE Gerber RS-274X export*
G75*
%MOMM*%
%FSLAX34Y34*%
%LPD*%
%IN*%
%IPPOS*%
%AMOC8*
5,1,8,0,0,1.08239X$1,22.5*%
G01*
G04 Define Apertures*
%ADD10C,0.254000*%
D10*
X-443600Y30000D02*
X-443486Y27385D01*
X-443144Y24791D01*
X-442578Y22235D01*
X-441791Y19739D01*
X-440789Y17321D01*
X-439581Y15000D01*
X-438175Y12793D01*
X-436581Y10716D01*
X-434813Y8787D01*
X-432884Y7019D01*
X-430807Y5425D01*
X-428600Y4019D01*
X-426279Y2811D01*
X-423861Y1809D01*
X-421365Y1022D01*
X-418809Y456D01*
X-416215Y114D01*
X-413600Y0D01*
X36400Y0D01*
X39015Y114D01*
X41609Y456D01*
X44165Y1022D01*
X46661Y1809D01*
X49079Y2811D01*
X51400Y4019D01*
X53607Y5425D01*
X55684Y7019D01*
X57613Y8787D01*
X59381Y10716D01*
X60975Y12793D01*
X62381Y15000D01*
X63589Y17321D01*
X64591Y19739D01*
X65378Y22235D01*
X65944Y24791D01*
X66286Y27385D01*
X66400Y30000D01*
X66400Y142300D01*
X66628Y147529D01*
X67312Y152719D01*
X68444Y157829D01*
X70018Y162821D01*
X72022Y167657D01*
X74438Y172300D01*
X77251Y176715D01*
X80437Y180867D01*
X83974Y184726D01*
X87833Y188263D01*
X91985Y191449D01*
X96400Y194262D01*
X101043Y196678D01*
X105879Y198682D01*
X110871Y200256D01*
X115981Y201388D01*
X121171Y202072D01*
X126400Y202300D01*
X170300Y202300D01*
X173786Y202452D01*
X177246Y202908D01*
X180653Y203663D01*
X183981Y204712D01*
X187205Y206048D01*
X190300Y207659D01*
X193243Y209534D01*
X196012Y211658D01*
X198584Y214016D01*
X200942Y216589D01*
X203066Y219357D01*
X204941Y222300D01*
X206552Y225395D01*
X207888Y228619D01*
X208937Y231947D01*
X209692Y235354D01*
X210148Y238814D01*
X210300Y242300D01*
X210300Y280000D01*
X210224Y281743D01*
X209996Y283473D01*
X209619Y285176D01*
X209094Y286840D01*
X208426Y288452D01*
X207621Y290000D01*
X206683Y291472D01*
X205621Y292856D01*
X204442Y294142D01*
X203156Y295321D01*
X201772Y296383D01*
X200300Y297321D01*
X198752Y298126D01*
X197140Y298794D01*
X195476Y299319D01*
X193773Y299696D01*
X192043Y299924D01*
X190300Y300000D01*
X-413600Y300000D01*
X-416215Y299886D01*
X-418809Y299544D01*
X-421365Y298978D01*
X-423861Y298191D01*
X-426279Y297189D01*
X-428600Y295981D01*
X-430807Y294575D01*
X-432884Y292981D01*
X-434813Y291213D01*
X-436581Y289284D01*
X-438175Y287207D01*
X-439581Y285000D01*
X-440789Y282679D01*
X-441791Y280261D01*
X-442578Y277765D01*
X-443144Y275209D01*
X-443486Y272615D01*
X-443600Y270000D01*
X-443600Y30000D01*
X48750Y34509D02*
X48750Y35491D01*
X48680Y36471D01*
X48540Y37443D01*
X48331Y38403D01*
X48055Y39345D01*
X47711Y40265D01*
X47303Y41159D01*
X46833Y42021D01*
X46302Y42847D01*
X45713Y43633D01*
X45070Y44375D01*
X44375Y45070D01*
X43633Y45713D01*
X42847Y46302D01*
X42021Y46833D01*
X41159Y47303D01*
X40265Y47711D01*
X39345Y48055D01*
X38403Y48331D01*
X37443Y48540D01*
X36471Y48680D01*
X35491Y48750D01*
X34509Y48750D01*
X33529Y48680D01*
X32557Y48540D01*
X31597Y48331D01*
X30655Y48055D01*
X29735Y47711D01*
X28841Y47303D01*
X27979Y46833D01*
X27153Y46302D01*
X26367Y45713D01*
X25625Y45070D01*
X24930Y44375D01*
X24287Y43633D01*
X23698Y42847D01*
X23167Y42021D01*
X22697Y41159D01*
X22289Y40265D01*
X21945Y39345D01*
X21669Y38403D01*
X21460Y37443D01*
X21320Y36471D01*
X21250Y35491D01*
X21250Y34509D01*
X21320Y33529D01*
X21460Y32557D01*
X21669Y31597D01*
X21945Y30655D01*
X22289Y29735D01*
X22697Y28841D01*
X23167Y27979D01*
X23698Y27153D01*
X24287Y26367D01*
X24930Y25625D01*
X25625Y24930D01*
X26367Y24287D01*
X27153Y23698D01*
X27979Y23167D01*
X28841Y22697D01*
X29735Y22289D01*
X30655Y21945D01*
X31597Y21669D01*
X32557Y21460D01*
X33529Y21320D01*
X34509Y21250D01*
X35491Y21250D01*
X36471Y21320D01*
X37443Y21460D01*
X38403Y21669D01*
X39345Y21945D01*
X40265Y22289D01*
X41159Y22697D01*
X42021Y23167D01*
X42847Y23698D01*
X43633Y24287D01*
X44375Y24930D01*
X45070Y25625D01*
X45713Y26367D01*
X46302Y27153D01*
X46833Y27979D01*
X47303Y28841D01*
X47711Y29735D01*
X48055Y30655D01*
X48331Y31597D01*
X48540Y32557D01*
X48680Y33529D01*
X48750Y34509D01*
X48750Y264509D02*
X48750Y265491D01*
X48680Y266471D01*
X48540Y267443D01*
X48331Y268403D01*
X48055Y269345D01*
X47711Y270265D01*
X47303Y271159D01*
X46833Y272021D01*
X46302Y272847D01*
X45713Y273633D01*
X45070Y274375D01*
X44375Y275070D01*
X43633Y275713D01*
X42847Y276302D01*
X42021Y276833D01*
X41159Y277303D01*
X40265Y277711D01*
X39345Y278055D01*
X38403Y278331D01*
X37443Y278540D01*
X36471Y278680D01*
X35491Y278750D01*
X34509Y278750D01*
X33529Y278680D01*
X32557Y278540D01*
X31597Y278331D01*
X30655Y278055D01*
X29735Y277711D01*
X28841Y277303D01*
X27979Y276833D01*
X27153Y276302D01*
X26367Y275713D01*
X25625Y275070D01*
X24930Y274375D01*
X24287Y273633D01*
X23698Y272847D01*
X23167Y272021D01*
X22697Y271159D01*
X22289Y270265D01*
X21945Y269345D01*
X21669Y268403D01*
X21460Y267443D01*
X21320Y266471D01*
X21250Y265491D01*
X21250Y264509D01*
X21320Y263529D01*
X21460Y262557D01*
X21669Y261597D01*
X21945Y260655D01*
X22289Y259735D01*
X22697Y258841D01*
X23167Y257979D01*
X23698Y257153D01*
X24287Y256367D01*
X24930Y255625D01*
X25625Y254930D01*
X26367Y254287D01*
X27153Y253698D01*
X27979Y253167D01*
X28841Y252697D01*
X29735Y252289D01*
X30655Y251945D01*
X31597Y251669D01*
X32557Y251460D01*
X33529Y251320D01*
X34509Y251250D01*
X35491Y251250D01*
X36471Y251320D01*
X37443Y251460D01*
X38403Y251669D01*
X39345Y251945D01*
X40265Y252289D01*
X41159Y252697D01*
X42021Y253167D01*
X42847Y253698D01*
X43633Y254287D01*
X44375Y254930D01*
X45070Y255625D01*
X45713Y256367D01*
X46302Y257153D01*
X46833Y257979D01*
X47303Y258841D01*
X47711Y259735D01*
X48055Y260655D01*
X48331Y261597D01*
X48540Y262557D01*
X48680Y263529D01*
X48750Y264509D01*
X-399850Y29509D02*
X-399850Y30491D01*
X-399920Y31471D01*
X-400060Y32443D01*
X-400269Y33403D01*
X-400545Y34345D01*
X-400889Y35265D01*
X-401297Y36159D01*
X-401767Y37021D01*
X-402298Y37847D01*
X-402887Y38633D01*
X-403530Y39375D01*
X-404225Y40070D01*
X-404967Y40713D01*
X-405753Y41302D01*
X-406579Y41833D01*
X-407441Y42303D01*
X-408335Y42711D01*
X-409255Y43055D01*
X-410197Y43331D01*
X-411157Y43540D01*
X-412129Y43680D01*
X-413109Y43750D01*
X-414091Y43750D01*
X-415071Y43680D01*
X-416043Y43540D01*
X-417003Y43331D01*
X-417945Y43055D01*
X-418865Y42711D01*
X-419759Y42303D01*
X-420621Y41833D01*
X-421447Y41302D01*
X-422233Y40713D01*
X-422975Y40070D01*
X-423670Y39375D01*
X-424313Y38633D01*
X-424902Y37847D01*
X-425433Y37021D01*
X-425903Y36159D01*
X-426311Y35265D01*
X-426655Y34345D01*
X-426931Y33403D01*
X-427140Y32443D01*
X-427280Y31471D01*
X-427350Y30491D01*
X-427350Y29509D01*
X-427280Y28529D01*
X-427140Y27557D01*
X-426931Y26597D01*
X-426655Y25655D01*
X-426311Y24735D01*
X-425903Y23841D01*
X-425433Y22979D01*
X-424902Y22153D01*
X-424313Y21367D01*
X-423670Y20625D01*
X-422975Y19930D01*
X-422233Y19287D01*
X-421447Y18698D01*
X-420621Y18167D01*
X-419759Y17697D01*
X-418865Y17289D01*
X-417945Y16945D01*
X-417003Y16669D01*
X-416043Y16460D01*
X-415071Y16320D01*
X-414091Y16250D01*
X-413109Y16250D01*
X-412129Y16320D01*
X-411157Y16460D01*
X-410197Y16669D01*
X-409255Y16945D01*
X-408335Y17289D01*
X-407441Y17697D01*
X-406579Y18167D01*
X-405753Y18698D01*
X-404967Y19287D01*
X-404225Y19930D01*
X-403530Y20625D01*
X-402887Y21367D01*
X-402298Y22153D01*
X-401767Y22979D01*
X-401297Y23841D01*
X-400889Y24735D01*
X-400545Y25655D01*
X-400269Y26597D01*
X-400060Y27557D01*
X-399920Y28529D01*
X-399850Y29509D01*
X-399850Y269509D02*
X-399850Y270491D01*
X-399920Y271471D01*
X-400060Y272443D01*
X-400269Y273403D01*
X-400545Y274345D01*
X-400889Y275265D01*
X-401297Y276159D01*
X-401767Y277021D01*
X-402298Y277847D01*
X-402887Y278633D01*
X-403530Y279375D01*
X-404225Y280070D01*
X-404967Y280713D01*
X-405753Y281302D01*
X-406579Y281833D01*
X-407441Y282303D01*
X-408335Y282711D01*
X-409255Y283055D01*
X-410197Y283331D01*
X-411157Y283540D01*
X-412129Y283680D01*
X-413109Y283750D01*
X-414091Y283750D01*
X-415071Y283680D01*
X-416043Y283540D01*
X-417003Y283331D01*
X-417945Y283055D01*
X-418865Y282711D01*
X-419759Y282303D01*
X-420621Y281833D01*
X-421447Y281302D01*
X-422233Y280713D01*
X-422975Y280070D01*
X-423670Y279375D01*
X-424313Y278633D01*
X-424902Y277847D01*
X-425433Y277021D01*
X-425903Y276159D01*
X-426311Y275265D01*
X-426655Y274345D01*
X-426931Y273403D01*
X-427140Y272443D01*
X-427280Y271471D01*
X-427350Y270491D01*
X-427350Y269509D01*
X-427280Y268529D01*
X-427140Y267557D01*
X-426931Y266597D01*
X-426655Y265655D01*
X-426311Y264735D01*
X-425903Y263841D01*
X-425433Y262979D01*
X-424902Y262153D01*
X-424313Y261367D01*
X-423670Y260625D01*
X-422975Y259930D01*
X-422233Y259287D01*
X-421447Y258698D01*
X-420621Y258167D01*
X-419759Y257697D01*
X-418865Y257289D01*
X-417945Y256945D01*
X-417003Y256669D01*
X-416043Y256460D01*
X-415071Y256320D01*
X-414091Y256250D01*
X-413109Y256250D01*
X-412129Y256320D01*
X-411157Y256460D01*
X-410197Y256669D01*
X-409255Y256945D01*
X-408335Y257289D01*
X-407441Y257697D01*
X-406579Y258167D01*
X-405753Y258698D01*
X-404967Y259287D01*
X-404225Y259930D01*
X-403530Y260625D01*
X-402887Y261367D01*
X-402298Y262153D01*
X-401767Y262979D01*
X-401297Y263841D01*
X-400889Y264735D01*
X-400545Y265655D01*
X-400269Y266597D01*
X-400060Y267557D01*
X-399920Y268529D01*
X-399850Y269509D01*
M02*
