G04 EAGLE Gerber RS-274X export*
G75*
%MOMM*%
%FSLAX34Y34*%
%LPD*%
%INSilkscreen Bottom*%
%IPPOS*%
%AMOC8*
5,1,8,0,0,1.08239X$1,22.5*%
G01*
G04 Define Apertures*
%ADD10C,0.152400*%
%ADD11C,0.203200*%
%ADD12C,2.540000*%
G36*
X-47898Y153469D02*
X-48326Y153485D01*
X-48743Y153534D01*
X-49147Y153615D01*
X-49534Y153727D01*
X-49904Y153869D01*
X-50255Y154041D01*
X-50583Y154243D01*
X-50888Y154474D01*
X-51039Y154575D01*
X-51086Y154618D01*
X-51114Y154625D01*
X-51171Y154593D01*
X-51185Y154547D01*
X-51190Y154449D01*
X-51224Y154251D01*
X-51290Y154074D01*
X-51383Y153920D01*
X-51500Y153789D01*
X-51641Y153685D01*
X-51801Y153608D01*
X-51978Y153561D01*
X-52169Y153544D01*
X-52381Y153561D01*
X-52565Y153612D01*
X-52721Y153698D01*
X-52848Y153821D01*
X-52947Y153981D01*
X-53017Y154180D01*
X-53060Y154420D01*
X-53074Y154700D01*
X-53074Y154826D01*
X-53124Y169298D01*
X-53124Y169348D01*
X-53108Y169597D01*
X-53060Y169818D01*
X-52982Y170007D01*
X-52876Y170165D01*
X-52743Y170289D01*
X-52584Y170380D01*
X-52400Y170435D01*
X-52195Y170454D01*
X-51972Y170435D01*
X-51776Y170379D01*
X-51608Y170287D01*
X-51469Y170158D01*
X-51359Y169995D01*
X-51279Y169796D01*
X-51231Y169564D01*
X-51215Y169298D01*
X-51215Y164549D01*
X-51206Y164490D01*
X-51180Y164455D01*
X-51089Y164398D01*
X-51017Y164411D01*
X-50888Y164499D01*
X-50595Y164700D01*
X-50253Y164885D01*
X-49873Y165052D01*
X-49465Y165196D01*
X-49043Y165314D01*
X-48616Y165403D01*
X-48197Y165459D01*
X-47798Y165479D01*
X-47309Y165454D01*
X-46827Y165382D01*
X-46354Y165263D01*
X-45894Y165099D01*
X-45451Y164891D01*
X-45028Y164641D01*
X-44628Y164351D01*
X-44255Y164022D01*
X-43837Y163573D01*
X-43487Y163108D01*
X-43336Y162866D01*
X-43200Y162616D01*
X-43080Y162357D01*
X-42974Y162087D01*
X-42882Y161805D01*
X-42803Y161510D01*
X-42738Y161201D01*
X-42686Y160877D01*
X-42646Y160536D01*
X-42619Y160176D01*
X-42597Y159399D01*
X-42603Y159063D01*
X-42621Y158736D01*
X-42693Y158105D01*
X-42810Y157508D01*
X-42973Y156946D01*
X-43179Y156420D01*
X-43426Y155932D01*
X-43714Y155484D01*
X-44041Y155077D01*
X-44406Y154712D01*
X-44807Y154391D01*
X-45243Y154116D01*
X-45713Y153887D01*
X-46215Y153706D01*
X-46747Y153575D01*
X-47024Y153529D01*
X-47309Y153496D01*
X-47600Y153476D01*
X-47898Y153469D01*
G37*
%LPC*%
G36*
X-47898Y155379D02*
X-47699Y155385D01*
X-47498Y155406D01*
X-47094Y155486D01*
X-46695Y155614D01*
X-46309Y155787D01*
X-45944Y155999D01*
X-45609Y156248D01*
X-45311Y156528D01*
X-45059Y156836D01*
X-44904Y157053D01*
X-44778Y157278D01*
X-44677Y157520D01*
X-44600Y157791D01*
X-44545Y158098D01*
X-44508Y158454D01*
X-44487Y158867D01*
X-44481Y159348D01*
X-44481Y159600D01*
X-44496Y160080D01*
X-44523Y160492D01*
X-44565Y160848D01*
X-44626Y161160D01*
X-44707Y161441D01*
X-44813Y161702D01*
X-44946Y161955D01*
X-45109Y162213D01*
X-45359Y162533D01*
X-45635Y162814D01*
X-45936Y163055D01*
X-46262Y163255D01*
X-46610Y163413D01*
X-46978Y163527D01*
X-47366Y163596D01*
X-47773Y163620D01*
X-47997Y163612D01*
X-48218Y163592D01*
X-48435Y163557D01*
X-48648Y163510D01*
X-49059Y163376D01*
X-49446Y163192D01*
X-49807Y162962D01*
X-50136Y162687D01*
X-50431Y162369D01*
X-50687Y162012D01*
X-50847Y161732D01*
X-50971Y161478D01*
X-51064Y161226D01*
X-51130Y160950D01*
X-51174Y160624D01*
X-51199Y160224D01*
X-51215Y159097D01*
X-51208Y158659D01*
X-51187Y158282D01*
X-51147Y157953D01*
X-51086Y157662D01*
X-51000Y157398D01*
X-50886Y157150D01*
X-50741Y156908D01*
X-50561Y156660D01*
X-50314Y156388D01*
X-50029Y156142D01*
X-49712Y155923D01*
X-49397Y155751D01*
X-49371Y155737D01*
X-49012Y155585D01*
X-48643Y155473D01*
X-48269Y155403D01*
X-47898Y155379D01*
G37*
%LPD*%
G36*
X-18164Y126799D02*
X-18506Y126810D01*
X-18845Y126843D01*
X-19180Y126898D01*
X-19510Y126973D01*
X-19833Y127069D01*
X-20149Y127185D01*
X-20456Y127320D01*
X-20755Y127474D01*
X-21042Y127647D01*
X-21319Y127838D01*
X-21583Y128047D01*
X-21834Y128272D01*
X-22071Y128515D01*
X-22293Y128773D01*
X-22498Y129047D01*
X-22686Y129337D01*
X-22878Y129690D01*
X-23041Y130055D01*
X-23175Y130439D01*
X-23283Y130847D01*
X-23364Y131285D01*
X-23421Y131757D01*
X-23454Y132270D01*
X-23465Y132829D01*
X-23442Y133567D01*
X-23413Y133912D01*
X-23372Y134242D01*
X-23318Y134558D01*
X-23252Y134861D01*
X-23172Y135151D01*
X-23079Y135429D01*
X-22971Y135698D01*
X-22850Y135956D01*
X-22714Y136205D01*
X-22564Y136447D01*
X-22217Y136910D01*
X-21807Y137352D01*
X-21434Y137681D01*
X-21034Y137971D01*
X-20611Y138221D01*
X-20167Y138429D01*
X-19707Y138593D01*
X-19234Y138712D01*
X-18752Y138784D01*
X-18264Y138809D01*
X-17857Y138789D01*
X-17435Y138734D01*
X-17008Y138646D01*
X-16587Y138529D01*
X-16182Y138388D01*
X-15805Y138226D01*
X-15465Y138047D01*
X-15174Y137854D01*
X-15105Y137807D01*
X-15092Y137796D01*
X-15073Y137779D01*
X-15020Y137757D01*
X-14948Y137754D01*
X-14900Y137756D01*
X-14869Y137772D01*
X-14852Y137817D01*
X-14847Y137904D01*
X-14847Y142628D01*
X-14831Y142894D01*
X-14782Y143126D01*
X-14703Y143325D01*
X-14593Y143488D01*
X-14453Y143617D01*
X-14285Y143709D01*
X-14090Y143765D01*
X-13867Y143784D01*
X-13661Y143765D01*
X-13478Y143710D01*
X-13319Y143619D01*
X-13186Y143495D01*
X-13079Y143337D01*
X-13001Y143148D01*
X-12954Y142927D01*
X-12938Y142678D01*
X-12938Y142603D01*
X-12988Y128156D01*
X-12988Y128030D01*
X-13002Y127750D01*
X-13044Y127510D01*
X-13115Y127311D01*
X-13214Y127151D01*
X-13341Y127028D01*
X-13497Y126942D01*
X-13680Y126891D01*
X-13892Y126874D01*
X-14084Y126891D01*
X-14261Y126938D01*
X-14422Y127016D01*
X-14564Y127122D01*
X-14685Y127256D01*
X-14783Y127415D01*
X-14854Y127598D01*
X-14897Y127804D01*
X-14905Y127863D01*
X-14926Y127898D01*
X-14973Y127955D01*
X-15010Y127948D01*
X-15048Y127905D01*
X-15174Y127779D01*
X-15478Y127556D01*
X-15807Y127361D01*
X-16157Y127193D01*
X-16527Y127053D01*
X-16915Y126943D01*
X-17318Y126864D01*
X-17735Y126815D01*
X-18164Y126799D01*
G37*
%LPC*%
G36*
X-18164Y128709D02*
X-17793Y128732D01*
X-17422Y128799D01*
X-17056Y128909D01*
X-16700Y129057D01*
X-16361Y129242D01*
X-16044Y129461D01*
X-15755Y129711D01*
X-15500Y129990D01*
X-15306Y130242D01*
X-15154Y130482D01*
X-15040Y130731D01*
X-14957Y131007D01*
X-14901Y131331D01*
X-14868Y131721D01*
X-14851Y132197D01*
X-14847Y132779D01*
X-14862Y133709D01*
X-14888Y134053D01*
X-14932Y134343D01*
X-14998Y134597D01*
X-15091Y134835D01*
X-15215Y135077D01*
X-15375Y135342D01*
X-15638Y135699D01*
X-15936Y136017D01*
X-16266Y136292D01*
X-16625Y136522D01*
X-16726Y136571D01*
X-17009Y136706D01*
X-17417Y136840D01*
X-17628Y136887D01*
X-17844Y136922D01*
X-18065Y136942D01*
X-18289Y136950D01*
X-18688Y136926D01*
X-19073Y136857D01*
X-19441Y136743D01*
X-19790Y136585D01*
X-20119Y136385D01*
X-20423Y136144D01*
X-20702Y135863D01*
X-20952Y135543D01*
X-21115Y135285D01*
X-21248Y135032D01*
X-21354Y134771D01*
X-21436Y134490D01*
X-21497Y134178D01*
X-21539Y133822D01*
X-21566Y133410D01*
X-21581Y132930D01*
X-21581Y132678D01*
X-21574Y132207D01*
X-21554Y131802D01*
X-21517Y131453D01*
X-21461Y131149D01*
X-21384Y130879D01*
X-21284Y130633D01*
X-21157Y130398D01*
X-21003Y130166D01*
X-20757Y129865D01*
X-20460Y129588D01*
X-20122Y129340D01*
X-19753Y129126D01*
X-19362Y128951D01*
X-18960Y128820D01*
X-18558Y128737D01*
X-18359Y128716D01*
X-18164Y128709D01*
G37*
%LPD*%
G36*
X-127605Y153645D02*
X-128044Y153663D01*
X-128475Y153716D01*
X-128899Y153805D01*
X-129313Y153931D01*
X-129718Y154093D01*
X-130113Y154291D01*
X-130498Y154527D01*
X-130871Y154801D01*
X-130990Y154889D01*
X-131072Y154901D01*
X-131144Y154892D01*
X-131174Y154869D01*
X-131198Y154826D01*
X-131362Y154577D01*
X-131537Y154360D01*
X-131720Y154175D01*
X-131914Y154022D01*
X-132116Y153902D01*
X-132328Y153815D01*
X-132550Y153763D01*
X-132780Y153745D01*
X-132954Y153766D01*
X-133115Y153825D01*
X-133260Y153918D01*
X-133387Y154041D01*
X-133490Y154189D01*
X-133568Y154360D01*
X-133617Y154548D01*
X-133635Y154750D01*
X-133620Y154919D01*
X-133572Y155080D01*
X-133486Y155227D01*
X-133358Y155353D01*
X-133258Y155454D01*
X-133049Y155675D01*
X-132909Y155900D01*
X-132862Y156022D01*
X-132830Y156153D01*
X-132812Y156298D01*
X-132806Y156459D01*
X-132806Y164549D01*
X-132788Y164757D01*
X-132738Y164946D01*
X-132657Y165113D01*
X-132548Y165256D01*
X-132413Y165371D01*
X-132254Y165457D01*
X-132075Y165511D01*
X-131876Y165529D01*
X-131721Y165516D01*
X-131576Y165479D01*
X-131443Y165419D01*
X-131323Y165337D01*
X-131217Y165236D01*
X-131127Y165116D01*
X-131053Y164978D01*
X-130997Y164826D01*
X-130958Y164702D01*
X-130915Y164628D01*
X-130862Y164596D01*
X-130796Y164599D01*
X-130723Y164603D01*
X-130670Y164625D01*
X-130616Y164631D01*
X-130544Y164675D01*
X-130158Y164901D01*
X-129788Y165092D01*
X-129429Y165248D01*
X-129074Y165372D01*
X-128720Y165465D01*
X-128361Y165530D01*
X-127991Y165567D01*
X-127605Y165579D01*
X-127300Y165571D01*
X-127000Y165548D01*
X-126704Y165509D01*
X-126414Y165454D01*
X-126128Y165384D01*
X-125850Y165300D01*
X-125577Y165200D01*
X-125312Y165086D01*
X-125054Y164958D01*
X-124805Y164815D01*
X-124564Y164658D01*
X-124333Y164487D01*
X-124111Y164303D01*
X-123900Y164105D01*
X-123699Y163894D01*
X-123509Y163670D01*
X-123196Y163254D01*
X-122931Y162830D01*
X-122714Y162389D01*
X-122542Y161924D01*
X-122412Y161425D01*
X-122322Y160886D01*
X-122270Y160297D01*
X-122253Y159650D01*
X-122270Y158993D01*
X-122321Y158392D01*
X-122409Y157842D01*
X-122536Y157335D01*
X-122702Y156865D01*
X-122910Y156424D01*
X-123162Y156006D01*
X-123459Y155605D01*
X-123650Y155384D01*
X-123855Y155174D01*
X-124072Y154976D01*
X-124301Y154790D01*
X-124791Y154455D01*
X-125315Y154173D01*
X-125588Y154052D01*
X-125867Y153947D01*
X-126150Y153856D01*
X-126437Y153781D01*
X-126728Y153722D01*
X-127019Y153680D01*
X-127312Y153654D01*
X-127605Y153645D01*
G37*
%LPC*%
G36*
X-127605Y155504D02*
X-127347Y155514D01*
X-127091Y155543D01*
X-126840Y155591D01*
X-126595Y155656D01*
X-126355Y155739D01*
X-126123Y155838D01*
X-125899Y155953D01*
X-125686Y156082D01*
X-125483Y156226D01*
X-125292Y156383D01*
X-125114Y156552D01*
X-124951Y156734D01*
X-124803Y156926D01*
X-124672Y157130D01*
X-124559Y157342D01*
X-124464Y157564D01*
X-124347Y157973D01*
X-124260Y158475D01*
X-124206Y159062D01*
X-124188Y159725D01*
X-124206Y160447D01*
X-124230Y160743D01*
X-124263Y160981D01*
X-124332Y161274D01*
X-124426Y161556D01*
X-124543Y161827D01*
X-124682Y162085D01*
X-124842Y162330D01*
X-125021Y162559D01*
X-125218Y162773D01*
X-125431Y162969D01*
X-125660Y163147D01*
X-125903Y163305D01*
X-126158Y163442D01*
X-126425Y163557D01*
X-126702Y163649D01*
X-126988Y163715D01*
X-127281Y163756D01*
X-127580Y163770D01*
X-127945Y163749D01*
X-128305Y163687D01*
X-128655Y163586D01*
X-128993Y163447D01*
X-129314Y163271D01*
X-129615Y163060D01*
X-129892Y162816D01*
X-130142Y162539D01*
X-130348Y162273D01*
X-130514Y162013D01*
X-130646Y161747D01*
X-130745Y161462D01*
X-130817Y161145D01*
X-130863Y160783D01*
X-130888Y160364D01*
X-130896Y159876D01*
X-130896Y159625D01*
X-130891Y159123D01*
X-130873Y158699D01*
X-130839Y158338D01*
X-130786Y158023D01*
X-130711Y157739D01*
X-130610Y157469D01*
X-130480Y157199D01*
X-130318Y156911D01*
X-130096Y156605D01*
X-129831Y156331D01*
X-129526Y156091D01*
X-129188Y155887D01*
X-128821Y155724D01*
X-128431Y155604D01*
X-128024Y155530D01*
X-127816Y155511D01*
X-127605Y155504D01*
G37*
%LPD*%
G36*
X-96230Y126975D02*
X-96669Y126993D01*
X-97100Y127046D01*
X-97524Y127135D01*
X-97938Y127261D01*
X-98343Y127423D01*
X-98738Y127621D01*
X-99123Y127857D01*
X-99496Y128131D01*
X-99615Y128219D01*
X-99697Y128231D01*
X-99769Y128222D01*
X-99799Y128199D01*
X-99823Y128156D01*
X-99987Y127907D01*
X-100162Y127690D01*
X-100345Y127505D01*
X-100539Y127352D01*
X-100741Y127232D01*
X-100953Y127145D01*
X-101175Y127093D01*
X-101405Y127075D01*
X-101579Y127096D01*
X-101740Y127155D01*
X-101885Y127248D01*
X-102012Y127371D01*
X-102115Y127519D01*
X-102193Y127690D01*
X-102242Y127878D01*
X-102260Y128080D01*
X-102245Y128249D01*
X-102197Y128410D01*
X-102111Y128557D01*
X-101983Y128683D01*
X-101883Y128784D01*
X-101674Y129005D01*
X-101534Y129230D01*
X-101487Y129352D01*
X-101455Y129483D01*
X-101437Y129628D01*
X-101431Y129789D01*
X-101431Y137879D01*
X-101413Y138087D01*
X-101363Y138276D01*
X-101282Y138443D01*
X-101173Y138586D01*
X-101038Y138701D01*
X-100879Y138787D01*
X-100700Y138841D01*
X-100501Y138859D01*
X-100346Y138846D01*
X-100201Y138809D01*
X-100068Y138749D01*
X-99948Y138667D01*
X-99842Y138566D01*
X-99752Y138446D01*
X-99678Y138308D01*
X-99622Y138156D01*
X-99583Y138032D01*
X-99540Y137958D01*
X-99487Y137926D01*
X-99421Y137929D01*
X-99348Y137933D01*
X-99295Y137955D01*
X-99241Y137961D01*
X-99169Y138005D01*
X-98783Y138231D01*
X-98413Y138422D01*
X-98054Y138578D01*
X-97699Y138702D01*
X-97345Y138795D01*
X-96986Y138860D01*
X-96616Y138897D01*
X-96230Y138909D01*
X-95925Y138901D01*
X-95625Y138878D01*
X-95329Y138839D01*
X-95039Y138784D01*
X-94753Y138714D01*
X-94475Y138630D01*
X-94202Y138530D01*
X-93937Y138416D01*
X-93679Y138288D01*
X-93430Y138145D01*
X-93189Y137988D01*
X-92958Y137817D01*
X-92736Y137633D01*
X-92525Y137435D01*
X-92324Y137224D01*
X-92134Y137000D01*
X-91821Y136584D01*
X-91556Y136160D01*
X-91339Y135719D01*
X-91167Y135254D01*
X-91037Y134755D01*
X-90947Y134216D01*
X-90895Y133627D01*
X-90878Y132980D01*
X-90895Y132323D01*
X-90946Y131722D01*
X-91034Y131172D01*
X-91161Y130665D01*
X-91327Y130195D01*
X-91535Y129754D01*
X-91787Y129336D01*
X-92084Y128935D01*
X-92275Y128714D01*
X-92480Y128504D01*
X-92697Y128306D01*
X-92926Y128120D01*
X-93416Y127785D01*
X-93940Y127503D01*
X-94213Y127382D01*
X-94492Y127277D01*
X-94775Y127186D01*
X-95062Y127111D01*
X-95353Y127052D01*
X-95644Y127010D01*
X-95937Y126984D01*
X-96230Y126975D01*
G37*
%LPC*%
G36*
X-96230Y128834D02*
X-95972Y128844D01*
X-95716Y128873D01*
X-95465Y128921D01*
X-95220Y128986D01*
X-94980Y129069D01*
X-94748Y129168D01*
X-94524Y129283D01*
X-94311Y129412D01*
X-94108Y129556D01*
X-93917Y129713D01*
X-93739Y129882D01*
X-93576Y130064D01*
X-93428Y130256D01*
X-93297Y130460D01*
X-93184Y130672D01*
X-93089Y130894D01*
X-92972Y131303D01*
X-92885Y131805D01*
X-92831Y132392D01*
X-92813Y133055D01*
X-92831Y133777D01*
X-92855Y134073D01*
X-92888Y134311D01*
X-92957Y134604D01*
X-93051Y134886D01*
X-93168Y135157D01*
X-93307Y135415D01*
X-93467Y135660D01*
X-93646Y135889D01*
X-93843Y136103D01*
X-94056Y136299D01*
X-94285Y136477D01*
X-94528Y136635D01*
X-94783Y136772D01*
X-95050Y136887D01*
X-95327Y136979D01*
X-95613Y137045D01*
X-95906Y137086D01*
X-96205Y137100D01*
X-96570Y137079D01*
X-96930Y137017D01*
X-97280Y136916D01*
X-97618Y136777D01*
X-97939Y136601D01*
X-98240Y136390D01*
X-98517Y136146D01*
X-98767Y135869D01*
X-98973Y135603D01*
X-99139Y135343D01*
X-99271Y135077D01*
X-99370Y134792D01*
X-99442Y134475D01*
X-99488Y134113D01*
X-99513Y133694D01*
X-99521Y133206D01*
X-99521Y132955D01*
X-99516Y132453D01*
X-99498Y132029D01*
X-99464Y131668D01*
X-99411Y131353D01*
X-99336Y131069D01*
X-99235Y130799D01*
X-99105Y130529D01*
X-98943Y130241D01*
X-98721Y129935D01*
X-98456Y129661D01*
X-98151Y129421D01*
X-97813Y129217D01*
X-97446Y129054D01*
X-97056Y128934D01*
X-96649Y128860D01*
X-96441Y128841D01*
X-96230Y128834D01*
G37*
%LPD*%
G36*
X-34636Y153645D02*
X-35075Y153663D01*
X-35507Y153716D01*
X-35930Y153805D01*
X-36344Y153931D01*
X-36749Y154093D01*
X-37144Y154291D01*
X-37529Y154527D01*
X-37902Y154801D01*
X-38021Y154889D01*
X-38103Y154901D01*
X-38175Y154892D01*
X-38206Y154869D01*
X-38229Y154826D01*
X-38394Y154577D01*
X-38568Y154360D01*
X-38752Y154175D01*
X-38945Y154022D01*
X-39147Y153902D01*
X-39359Y153815D01*
X-39581Y153763D01*
X-39812Y153745D01*
X-39985Y153766D01*
X-40146Y153825D01*
X-40292Y153918D01*
X-40418Y154041D01*
X-40521Y154189D01*
X-40600Y154360D01*
X-40649Y154548D01*
X-40666Y154750D01*
X-40651Y154919D01*
X-40603Y155080D01*
X-40517Y155227D01*
X-40390Y155353D01*
X-40289Y155454D01*
X-40081Y155675D01*
X-39940Y155900D01*
X-39894Y156022D01*
X-39861Y156153D01*
X-39843Y156298D01*
X-39837Y156459D01*
X-39837Y164549D01*
X-39819Y164757D01*
X-39769Y164946D01*
X-39688Y165113D01*
X-39579Y165256D01*
X-39444Y165371D01*
X-39286Y165457D01*
X-39106Y165511D01*
X-38907Y165529D01*
X-38752Y165516D01*
X-38607Y165479D01*
X-38474Y165419D01*
X-38354Y165337D01*
X-38249Y165236D01*
X-38158Y165116D01*
X-38084Y164978D01*
X-38028Y164826D01*
X-37989Y164702D01*
X-37946Y164628D01*
X-37893Y164596D01*
X-37827Y164599D01*
X-37755Y164603D01*
X-37701Y164625D01*
X-37648Y164631D01*
X-37576Y164675D01*
X-37189Y164901D01*
X-36819Y165092D01*
X-36460Y165248D01*
X-36106Y165372D01*
X-35751Y165465D01*
X-35392Y165530D01*
X-35022Y165567D01*
X-34636Y165579D01*
X-34332Y165571D01*
X-34031Y165548D01*
X-33735Y165509D01*
X-33445Y165454D01*
X-33160Y165384D01*
X-32881Y165300D01*
X-32608Y165200D01*
X-32343Y165086D01*
X-32086Y164958D01*
X-31836Y164815D01*
X-31596Y164658D01*
X-31364Y164487D01*
X-31142Y164303D01*
X-30931Y164105D01*
X-30730Y163894D01*
X-30541Y163670D01*
X-30227Y163254D01*
X-29963Y162830D01*
X-29746Y162389D01*
X-29573Y161924D01*
X-29443Y161425D01*
X-29353Y160886D01*
X-29301Y160297D01*
X-29284Y159650D01*
X-29301Y158993D01*
X-29353Y158392D01*
X-29441Y157842D01*
X-29567Y157335D01*
X-29733Y156865D01*
X-29941Y156424D01*
X-30193Y156006D01*
X-30490Y155605D01*
X-30681Y155384D01*
X-30886Y155174D01*
X-31103Y154976D01*
X-31332Y154790D01*
X-31822Y154455D01*
X-32346Y154173D01*
X-32619Y154052D01*
X-32898Y153947D01*
X-33181Y153856D01*
X-33469Y153781D01*
X-33759Y153722D01*
X-34051Y153680D01*
X-34343Y153654D01*
X-34636Y153645D01*
G37*
%LPC*%
G36*
X-34636Y155504D02*
X-34378Y155514D01*
X-34123Y155543D01*
X-33872Y155591D01*
X-33626Y155656D01*
X-33386Y155739D01*
X-33154Y155838D01*
X-32931Y155953D01*
X-32717Y156082D01*
X-32514Y156226D01*
X-32323Y156383D01*
X-32146Y156552D01*
X-31982Y156734D01*
X-31835Y156926D01*
X-31703Y157130D01*
X-31590Y157342D01*
X-31495Y157564D01*
X-31378Y157973D01*
X-31291Y158475D01*
X-31237Y159062D01*
X-31219Y159725D01*
X-31238Y160447D01*
X-31261Y160743D01*
X-31294Y160981D01*
X-31364Y161274D01*
X-31457Y161556D01*
X-31574Y161827D01*
X-31714Y162085D01*
X-31873Y162330D01*
X-32052Y162559D01*
X-32249Y162773D01*
X-32463Y162969D01*
X-32691Y163147D01*
X-32934Y163305D01*
X-33190Y163442D01*
X-33457Y163557D01*
X-33733Y163649D01*
X-34019Y163715D01*
X-34312Y163756D01*
X-34611Y163770D01*
X-34976Y163749D01*
X-35336Y163687D01*
X-35687Y163586D01*
X-36024Y163447D01*
X-36345Y163271D01*
X-36646Y163060D01*
X-36923Y162816D01*
X-37174Y162539D01*
X-37379Y162273D01*
X-37546Y162013D01*
X-37677Y161747D01*
X-37777Y161462D01*
X-37848Y161145D01*
X-37894Y160783D01*
X-37920Y160364D01*
X-37927Y159876D01*
X-37927Y159625D01*
X-37922Y159123D01*
X-37904Y158699D01*
X-37870Y158338D01*
X-37817Y158023D01*
X-37742Y157739D01*
X-37641Y157469D01*
X-37511Y157199D01*
X-37349Y156911D01*
X-37128Y156605D01*
X-36862Y156331D01*
X-36557Y156091D01*
X-36219Y155887D01*
X-35852Y155724D01*
X-35463Y155604D01*
X-35055Y155530D01*
X-34847Y155511D01*
X-34636Y155504D01*
G37*
%LPD*%
G36*
X-80035Y153645D02*
X-80327Y153652D01*
X-80612Y153673D01*
X-80891Y153707D01*
X-81164Y153755D01*
X-81430Y153817D01*
X-81689Y153891D01*
X-82185Y154077D01*
X-82651Y154313D01*
X-83085Y154596D01*
X-83486Y154925D01*
X-83851Y155297D01*
X-84180Y155711D01*
X-84470Y156165D01*
X-84720Y156657D01*
X-84929Y157185D01*
X-85094Y157748D01*
X-85214Y158343D01*
X-85287Y158970D01*
X-85305Y159294D01*
X-85312Y159625D01*
X-85312Y159826D01*
X-85273Y160463D01*
X-85188Y161075D01*
X-85058Y161658D01*
X-84884Y162211D01*
X-84668Y162731D01*
X-84413Y163218D01*
X-84120Y163667D01*
X-83792Y164078D01*
X-83429Y164448D01*
X-83033Y164776D01*
X-82607Y165059D01*
X-82153Y165295D01*
X-81672Y165482D01*
X-81166Y165619D01*
X-80904Y165667D01*
X-80636Y165702D01*
X-80363Y165723D01*
X-80086Y165730D01*
X-79738Y165718D01*
X-79394Y165683D01*
X-79054Y165624D01*
X-78719Y165542D01*
X-78390Y165436D01*
X-78068Y165306D01*
X-77754Y165153D01*
X-77448Y164976D01*
X-77095Y164752D01*
X-76770Y164521D01*
X-76474Y164281D01*
X-76205Y164032D01*
X-75961Y163771D01*
X-75744Y163498D01*
X-75550Y163210D01*
X-75381Y162907D01*
X-75235Y162586D01*
X-75110Y162246D01*
X-75007Y161885D01*
X-74925Y161503D01*
X-74862Y161097D01*
X-74818Y160667D01*
X-74793Y160210D01*
X-74784Y159725D01*
X-74802Y159066D01*
X-74853Y158450D01*
X-74933Y157881D01*
X-75036Y157363D01*
X-75157Y156966D01*
X-75313Y156583D01*
X-75502Y156218D01*
X-75721Y155871D01*
X-75969Y155543D01*
X-76244Y155237D01*
X-76544Y154954D01*
X-76866Y154694D01*
X-77210Y154459D01*
X-77572Y154252D01*
X-77952Y154072D01*
X-78346Y153922D01*
X-78754Y153803D01*
X-79172Y153716D01*
X-79600Y153663D01*
X-80035Y153645D01*
G37*
%LPC*%
G36*
X-80061Y155529D02*
X-79762Y155543D01*
X-79469Y155583D01*
X-79184Y155648D01*
X-78907Y155738D01*
X-78642Y155850D01*
X-78388Y155984D01*
X-78147Y156138D01*
X-77922Y156311D01*
X-77712Y156503D01*
X-77520Y156711D01*
X-77347Y156934D01*
X-77195Y157172D01*
X-77065Y157423D01*
X-76958Y157686D01*
X-76875Y157960D01*
X-76819Y158243D01*
X-76782Y158582D01*
X-76750Y159037D01*
X-76728Y159554D01*
X-76719Y160077D01*
X-76738Y160796D01*
X-76761Y161077D01*
X-76794Y161308D01*
X-76855Y161572D01*
X-76941Y161827D01*
X-77052Y162072D01*
X-77185Y162305D01*
X-77341Y162525D01*
X-77517Y162732D01*
X-77712Y162925D01*
X-77925Y163101D01*
X-78154Y163261D01*
X-78399Y163403D01*
X-78657Y163526D01*
X-78928Y163629D01*
X-79210Y163711D01*
X-79502Y163771D01*
X-79803Y163808D01*
X-80111Y163821D01*
X-80487Y163805D01*
X-80842Y163757D01*
X-81175Y163679D01*
X-81487Y163570D01*
X-81777Y163431D01*
X-82044Y163263D01*
X-82289Y163065D01*
X-82510Y162837D01*
X-82708Y162582D01*
X-82882Y162298D01*
X-83031Y161986D01*
X-83156Y161648D01*
X-83256Y161282D01*
X-83331Y160889D01*
X-83380Y160471D01*
X-83402Y160027D01*
X-83402Y159801D01*
X-83393Y159292D01*
X-83364Y158824D01*
X-83317Y158398D01*
X-83251Y158017D01*
X-83178Y157753D01*
X-83082Y157499D01*
X-82965Y157255D01*
X-82827Y157024D01*
X-82670Y156805D01*
X-82496Y156600D01*
X-82305Y156410D01*
X-82099Y156236D01*
X-81879Y156078D01*
X-81646Y155939D01*
X-81403Y155818D01*
X-81149Y155717D01*
X-80887Y155636D01*
X-80617Y155577D01*
X-80341Y155541D01*
X-80061Y155529D01*
G37*
%LPD*%
G36*
X-14068Y153595D02*
X-14288Y153614D01*
X-14478Y153671D01*
X-14638Y153768D01*
X-14768Y153906D01*
X-14869Y154084D01*
X-14941Y154305D01*
X-14984Y154568D01*
X-14998Y154876D01*
X-14998Y165102D01*
X-15002Y165160D01*
X-15017Y165193D01*
X-15073Y165228D01*
X-15108Y165215D01*
X-15119Y165213D01*
X-15123Y165202D01*
X-15174Y165102D01*
X-15199Y165077D01*
X-18792Y157966D01*
X-18931Y157704D01*
X-19068Y157480D01*
X-19204Y157293D01*
X-19341Y157144D01*
X-19482Y157029D01*
X-19629Y156949D01*
X-19783Y156902D01*
X-19947Y156886D01*
X-20112Y156899D01*
X-20269Y156939D01*
X-20416Y157005D01*
X-20557Y157100D01*
X-20690Y157222D01*
X-20817Y157374D01*
X-20937Y157554D01*
X-21053Y157765D01*
X-21128Y157941D01*
X-24646Y165027D01*
X-24646Y165052D01*
X-24696Y165152D01*
X-24756Y165243D01*
X-24797Y165278D01*
X-24833Y165251D01*
X-24866Y165174D01*
X-24888Y165055D01*
X-24897Y164901D01*
X-24897Y164876D01*
X-24922Y154801D01*
X-24922Y154650D01*
X-24937Y154427D01*
X-24982Y154232D01*
X-25055Y154064D01*
X-25155Y153924D01*
X-25280Y153814D01*
X-25431Y153735D01*
X-25605Y153686D01*
X-25802Y153670D01*
X-26008Y153688D01*
X-26194Y153742D01*
X-26358Y153829D01*
X-26496Y153946D01*
X-26607Y154092D01*
X-26688Y154264D01*
X-26739Y154459D01*
X-26756Y154675D01*
X-26756Y169298D01*
X-26743Y169596D01*
X-26704Y169850D01*
X-26638Y170063D01*
X-26546Y170234D01*
X-26426Y170365D01*
X-26279Y170457D01*
X-26105Y170511D01*
X-25902Y170529D01*
X-25738Y170514D01*
X-25584Y170469D01*
X-25437Y170391D01*
X-25296Y170278D01*
X-25158Y170126D01*
X-25022Y169935D01*
X-24886Y169702D01*
X-24746Y169423D01*
X-24721Y169373D01*
X-20098Y160177D01*
X-20057Y160118D01*
X-20013Y160083D01*
X-19947Y160027D01*
X-19913Y160030D01*
X-19897Y160052D01*
X-19797Y160152D01*
X-15149Y169323D01*
X-15073Y169449D01*
X-14783Y169959D01*
X-14652Y170139D01*
X-14524Y170274D01*
X-14391Y170371D01*
X-14250Y170434D01*
X-14094Y170468D01*
X-13917Y170479D01*
X-13717Y170464D01*
X-13548Y170420D01*
X-13409Y170345D01*
X-13299Y170237D01*
X-13215Y170095D01*
X-13158Y169917D01*
X-13124Y169702D01*
X-13113Y169449D01*
X-13113Y154650D01*
X-13131Y154417D01*
X-13181Y154209D01*
X-13263Y154029D01*
X-13374Y153877D01*
X-13512Y153756D01*
X-13675Y153668D01*
X-13861Y153613D01*
X-14068Y153595D01*
G37*
G36*
X-109513Y153670D02*
X-119362Y153670D01*
X-119555Y153688D01*
X-119734Y153741D01*
X-119896Y153826D01*
X-120037Y153940D01*
X-120154Y154080D01*
X-120242Y154242D01*
X-120297Y154425D01*
X-120317Y154625D01*
X-120297Y154838D01*
X-120238Y155024D01*
X-120141Y155184D01*
X-120006Y155316D01*
X-119835Y155419D01*
X-119628Y155494D01*
X-119386Y155539D01*
X-119111Y155554D01*
X-110443Y155554D01*
X-110340Y155568D01*
X-110260Y155605D01*
X-110209Y155660D01*
X-110191Y155730D01*
X-110191Y155856D01*
X-110217Y160906D01*
X-110217Y161057D01*
X-110235Y161127D01*
X-110286Y161182D01*
X-110365Y161219D01*
X-110468Y161233D01*
X-110568Y161233D01*
X-117553Y161208D01*
X-117654Y161208D01*
X-117862Y161226D01*
X-118050Y161279D01*
X-118217Y161365D01*
X-118360Y161481D01*
X-118476Y161623D01*
X-118562Y161790D01*
X-118615Y161979D01*
X-118633Y162187D01*
X-118614Y162376D01*
X-118556Y162543D01*
X-118462Y162690D01*
X-118335Y162812D01*
X-118176Y162910D01*
X-117987Y162982D01*
X-117770Y163027D01*
X-117528Y163042D01*
X-117402Y163042D01*
X-110694Y163067D01*
X-110593Y163067D01*
X-110436Y163078D01*
X-110336Y163120D01*
X-110282Y163205D01*
X-110267Y163343D01*
X-110267Y168469D01*
X-110287Y168597D01*
X-110352Y168682D01*
X-110468Y168730D01*
X-110644Y168745D01*
X-119312Y168745D01*
X-119552Y168759D01*
X-119763Y168802D01*
X-119944Y168872D01*
X-120094Y168971D01*
X-120212Y169098D01*
X-120298Y169254D01*
X-120349Y169438D01*
X-120367Y169650D01*
X-120348Y169855D01*
X-120294Y170039D01*
X-120204Y170198D01*
X-120081Y170331D01*
X-119927Y170437D01*
X-119742Y170515D01*
X-119528Y170563D01*
X-119287Y170579D01*
X-119186Y170579D01*
X-110191Y170629D01*
X-110041Y170629D01*
X-109581Y170617D01*
X-109213Y170577D01*
X-109061Y170543D01*
X-108928Y170500D01*
X-108813Y170445D01*
X-108715Y170378D01*
X-108634Y170298D01*
X-108566Y170205D01*
X-108513Y170096D01*
X-108472Y169972D01*
X-108422Y169672D01*
X-108408Y169298D01*
X-108408Y169172D01*
X-108332Y154851D01*
X-108332Y154826D01*
X-108346Y154516D01*
X-108389Y154264D01*
X-108467Y154063D01*
X-108583Y153909D01*
X-108742Y153797D01*
X-108947Y153723D01*
X-109203Y153683D01*
X-109513Y153670D01*
G37*
G36*
X-74080Y126925D02*
X-74308Y126945D01*
X-74505Y127006D01*
X-74669Y127109D01*
X-74802Y127254D01*
X-74905Y127444D01*
X-74977Y127677D01*
X-75020Y127956D01*
X-75035Y128281D01*
X-75035Y134010D01*
X-75044Y134366D01*
X-75072Y134699D01*
X-75119Y135009D01*
X-75185Y135296D01*
X-75270Y135560D01*
X-75374Y135801D01*
X-75496Y136019D01*
X-75637Y136215D01*
X-75798Y136387D01*
X-75977Y136536D01*
X-76175Y136662D01*
X-76391Y136766D01*
X-76627Y136846D01*
X-76881Y136904D01*
X-77154Y136938D01*
X-77447Y136950D01*
X-77729Y136938D01*
X-77994Y136905D01*
X-78241Y136849D01*
X-78469Y136770D01*
X-78679Y136670D01*
X-78870Y136547D01*
X-79044Y136401D01*
X-79199Y136233D01*
X-79336Y136043D01*
X-79455Y135831D01*
X-79555Y135596D01*
X-79637Y135338D01*
X-79701Y135059D01*
X-79747Y134757D01*
X-79774Y134432D01*
X-79783Y134085D01*
X-79783Y128005D01*
X-79800Y127764D01*
X-79851Y127550D01*
X-79933Y127365D01*
X-80044Y127210D01*
X-80182Y127088D01*
X-80345Y126998D01*
X-80531Y126943D01*
X-80738Y126925D01*
X-80946Y126944D01*
X-81135Y127002D01*
X-81302Y127094D01*
X-81445Y127220D01*
X-81560Y127376D01*
X-81646Y127561D01*
X-81699Y127771D01*
X-81718Y128005D01*
X-81718Y134060D01*
X-81728Y134399D01*
X-81759Y134718D01*
X-81809Y135017D01*
X-81880Y135296D01*
X-81970Y135554D01*
X-82079Y135791D01*
X-82208Y136007D01*
X-82355Y136202D01*
X-82521Y136375D01*
X-82705Y136526D01*
X-82908Y136654D01*
X-83127Y136759D01*
X-83365Y136842D01*
X-83620Y136902D01*
X-83891Y136937D01*
X-84180Y136950D01*
X-84460Y136939D01*
X-84724Y136906D01*
X-84972Y136853D01*
X-85203Y136779D01*
X-85419Y136685D01*
X-85617Y136571D01*
X-85798Y136437D01*
X-85961Y136284D01*
X-86106Y136112D01*
X-86233Y135921D01*
X-86341Y135713D01*
X-86431Y135487D01*
X-86501Y135243D01*
X-86551Y134983D01*
X-86582Y134705D01*
X-86592Y134412D01*
X-86592Y128030D01*
X-86608Y127781D01*
X-86656Y127561D01*
X-86734Y127371D01*
X-86840Y127214D01*
X-86974Y127089D01*
X-87133Y126998D01*
X-87316Y126943D01*
X-87522Y126925D01*
X-87739Y126944D01*
X-87937Y127002D01*
X-88113Y127097D01*
X-88263Y127226D01*
X-88385Y127388D01*
X-88476Y127582D01*
X-88532Y127805D01*
X-88552Y128055D01*
X-88552Y134789D01*
X-88530Y135215D01*
X-88466Y135627D01*
X-88362Y136023D01*
X-88219Y136400D01*
X-88040Y136757D01*
X-87826Y137092D01*
X-87579Y137404D01*
X-87302Y137691D01*
X-86996Y137950D01*
X-86662Y138181D01*
X-86304Y138381D01*
X-85923Y138548D01*
X-85521Y138681D01*
X-85099Y138779D01*
X-84660Y138839D01*
X-84205Y138859D01*
X-83774Y138839D01*
X-83350Y138780D01*
X-82933Y138681D01*
X-82525Y138545D01*
X-82128Y138371D01*
X-81742Y138159D01*
X-81371Y137912D01*
X-81014Y137628D01*
X-80892Y137527D01*
X-80841Y137508D01*
X-80788Y137502D01*
X-80730Y137509D01*
X-80663Y137534D01*
X-80462Y137678D01*
X-80131Y137944D01*
X-79782Y138177D01*
X-79417Y138375D01*
X-79039Y138539D01*
X-78650Y138667D01*
X-78253Y138759D01*
X-77851Y138815D01*
X-77447Y138834D01*
X-77161Y138826D01*
X-76887Y138801D01*
X-76623Y138758D01*
X-76366Y138699D01*
X-76114Y138622D01*
X-75864Y138526D01*
X-75361Y138281D01*
X-75163Y138171D01*
X-75103Y138150D01*
X-75060Y138156D01*
X-74987Y138168D01*
X-74957Y138198D01*
X-74934Y138256D01*
X-74859Y138331D01*
X-74702Y138525D01*
X-74529Y138658D01*
X-74332Y138734D01*
X-74223Y138753D01*
X-74105Y138759D01*
X-73882Y138739D01*
X-73687Y138680D01*
X-73519Y138584D01*
X-73379Y138451D01*
X-73269Y138282D01*
X-73190Y138080D01*
X-73141Y137845D01*
X-73125Y137578D01*
X-73125Y128206D01*
X-73138Y127884D01*
X-73179Y127614D01*
X-73248Y127392D01*
X-73348Y127217D01*
X-73480Y127085D01*
X-73644Y126994D01*
X-73844Y126942D01*
X-74080Y126925D01*
G37*
G36*
X-60723Y153595D02*
X-61214Y153615D01*
X-61690Y153675D01*
X-62151Y153776D01*
X-62598Y153918D01*
X-63032Y154101D01*
X-63454Y154326D01*
X-63865Y154593D01*
X-64265Y154901D01*
X-64485Y155101D01*
X-64624Y155297D01*
X-64667Y155397D01*
X-64697Y155502D01*
X-64718Y155730D01*
X-64702Y155928D01*
X-64655Y156105D01*
X-64579Y156259D01*
X-64476Y156390D01*
X-64348Y156494D01*
X-64198Y156571D01*
X-64028Y156619D01*
X-63838Y156635D01*
X-63651Y156623D01*
X-63487Y156581D01*
X-63323Y156497D01*
X-63135Y156358D01*
X-62852Y156139D01*
X-62568Y155952D01*
X-62280Y155796D01*
X-61989Y155671D01*
X-61691Y155574D01*
X-61386Y155507D01*
X-61072Y155467D01*
X-60748Y155454D01*
X-60434Y155471D01*
X-60123Y155519D01*
X-59819Y155598D01*
X-59524Y155706D01*
X-59239Y155839D01*
X-58968Y155996D01*
X-58712Y156175D01*
X-58474Y156374D01*
X-58256Y156591D01*
X-58060Y156824D01*
X-57889Y157071D01*
X-57745Y157330D01*
X-57630Y157599D01*
X-57546Y157875D01*
X-57496Y158158D01*
X-57482Y158444D01*
X-57488Y158517D01*
X-57510Y158557D01*
X-57633Y158595D01*
X-57884Y158595D01*
X-64542Y158620D01*
X-64937Y158637D01*
X-65108Y158661D01*
X-65261Y158695D01*
X-65398Y158742D01*
X-65519Y158801D01*
X-65625Y158874D01*
X-65716Y158962D01*
X-65795Y159065D01*
X-65860Y159185D01*
X-65913Y159323D01*
X-65955Y159478D01*
X-66008Y159848D01*
X-66024Y160303D01*
X-66017Y160577D01*
X-65997Y160847D01*
X-65918Y161374D01*
X-65789Y161882D01*
X-65614Y162368D01*
X-65393Y162829D01*
X-65131Y163264D01*
X-64830Y163670D01*
X-64492Y164043D01*
X-64119Y164383D01*
X-63715Y164685D01*
X-63282Y164948D01*
X-62823Y165168D01*
X-62340Y165344D01*
X-61836Y165473D01*
X-61312Y165552D01*
X-61045Y165572D01*
X-60773Y165579D01*
X-60379Y165564D01*
X-59988Y165520D01*
X-59602Y165447D01*
X-59224Y165347D01*
X-58856Y165222D01*
X-58498Y165072D01*
X-58154Y164898D01*
X-57824Y164703D01*
X-57511Y164487D01*
X-57217Y164251D01*
X-56943Y163996D01*
X-56692Y163724D01*
X-56465Y163436D01*
X-56265Y163134D01*
X-56092Y162818D01*
X-55949Y162489D01*
X-55849Y162197D01*
X-55758Y161858D01*
X-55677Y161480D01*
X-55607Y161076D01*
X-55550Y160655D01*
X-55507Y160228D01*
X-55481Y159805D01*
X-55472Y159399D01*
X-55478Y159079D01*
X-55497Y158766D01*
X-55571Y158162D01*
X-55692Y157587D01*
X-55858Y157043D01*
X-56067Y156532D01*
X-56318Y156056D01*
X-56609Y155617D01*
X-56938Y155215D01*
X-57304Y154854D01*
X-57703Y154534D01*
X-58136Y154259D01*
X-58599Y154028D01*
X-59091Y153845D01*
X-59610Y153710D01*
X-59879Y153662D01*
X-60155Y153626D01*
X-60436Y153604D01*
X-60723Y153595D01*
G37*
%LPC*%
G36*
X-57658Y160479D02*
X-57559Y160489D01*
X-57488Y160520D01*
X-57446Y160574D01*
X-57432Y160655D01*
X-57450Y160950D01*
X-57504Y161241D01*
X-57591Y161525D01*
X-57710Y161801D01*
X-57857Y162067D01*
X-58032Y162320D01*
X-58231Y162559D01*
X-58452Y162781D01*
X-58694Y162985D01*
X-58954Y163167D01*
X-59230Y163328D01*
X-59520Y163464D01*
X-59821Y163573D01*
X-60132Y163653D01*
X-60450Y163703D01*
X-60773Y163720D01*
X-61087Y163703D01*
X-61397Y163653D01*
X-61700Y163573D01*
X-61994Y163464D01*
X-62277Y163329D01*
X-62546Y163170D01*
X-62801Y162989D01*
X-63038Y162787D01*
X-63255Y162568D01*
X-63450Y162332D01*
X-63621Y162083D01*
X-63766Y161823D01*
X-63882Y161552D01*
X-63968Y161275D01*
X-64021Y160991D01*
X-64039Y160705D01*
X-64025Y160599D01*
X-64001Y160564D01*
X-63961Y160539D01*
X-63817Y160511D01*
X-63562Y160504D01*
X-57884Y160479D01*
X-57658Y160479D01*
G37*
%LPD*%
G36*
X-45237Y126950D02*
X-45436Y126968D01*
X-45619Y127021D01*
X-45782Y127106D01*
X-45921Y127220D01*
X-46035Y127360D01*
X-46120Y127522D01*
X-46173Y127705D01*
X-46191Y127905D01*
X-46191Y128080D01*
X-46242Y133960D01*
X-46242Y134085D01*
X-46217Y134085D01*
X-46231Y134228D01*
X-46279Y134321D01*
X-46365Y134371D01*
X-46493Y134387D01*
X-54156Y134387D01*
X-54378Y134383D01*
X-54498Y134355D01*
X-54530Y134325D01*
X-54548Y134281D01*
X-54558Y134136D01*
X-54558Y128005D01*
X-54574Y127773D01*
X-54623Y127568D01*
X-54702Y127392D01*
X-54812Y127245D01*
X-54952Y127129D01*
X-55120Y127044D01*
X-55315Y126992D01*
X-55538Y126975D01*
X-55750Y126992D01*
X-55934Y127042D01*
X-56089Y127129D01*
X-56216Y127251D01*
X-56315Y127412D01*
X-56386Y127611D01*
X-56428Y127850D01*
X-56442Y128131D01*
X-56442Y142552D01*
X-56425Y142814D01*
X-56374Y143052D01*
X-56293Y143262D01*
X-56182Y143441D01*
X-56044Y143586D01*
X-55881Y143694D01*
X-55695Y143760D01*
X-55488Y143784D01*
X-55275Y143762D01*
X-55088Y143699D01*
X-54928Y143594D01*
X-54797Y143447D01*
X-54693Y143260D01*
X-54618Y143031D01*
X-54573Y142762D01*
X-54558Y142452D01*
X-54558Y136623D01*
X-54546Y136455D01*
X-54501Y136356D01*
X-54462Y136327D01*
X-54410Y136308D01*
X-54257Y136296D01*
X-46543Y136296D01*
X-46390Y136308D01*
X-46298Y136350D01*
X-46253Y136434D01*
X-46242Y136573D01*
X-46242Y142578D01*
X-46227Y142859D01*
X-46184Y143101D01*
X-46112Y143304D01*
X-46009Y143469D01*
X-45876Y143597D01*
X-45712Y143687D01*
X-45515Y143741D01*
X-45287Y143758D01*
X-45073Y143738D01*
X-44883Y143676D01*
X-44720Y143577D01*
X-44583Y143441D01*
X-44475Y143271D01*
X-44397Y143069D01*
X-44348Y142837D01*
X-44332Y142578D01*
X-44332Y128030D01*
X-44346Y127775D01*
X-44389Y127554D01*
X-44459Y127368D01*
X-44558Y127217D01*
X-44685Y127099D01*
X-44841Y127016D01*
X-45025Y126966D01*
X-45237Y126950D01*
G37*
G36*
X-152549Y153570D02*
X-152747Y153588D01*
X-152927Y153642D01*
X-153086Y153730D01*
X-153221Y153849D01*
X-153330Y153998D01*
X-153411Y154174D01*
X-153461Y154375D01*
X-153478Y154600D01*
X-153478Y154776D01*
X-153503Y159298D01*
X-153503Y159424D01*
X-153513Y159947D01*
X-153544Y160425D01*
X-153599Y160862D01*
X-153679Y161258D01*
X-153752Y161503D01*
X-153846Y161740D01*
X-153960Y161968D01*
X-154094Y162185D01*
X-154246Y162390D01*
X-154414Y162582D01*
X-154597Y162761D01*
X-154794Y162925D01*
X-155004Y163074D01*
X-155225Y163206D01*
X-155456Y163321D01*
X-155697Y163417D01*
X-155944Y163493D01*
X-156198Y163549D01*
X-156457Y163583D01*
X-156719Y163594D01*
X-156945Y163586D01*
X-157170Y163562D01*
X-157394Y163522D01*
X-157614Y163466D01*
X-157831Y163394D01*
X-158044Y163308D01*
X-158453Y163092D01*
X-158884Y162787D01*
X-159238Y162466D01*
X-159388Y162296D01*
X-159522Y162117D01*
X-159639Y161928D01*
X-159741Y161726D01*
X-159828Y161510D01*
X-159901Y161279D01*
X-159960Y161031D01*
X-160007Y160763D01*
X-160043Y160476D01*
X-160067Y160166D01*
X-160086Y159474D01*
X-160086Y154826D01*
X-160098Y154521D01*
X-160135Y154266D01*
X-160200Y154058D01*
X-160293Y153893D01*
X-160417Y153769D01*
X-160574Y153685D01*
X-160764Y153636D01*
X-160991Y153620D01*
X-161213Y153639D01*
X-161409Y153694D01*
X-161577Y153787D01*
X-161716Y153915D01*
X-161826Y154079D01*
X-161906Y154277D01*
X-161954Y154509D01*
X-161970Y154776D01*
X-161970Y160177D01*
X-161964Y160462D01*
X-161944Y160743D01*
X-161867Y161287D01*
X-161742Y161809D01*
X-161570Y162307D01*
X-161354Y162777D01*
X-161096Y163218D01*
X-160798Y163627D01*
X-160463Y164003D01*
X-160092Y164342D01*
X-159689Y164644D01*
X-159254Y164905D01*
X-158790Y165124D01*
X-158301Y165298D01*
X-157786Y165425D01*
X-157250Y165503D01*
X-156975Y165522D01*
X-156694Y165529D01*
X-156304Y165515D01*
X-155927Y165472D01*
X-155563Y165402D01*
X-155212Y165303D01*
X-154875Y165176D01*
X-154553Y165020D01*
X-154246Y164836D01*
X-153956Y164625D01*
X-153828Y164540D01*
X-153805Y164499D01*
X-153745Y164461D01*
X-153704Y164424D01*
X-153579Y164373D01*
X-153522Y164395D01*
X-153508Y164419D01*
X-153503Y164474D01*
X-153503Y169348D01*
X-153487Y169606D01*
X-153438Y169832D01*
X-153359Y170026D01*
X-153249Y170187D01*
X-153109Y170313D01*
X-152941Y170404D01*
X-152746Y170460D01*
X-152523Y170479D01*
X-152310Y170459D01*
X-152124Y170400D01*
X-151964Y170304D01*
X-151832Y170171D01*
X-151729Y170003D01*
X-151654Y169800D01*
X-151609Y169565D01*
X-151594Y169298D01*
X-151594Y154725D01*
X-151610Y154459D01*
X-151658Y154227D01*
X-151737Y154028D01*
X-151845Y153865D01*
X-151981Y153736D01*
X-152145Y153644D01*
X-152334Y153588D01*
X-152549Y153570D01*
G37*
G36*
X-122709Y126975D02*
X-123207Y126991D01*
X-123681Y127038D01*
X-124130Y127116D01*
X-124553Y127224D01*
X-124949Y127361D01*
X-125317Y127525D01*
X-125655Y127716D01*
X-125963Y127933D01*
X-126239Y128175D01*
X-126482Y128441D01*
X-126691Y128730D01*
X-126864Y129042D01*
X-127001Y129375D01*
X-127101Y129728D01*
X-127161Y130101D01*
X-127182Y130492D01*
X-127158Y130876D01*
X-127087Y131237D01*
X-126970Y131576D01*
X-126805Y131893D01*
X-126593Y132189D01*
X-126334Y132464D01*
X-126027Y132719D01*
X-125674Y132955D01*
X-125159Y133216D01*
X-124872Y133335D01*
X-124553Y133448D01*
X-123791Y133665D01*
X-122810Y133884D01*
X-122056Y134035D01*
X-121478Y134161D01*
X-120992Y134279D01*
X-120586Y134411D01*
X-120256Y134559D01*
X-119996Y134729D01*
X-119802Y134923D01*
X-119728Y135031D01*
X-119669Y135146D01*
X-119624Y135270D01*
X-119593Y135402D01*
X-119575Y135543D01*
X-119569Y135693D01*
X-119580Y135878D01*
X-119615Y136054D01*
X-119671Y136222D01*
X-119749Y136380D01*
X-119848Y136529D01*
X-119966Y136668D01*
X-120104Y136795D01*
X-120260Y136912D01*
X-120433Y137017D01*
X-120624Y137109D01*
X-120831Y137189D01*
X-121053Y137255D01*
X-121290Y137307D01*
X-121540Y137346D01*
X-121805Y137369D01*
X-122081Y137377D01*
X-122447Y137368D01*
X-122781Y137338D01*
X-123096Y137283D01*
X-123403Y137198D01*
X-123717Y137079D01*
X-124049Y136921D01*
X-124413Y136720D01*
X-124820Y136472D01*
X-125046Y136321D01*
X-125247Y136196D01*
X-125539Y136039D01*
X-125653Y136005D01*
X-125775Y135995D01*
X-125966Y136014D01*
X-126101Y136070D01*
X-126229Y136148D01*
X-126348Y136248D01*
X-126455Y136363D01*
X-126547Y136491D01*
X-126623Y136626D01*
X-126681Y136763D01*
X-126717Y136897D01*
X-126729Y137025D01*
X-126715Y137147D01*
X-126673Y137282D01*
X-126602Y137428D01*
X-126503Y137578D01*
X-126345Y137754D01*
X-126163Y137924D01*
X-125959Y138088D01*
X-125736Y138243D01*
X-125237Y138530D01*
X-124682Y138777D01*
X-124083Y138980D01*
X-123773Y139063D01*
X-123458Y139132D01*
X-123139Y139187D01*
X-122819Y139228D01*
X-122499Y139253D01*
X-122182Y139261D01*
X-121679Y139244D01*
X-121199Y139192D01*
X-120743Y139107D01*
X-120312Y138991D01*
X-119908Y138845D01*
X-119531Y138669D01*
X-119185Y138465D01*
X-118868Y138234D01*
X-118584Y137978D01*
X-118334Y137697D01*
X-118118Y137393D01*
X-117938Y137067D01*
X-117796Y136720D01*
X-117693Y136354D01*
X-117630Y135969D01*
X-117609Y135568D01*
X-117621Y135247D01*
X-117659Y134943D01*
X-117722Y134656D01*
X-117810Y134386D01*
X-117925Y134133D01*
X-118066Y133895D01*
X-118234Y133673D01*
X-118429Y133467D01*
X-118651Y133275D01*
X-118901Y133098D01*
X-119179Y132936D01*
X-119485Y132787D01*
X-119820Y132652D01*
X-120184Y132531D01*
X-120578Y132422D01*
X-121001Y132327D01*
X-121905Y132151D01*
X-122282Y132056D01*
X-122584Y132000D01*
X-123359Y131830D01*
X-123664Y131774D01*
X-124055Y131680D01*
X-124381Y131567D01*
X-124646Y131431D01*
X-124854Y131268D01*
X-125010Y131076D01*
X-125116Y130852D01*
X-125177Y130591D01*
X-125197Y130291D01*
X-125185Y130125D01*
X-125149Y129967D01*
X-125091Y129816D01*
X-125011Y129674D01*
X-124910Y129541D01*
X-124789Y129417D01*
X-124647Y129303D01*
X-124487Y129198D01*
X-124308Y129105D01*
X-124112Y129022D01*
X-123899Y128951D01*
X-123670Y128892D01*
X-123426Y128845D01*
X-123167Y128812D01*
X-122895Y128791D01*
X-122609Y128784D01*
X-122161Y128803D01*
X-121706Y128858D01*
X-121247Y128948D01*
X-120790Y129073D01*
X-120340Y129230D01*
X-119899Y129420D01*
X-119473Y129640D01*
X-119066Y129889D01*
X-118840Y130015D01*
X-118621Y130154D01*
X-118441Y130238D01*
X-118285Y130280D01*
X-118137Y130291D01*
X-117946Y130273D01*
X-117773Y130220D01*
X-117619Y130135D01*
X-117487Y130021D01*
X-117379Y129882D01*
X-117299Y129719D01*
X-117249Y129536D01*
X-117232Y129337D01*
X-117251Y129157D01*
X-117311Y128991D01*
X-117412Y128835D01*
X-117559Y128683D01*
X-117806Y128486D01*
X-118068Y128300D01*
X-118629Y127961D01*
X-119235Y127668D01*
X-119880Y127424D01*
X-120556Y127231D01*
X-120904Y127154D01*
X-121258Y127090D01*
X-121616Y127040D01*
X-121978Y127004D01*
X-122343Y126982D01*
X-122709Y126975D01*
G37*
G36*
X-105799Y126900D02*
X-106023Y126919D01*
X-106224Y126977D01*
X-106400Y127070D01*
X-106549Y127198D01*
X-106668Y127357D01*
X-106756Y127546D01*
X-106810Y127763D01*
X-106829Y128005D01*
X-106829Y132804D01*
X-106839Y133416D01*
X-106873Y133969D01*
X-106935Y134461D01*
X-107030Y134889D01*
X-107102Y135112D01*
X-107194Y135326D01*
X-107306Y135532D01*
X-107437Y135728D01*
X-107584Y135913D01*
X-107748Y136087D01*
X-107927Y136249D01*
X-108119Y136397D01*
X-108325Y136531D01*
X-108541Y136650D01*
X-108768Y136753D01*
X-109005Y136840D01*
X-109249Y136908D01*
X-109500Y136959D01*
X-109758Y136989D01*
X-110020Y137000D01*
X-110384Y136983D01*
X-110732Y136934D01*
X-111063Y136853D01*
X-111375Y136742D01*
X-111668Y136602D01*
X-111941Y136433D01*
X-112193Y136236D01*
X-112422Y136014D01*
X-112628Y135766D01*
X-112810Y135493D01*
X-112967Y135198D01*
X-113097Y134880D01*
X-113200Y134541D01*
X-113275Y134182D01*
X-113321Y133803D01*
X-113336Y133407D01*
X-113336Y128106D01*
X-113351Y127834D01*
X-113397Y127604D01*
X-113474Y127413D01*
X-113581Y127261D01*
X-113719Y127144D01*
X-113887Y127063D01*
X-114086Y127016D01*
X-114316Y127000D01*
X-114538Y127020D01*
X-114734Y127079D01*
X-114902Y127175D01*
X-115041Y127308D01*
X-115151Y127476D01*
X-115231Y127678D01*
X-115279Y127914D01*
X-115296Y128181D01*
X-115296Y133558D01*
X-115289Y133847D01*
X-115270Y134132D01*
X-115195Y134686D01*
X-115072Y135218D01*
X-114904Y135724D01*
X-114692Y136203D01*
X-114439Y136652D01*
X-114146Y137069D01*
X-113817Y137452D01*
X-113452Y137798D01*
X-113054Y138106D01*
X-112626Y138373D01*
X-112169Y138596D01*
X-111685Y138774D01*
X-111177Y138903D01*
X-110914Y138949D01*
X-110646Y138983D01*
X-110373Y139003D01*
X-110095Y139010D01*
X-109685Y138993D01*
X-109285Y138944D01*
X-108895Y138863D01*
X-108515Y138749D01*
X-108146Y138604D01*
X-107788Y138427D01*
X-107441Y138219D01*
X-107105Y137980D01*
X-106973Y137911D01*
X-106879Y137879D01*
X-106819Y137895D01*
X-106778Y138005D01*
X-106744Y138169D01*
X-106679Y138321D01*
X-106588Y138458D01*
X-106474Y138576D01*
X-106339Y138674D01*
X-106188Y138747D01*
X-106024Y138793D01*
X-105849Y138809D01*
X-105596Y138789D01*
X-105384Y138729D01*
X-105211Y138623D01*
X-105073Y138470D01*
X-104970Y138264D01*
X-104898Y138003D01*
X-104857Y137683D01*
X-104844Y137301D01*
X-104844Y128030D01*
X-104860Y127772D01*
X-104908Y127546D01*
X-104987Y127352D01*
X-105095Y127192D01*
X-105231Y127065D01*
X-105395Y126974D01*
X-105584Y126918D01*
X-105799Y126900D01*
G37*
G36*
X-88611Y153570D02*
X-88836Y153589D01*
X-89037Y153647D01*
X-89213Y153740D01*
X-89362Y153868D01*
X-89481Y154027D01*
X-89568Y154216D01*
X-89623Y154433D01*
X-89641Y154675D01*
X-89641Y159474D01*
X-89651Y160086D01*
X-89685Y160639D01*
X-89747Y161131D01*
X-89842Y161559D01*
X-89914Y161782D01*
X-90007Y161996D01*
X-90119Y162202D01*
X-90249Y162398D01*
X-90397Y162583D01*
X-90561Y162757D01*
X-90739Y162919D01*
X-90932Y163067D01*
X-91137Y163201D01*
X-91354Y163320D01*
X-91581Y163423D01*
X-91817Y163510D01*
X-92062Y163578D01*
X-92313Y163629D01*
X-92570Y163659D01*
X-92832Y163670D01*
X-93196Y163653D01*
X-93544Y163604D01*
X-93875Y163523D01*
X-94188Y163412D01*
X-94481Y163272D01*
X-94754Y163103D01*
X-95005Y162906D01*
X-95235Y162684D01*
X-95441Y162436D01*
X-95622Y162163D01*
X-95779Y161868D01*
X-95909Y161550D01*
X-96013Y161211D01*
X-96087Y160852D01*
X-96133Y160473D01*
X-96149Y160077D01*
X-96149Y154776D01*
X-96164Y154504D01*
X-96210Y154274D01*
X-96286Y154083D01*
X-96393Y153931D01*
X-96531Y153814D01*
X-96700Y153733D01*
X-96899Y153686D01*
X-97128Y153670D01*
X-97351Y153690D01*
X-97546Y153749D01*
X-97714Y153845D01*
X-97854Y153978D01*
X-97964Y154146D01*
X-98043Y154348D01*
X-98092Y154584D01*
X-98108Y154851D01*
X-98108Y160228D01*
X-98102Y160517D01*
X-98083Y160802D01*
X-98007Y161356D01*
X-97884Y161888D01*
X-97716Y162394D01*
X-97504Y162873D01*
X-97251Y163322D01*
X-96959Y163739D01*
X-96629Y164122D01*
X-96264Y164468D01*
X-95867Y164776D01*
X-95438Y165043D01*
X-94981Y165266D01*
X-94498Y165444D01*
X-93989Y165573D01*
X-93727Y165619D01*
X-93458Y165653D01*
X-93185Y165673D01*
X-92907Y165680D01*
X-92498Y165663D01*
X-92097Y165614D01*
X-91707Y165533D01*
X-91328Y165419D01*
X-90958Y165274D01*
X-90600Y165097D01*
X-90253Y164889D01*
X-89918Y164650D01*
X-89786Y164581D01*
X-89691Y164549D01*
X-89632Y164565D01*
X-89591Y164675D01*
X-89556Y164839D01*
X-89492Y164991D01*
X-89401Y165128D01*
X-89286Y165246D01*
X-89152Y165344D01*
X-89001Y165417D01*
X-88836Y165463D01*
X-88661Y165479D01*
X-88409Y165459D01*
X-88197Y165399D01*
X-88023Y165293D01*
X-87886Y165140D01*
X-87782Y164934D01*
X-87711Y164673D01*
X-87670Y164353D01*
X-87656Y163971D01*
X-87656Y154700D01*
X-87673Y154442D01*
X-87721Y154216D01*
X-87799Y154022D01*
X-87908Y153862D01*
X-88044Y153735D01*
X-88207Y153644D01*
X-88397Y153588D01*
X-88611Y153570D01*
G37*
G36*
X-26164Y121724D02*
X-26449Y121745D01*
X-26745Y121808D01*
X-27049Y121909D01*
X-27359Y122046D01*
X-27672Y122216D01*
X-27984Y122418D01*
X-28294Y122648D01*
X-28598Y122905D01*
X-28894Y123185D01*
X-29178Y123485D01*
X-29448Y123805D01*
X-29701Y124140D01*
X-29934Y124490D01*
X-30144Y124850D01*
X-30329Y125218D01*
X-30486Y125593D01*
X-30520Y125690D01*
X-30536Y125769D01*
X-35033Y137251D01*
X-35084Y137326D01*
X-35134Y137553D01*
X-35190Y137725D01*
X-35209Y137879D01*
X-35190Y138054D01*
X-35134Y138218D01*
X-35046Y138367D01*
X-34930Y138498D01*
X-34788Y138606D01*
X-34626Y138688D01*
X-34447Y138740D01*
X-34255Y138759D01*
X-34083Y138744D01*
X-33924Y138702D01*
X-33780Y138631D01*
X-33648Y138532D01*
X-33530Y138405D01*
X-33424Y138250D01*
X-33331Y138066D01*
X-33249Y137854D01*
X-33224Y137754D01*
X-30461Y130819D01*
X-30433Y130760D01*
X-30392Y130725D01*
X-30285Y130668D01*
X-30225Y130690D01*
X-30203Y130714D01*
X-30184Y130769D01*
X-30184Y130794D01*
X-26667Y137929D01*
X-26578Y138105D01*
X-26482Y138255D01*
X-26378Y138381D01*
X-26265Y138482D01*
X-26142Y138560D01*
X-26010Y138615D01*
X-25866Y138647D01*
X-25712Y138658D01*
X-25521Y138639D01*
X-25344Y138583D01*
X-25186Y138495D01*
X-25049Y138378D01*
X-24937Y138237D01*
X-24853Y138075D01*
X-24801Y137896D01*
X-24782Y137703D01*
X-24786Y137568D01*
X-24808Y137452D01*
X-25034Y137000D01*
X-29230Y128332D01*
X-29255Y128281D01*
X-29270Y128234D01*
X-29305Y128131D01*
X-29327Y128080D01*
X-29330Y128030D01*
X-29305Y127879D01*
X-29280Y127854D01*
X-28526Y126045D01*
X-28335Y125630D01*
X-28118Y125251D01*
X-27874Y124905D01*
X-27600Y124591D01*
X-27294Y124306D01*
X-26954Y124049D01*
X-26578Y123817D01*
X-26164Y123608D01*
X-25938Y123508D01*
X-25789Y123429D01*
X-25660Y123343D01*
X-25552Y123250D01*
X-25464Y123150D01*
X-25396Y123042D01*
X-25348Y122928D01*
X-25319Y122807D01*
X-25310Y122679D01*
X-25328Y122486D01*
X-25380Y122307D01*
X-25461Y122145D01*
X-25568Y122003D01*
X-25695Y121887D01*
X-25840Y121799D01*
X-25998Y121743D01*
X-26164Y121724D01*
G37*
G36*
X-64832Y126824D02*
X-65243Y126840D01*
X-65646Y126886D01*
X-66040Y126963D01*
X-66424Y127072D01*
X-66798Y127213D01*
X-67160Y127386D01*
X-67510Y127591D01*
X-67847Y127829D01*
X-67976Y127898D01*
X-68048Y127930D01*
X-68096Y127928D01*
X-68127Y127914D01*
X-68143Y127877D01*
X-68149Y127804D01*
X-68192Y127640D01*
X-68262Y127488D01*
X-68357Y127351D01*
X-68472Y127232D01*
X-68605Y127135D01*
X-68753Y127062D01*
X-68911Y127016D01*
X-69078Y127000D01*
X-69331Y127019D01*
X-69543Y127080D01*
X-69716Y127187D01*
X-69854Y127342D01*
X-69957Y127551D01*
X-70029Y127816D01*
X-70070Y128142D01*
X-70083Y128533D01*
X-70083Y137553D01*
X-70067Y137811D01*
X-70019Y138040D01*
X-69940Y138238D01*
X-69832Y138404D01*
X-69695Y138535D01*
X-69532Y138630D01*
X-69343Y138688D01*
X-69128Y138708D01*
X-68912Y138687D01*
X-68717Y138627D01*
X-68545Y138529D01*
X-68400Y138397D01*
X-68282Y138233D01*
X-68196Y138040D01*
X-68142Y137821D01*
X-68123Y137578D01*
X-68123Y132904D01*
X-68110Y132278D01*
X-68070Y131720D01*
X-68007Y131233D01*
X-67922Y130819D01*
X-67850Y130592D01*
X-67757Y130374D01*
X-67643Y130165D01*
X-67511Y129966D01*
X-67362Y129778D01*
X-67196Y129602D01*
X-67015Y129439D01*
X-66820Y129290D01*
X-66612Y129154D01*
X-66394Y129034D01*
X-66164Y128931D01*
X-65926Y128844D01*
X-65680Y128775D01*
X-65427Y128725D01*
X-65170Y128694D01*
X-64907Y128683D01*
X-64543Y128700D01*
X-64195Y128750D01*
X-63864Y128832D01*
X-63552Y128944D01*
X-63259Y129087D01*
X-62986Y129257D01*
X-62734Y129455D01*
X-62505Y129679D01*
X-62299Y129928D01*
X-62117Y130201D01*
X-61960Y130497D01*
X-61830Y130814D01*
X-61727Y131152D01*
X-61652Y131509D01*
X-61606Y131884D01*
X-61591Y132276D01*
X-61591Y137477D01*
X-61576Y137742D01*
X-61530Y137972D01*
X-61453Y138166D01*
X-61346Y138325D01*
X-61208Y138449D01*
X-61040Y138537D01*
X-60841Y138590D01*
X-60611Y138608D01*
X-60396Y138587D01*
X-60204Y138525D01*
X-60036Y138425D01*
X-59895Y138287D01*
X-59782Y138115D01*
X-59699Y137908D01*
X-59648Y137670D01*
X-59631Y137402D01*
X-59631Y132251D01*
X-59638Y131961D01*
X-59657Y131677D01*
X-59732Y131123D01*
X-59855Y130593D01*
X-60023Y130089D01*
X-60235Y129612D01*
X-60488Y129165D01*
X-60781Y128750D01*
X-61110Y128369D01*
X-61475Y128025D01*
X-61873Y127720D01*
X-62301Y127455D01*
X-62758Y127234D01*
X-63242Y127058D01*
X-63750Y126930D01*
X-64013Y126884D01*
X-64281Y126851D01*
X-64554Y126831D01*
X-64832Y126824D01*
G37*
G36*
X-148215Y153544D02*
X-148517Y153559D01*
X-148780Y153601D01*
X-149004Y153673D01*
X-149189Y153774D01*
X-149334Y153904D01*
X-149438Y154064D01*
X-149501Y154254D01*
X-149522Y154474D01*
X-149508Y154662D01*
X-149466Y154831D01*
X-149397Y154980D01*
X-149302Y155108D01*
X-149181Y155215D01*
X-149034Y155301D01*
X-148863Y155364D01*
X-148668Y155404D01*
X-148442Y155429D01*
X-148244Y155472D01*
X-148084Y155530D01*
X-147957Y155607D01*
X-147860Y155708D01*
X-147791Y155839D01*
X-147745Y156005D01*
X-147720Y156210D01*
X-147713Y156459D01*
X-147713Y156585D01*
X-147763Y163192D01*
X-147763Y163243D01*
X-147772Y163392D01*
X-147788Y163440D01*
X-147817Y163475D01*
X-147860Y163498D01*
X-147922Y163511D01*
X-148115Y163519D01*
X-148567Y163519D01*
X-148800Y163535D01*
X-149008Y163583D01*
X-149188Y163662D01*
X-149340Y163770D01*
X-149461Y163907D01*
X-149549Y164070D01*
X-149604Y164260D01*
X-149622Y164474D01*
X-149605Y164716D01*
X-149550Y164916D01*
X-149453Y165078D01*
X-149308Y165206D01*
X-149112Y165301D01*
X-148859Y165368D01*
X-148545Y165409D01*
X-148165Y165429D01*
X-147958Y165433D01*
X-147891Y165443D01*
X-147845Y165463D01*
X-147815Y165496D01*
X-147798Y165545D01*
X-147788Y165705D01*
X-147788Y165755D01*
X-147813Y169348D01*
X-147813Y169474D01*
X-147796Y169707D01*
X-147745Y169914D01*
X-147664Y170095D01*
X-147553Y170246D01*
X-147415Y170367D01*
X-147252Y170456D01*
X-147066Y170510D01*
X-146859Y170529D01*
X-146644Y170510D01*
X-146455Y170456D01*
X-146292Y170367D01*
X-146155Y170246D01*
X-146047Y170095D01*
X-145968Y169914D01*
X-145920Y169707D01*
X-145904Y169474D01*
X-145904Y169323D01*
X-145879Y165881D01*
X-145879Y165730D01*
X-145863Y165577D01*
X-145840Y165524D01*
X-145807Y165485D01*
X-145699Y165440D01*
X-145527Y165429D01*
X-145401Y165429D01*
X-145101Y165413D01*
X-144841Y165367D01*
X-144621Y165291D01*
X-144440Y165184D01*
X-144300Y165046D01*
X-144200Y164877D01*
X-144140Y164678D01*
X-144120Y164449D01*
X-144139Y164236D01*
X-144196Y164049D01*
X-144292Y163889D01*
X-144428Y163758D01*
X-144603Y163654D01*
X-144820Y163579D01*
X-145077Y163534D01*
X-145376Y163519D01*
X-145477Y163519D01*
X-145663Y163508D01*
X-145778Y163466D01*
X-145814Y163429D01*
X-145837Y163381D01*
X-145854Y163243D01*
X-145854Y163142D01*
X-145803Y156007D01*
X-145803Y155956D01*
X-145811Y155639D01*
X-145836Y155348D01*
X-145877Y155081D01*
X-145936Y154838D01*
X-146014Y154618D01*
X-146109Y154420D01*
X-146224Y154245D01*
X-146359Y154091D01*
X-146514Y153957D01*
X-146690Y153844D01*
X-146888Y153750D01*
X-147107Y153674D01*
X-147349Y153616D01*
X-147614Y153576D01*
X-147903Y153552D01*
X-148215Y153544D01*
G37*
G36*
X-137174Y153570D02*
X-137401Y153586D01*
X-137594Y153638D01*
X-137755Y153726D01*
X-137883Y153852D01*
X-137981Y154019D01*
X-138050Y154227D01*
X-138090Y154478D01*
X-138103Y154776D01*
X-138103Y160780D01*
X-138113Y161111D01*
X-138144Y161425D01*
X-138194Y161721D01*
X-138263Y161999D01*
X-138352Y162258D01*
X-138458Y162498D01*
X-138583Y162717D01*
X-138725Y162916D01*
X-138884Y163094D01*
X-139060Y163250D01*
X-139252Y163383D01*
X-139460Y163494D01*
X-139683Y163581D01*
X-139921Y163644D01*
X-140173Y163682D01*
X-140440Y163695D01*
X-140585Y163685D01*
X-140737Y163657D01*
X-140897Y163610D01*
X-141065Y163544D01*
X-141426Y163356D01*
X-141822Y163092D01*
X-142136Y162913D01*
X-142253Y162876D01*
X-142374Y162866D01*
X-142559Y162886D01*
X-142732Y162945D01*
X-142889Y163037D01*
X-143028Y163158D01*
X-143142Y163304D01*
X-143229Y163470D01*
X-143285Y163652D01*
X-143304Y163846D01*
X-143298Y163956D01*
X-143279Y164063D01*
X-143200Y164266D01*
X-143060Y164460D01*
X-142852Y164650D01*
X-142588Y164846D01*
X-142309Y165020D01*
X-142016Y165171D01*
X-141712Y165297D01*
X-141399Y165397D01*
X-141082Y165469D01*
X-140761Y165514D01*
X-140440Y165529D01*
X-140196Y165516D01*
X-139937Y165480D01*
X-139668Y165420D01*
X-139394Y165341D01*
X-139118Y165242D01*
X-138846Y165126D01*
X-138582Y164995D01*
X-138329Y164851D01*
X-138226Y164785D01*
X-138179Y164775D01*
X-138097Y164794D01*
X-138044Y164839D01*
X-137978Y164926D01*
X-137906Y165032D01*
X-137824Y165124D01*
X-137632Y165265D01*
X-137525Y165315D01*
X-137412Y165350D01*
X-137295Y165371D01*
X-137174Y165378D01*
X-136952Y165358D01*
X-136759Y165298D01*
X-136595Y165197D01*
X-136461Y165055D01*
X-136355Y164872D01*
X-136280Y164647D01*
X-136234Y164380D01*
X-136219Y164072D01*
X-136219Y154725D01*
X-136233Y154445D01*
X-136276Y154205D01*
X-136349Y154006D01*
X-136451Y153846D01*
X-136584Y153723D01*
X-136749Y153637D01*
X-136945Y153586D01*
X-137174Y153570D01*
G37*
G36*
X-130726Y126925D02*
X-130953Y126944D01*
X-131160Y127002D01*
X-131344Y127094D01*
X-131502Y127220D01*
X-131630Y127376D01*
X-131726Y127561D01*
X-131786Y127771D01*
X-131807Y128005D01*
X-131807Y128055D01*
X-131778Y128256D01*
X-131712Y128442D01*
X-131614Y128608D01*
X-131486Y128752D01*
X-131333Y128871D01*
X-131157Y128960D01*
X-130962Y129016D01*
X-130751Y129035D01*
X-130532Y129012D01*
X-130328Y128946D01*
X-130145Y128842D01*
X-129985Y128702D01*
X-129854Y128532D01*
X-129755Y128336D01*
X-129693Y128117D01*
X-129671Y127879D01*
X-129693Y127687D01*
X-129755Y127508D01*
X-129853Y127345D01*
X-129982Y127204D01*
X-130138Y127088D01*
X-130318Y127000D01*
X-130515Y126944D01*
X-130726Y126925D01*
G37*
G36*
X100300Y228403D02*
X99865Y228424D01*
X99444Y228485D01*
X99038Y228585D01*
X98650Y228722D01*
X98281Y228893D01*
X97934Y229098D01*
X97610Y229333D01*
X97311Y229598D01*
X97040Y229889D01*
X96799Y230206D01*
X96589Y230546D01*
X96413Y230907D01*
X96272Y231288D01*
X96169Y231687D01*
X96106Y232101D01*
X96085Y232528D01*
X96106Y232950D01*
X96169Y233358D01*
X96271Y233752D01*
X96410Y234128D01*
X96584Y234486D01*
X96792Y234823D01*
X97031Y235138D01*
X97300Y235427D01*
X97596Y235690D01*
X97917Y235925D01*
X98261Y236128D01*
X98627Y236299D01*
X99012Y236436D01*
X99415Y236536D01*
X99833Y236597D01*
X100264Y236618D01*
X100624Y236604D01*
X100975Y236562D01*
X101316Y236489D01*
X101645Y236385D01*
X101735Y236349D01*
X101861Y236313D01*
X101950Y236295D01*
X102006Y236309D01*
X102022Y236403D01*
X102022Y239165D01*
X102010Y239220D01*
X101970Y239253D01*
X101893Y239269D01*
X101771Y239273D01*
X97376Y239273D01*
X97122Y239282D01*
X96909Y239309D01*
X96735Y239356D01*
X96598Y239425D01*
X96496Y239518D01*
X96425Y239636D01*
X96385Y239781D01*
X96372Y239954D01*
X96385Y240107D01*
X96424Y240243D01*
X96487Y240359D01*
X96573Y240457D01*
X96682Y240534D01*
X96811Y240590D01*
X96959Y240624D01*
X97125Y240636D01*
X102596Y240636D01*
X102784Y240624D01*
X102944Y240588D01*
X103076Y240526D01*
X103183Y240439D01*
X103265Y240324D01*
X103322Y240182D01*
X103356Y240011D01*
X103367Y239811D01*
X103367Y235075D01*
X103357Y234880D01*
X103326Y234712D01*
X103273Y234570D01*
X103197Y234454D01*
X103098Y234365D01*
X102974Y234301D01*
X102825Y234263D01*
X102650Y234250D01*
X102523Y234260D01*
X102419Y234297D01*
X102304Y234379D01*
X102148Y234519D01*
X101945Y234691D01*
X101729Y234841D01*
X101501Y234971D01*
X101262Y235078D01*
X101014Y235162D01*
X100758Y235223D01*
X100495Y235260D01*
X100228Y235273D01*
X99946Y235258D01*
X99671Y235216D01*
X99405Y235147D01*
X99151Y235053D01*
X98908Y234935D01*
X98678Y234795D01*
X98464Y234634D01*
X98266Y234454D01*
X98086Y234256D01*
X97926Y234042D01*
X97786Y233813D01*
X97668Y233570D01*
X97574Y233315D01*
X97505Y233050D01*
X97462Y232775D01*
X97448Y232492D01*
X97463Y232213D01*
X97506Y231940D01*
X97575Y231676D01*
X97671Y231422D01*
X97790Y231180D01*
X97931Y230951D01*
X98094Y230736D01*
X98275Y230537D01*
X98475Y230356D01*
X98691Y230195D01*
X98922Y230053D01*
X99166Y229935D01*
X99422Y229840D01*
X99688Y229770D01*
X99963Y229727D01*
X100246Y229712D01*
X100536Y229729D01*
X100826Y229779D01*
X101110Y229860D01*
X101385Y229968D01*
X101647Y230101D01*
X101891Y230257D01*
X102113Y230433D01*
X102309Y230627D01*
X102436Y230752D01*
X102558Y230835D01*
X102690Y230882D01*
X102847Y230896D01*
X102985Y230882D01*
X103115Y230843D01*
X103234Y230781D01*
X103338Y230699D01*
X103425Y230600D01*
X103490Y230487D01*
X103532Y230364D01*
X103547Y230232D01*
X103530Y230098D01*
X103484Y229965D01*
X103410Y229836D01*
X103313Y229712D01*
X103014Y229419D01*
X102684Y229159D01*
X102327Y228935D01*
X101948Y228748D01*
X101551Y228599D01*
X101142Y228491D01*
X100723Y228425D01*
X100300Y228403D01*
G37*
G36*
X91279Y228582D02*
X91182Y228590D01*
X91093Y228614D01*
X91011Y228656D01*
X90936Y228717D01*
X90866Y228798D01*
X90802Y228900D01*
X90687Y229174D01*
X87171Y239506D01*
X87135Y239596D01*
X87086Y239806D01*
X87063Y239990D01*
X87078Y240110D01*
X87120Y240225D01*
X87185Y240331D01*
X87272Y240425D01*
X87376Y240505D01*
X87495Y240565D01*
X87625Y240604D01*
X87763Y240618D01*
X87874Y240608D01*
X87977Y240579D01*
X88073Y240531D01*
X88160Y240466D01*
X88237Y240383D01*
X88305Y240285D01*
X88363Y240172D01*
X88409Y240044D01*
X88427Y239954D01*
X91171Y231954D01*
X91225Y231871D01*
X91279Y231829D01*
X91323Y231840D01*
X91368Y231918D01*
X91386Y231954D01*
X94149Y240008D01*
X94185Y240080D01*
X94230Y240206D01*
X94285Y240315D01*
X94351Y240408D01*
X94427Y240484D01*
X94512Y240542D01*
X94608Y240584D01*
X94714Y240610D01*
X94830Y240618D01*
X94973Y240605D01*
X95103Y240567D01*
X95219Y240507D01*
X95319Y240428D01*
X95400Y240330D01*
X95461Y240217D01*
X95499Y240091D01*
X95512Y239954D01*
X95494Y239791D01*
X95422Y239614D01*
X95404Y239524D01*
X91835Y229138D01*
X91817Y229066D01*
X91723Y228847D01*
X91602Y228696D01*
X91531Y228645D01*
X91454Y228610D01*
X91369Y228589D01*
X91279Y228582D01*
G37*
G36*
X108982Y230663D02*
X107852Y230663D01*
X107852Y234179D01*
X104121Y234179D01*
X104121Y235291D01*
X107870Y235291D01*
X107870Y238789D01*
X109000Y238789D01*
X109000Y235273D01*
X112749Y235273D01*
X112749Y234161D01*
X108982Y234161D01*
X108982Y230663D01*
G37*
G36*
X120774Y212072D02*
X117079Y212072D01*
X116616Y212087D01*
X116184Y212132D01*
X115782Y212207D01*
X115410Y212311D01*
X115068Y212446D01*
X114756Y212611D01*
X114474Y212806D01*
X114222Y213032D01*
X114000Y213287D01*
X113808Y213573D01*
X113645Y213890D01*
X113512Y214236D01*
X113409Y214614D01*
X113335Y215021D01*
X113291Y215460D01*
X113276Y215929D01*
X113276Y215982D01*
X113258Y220072D01*
X113258Y220144D01*
X113281Y220732D01*
X113350Y221281D01*
X113463Y221786D01*
X113617Y222243D01*
X113710Y222450D01*
X113820Y222648D01*
X113947Y222836D01*
X114088Y223014D01*
X114245Y223180D01*
X114415Y223335D01*
X114597Y223478D01*
X114792Y223608D01*
X114997Y223725D01*
X115213Y223828D01*
X115437Y223917D01*
X115670Y223991D01*
X115910Y224049D01*
X116157Y224091D01*
X116409Y224117D01*
X116666Y224126D01*
X120882Y224126D01*
X121155Y224117D01*
X121374Y224085D01*
X121543Y224027D01*
X121669Y223935D01*
X121757Y223806D01*
X121812Y223634D01*
X121842Y223414D01*
X121850Y223139D01*
X121850Y223032D01*
X121868Y212951D01*
X121868Y212897D01*
X121858Y212666D01*
X121823Y212481D01*
X121758Y212337D01*
X121657Y212229D01*
X121514Y212153D01*
X121323Y212105D01*
X121079Y212080D01*
X120774Y212072D01*
G37*
%LPC*%
G36*
X120290Y213399D02*
X120371Y213408D01*
X120426Y213438D01*
X120459Y213498D01*
X120469Y213597D01*
X120469Y222619D01*
X120466Y222700D01*
X120429Y222756D01*
X120358Y222788D01*
X120254Y222799D01*
X116971Y222799D01*
X116679Y222790D01*
X116406Y222762D01*
X116153Y222717D01*
X115920Y222652D01*
X115707Y222569D01*
X115513Y222467D01*
X115338Y222345D01*
X115182Y222205D01*
X115045Y222044D01*
X114927Y221864D01*
X114828Y221664D01*
X114746Y221444D01*
X114684Y221204D01*
X114639Y220943D01*
X114612Y220661D01*
X114604Y220359D01*
X114604Y220323D01*
X114621Y215893D01*
X114621Y215785D01*
X114630Y215489D01*
X114655Y215214D01*
X114698Y214959D01*
X114758Y214724D01*
X114835Y214509D01*
X114930Y214313D01*
X115042Y214137D01*
X115173Y213980D01*
X115322Y213843D01*
X115489Y213724D01*
X115674Y213624D01*
X115878Y213543D01*
X116100Y213480D01*
X116342Y213435D01*
X116602Y213408D01*
X116882Y213399D01*
X120290Y213399D01*
G37*
%LPD*%
G36*
X95772Y212054D02*
X95650Y212061D01*
X95539Y212083D01*
X95438Y212120D01*
X95348Y212175D01*
X95267Y212249D01*
X95194Y212342D01*
X95129Y212456D01*
X95072Y212592D01*
X94265Y214691D01*
X94247Y214745D01*
X94207Y214833D01*
X94159Y214888D01*
X94088Y214916D01*
X93978Y214924D01*
X89117Y214924D01*
X89065Y214908D01*
X89044Y214891D01*
X89027Y214852D01*
X89016Y214851D01*
X89009Y214843D01*
X88991Y214781D01*
X88973Y214709D01*
X88148Y212682D01*
X88130Y212610D01*
X88009Y212367D01*
X87938Y212274D01*
X87861Y212200D01*
X87777Y212143D01*
X87686Y212103D01*
X87589Y212080D01*
X87484Y212072D01*
X87346Y212085D01*
X87216Y212123D01*
X87098Y212182D01*
X86993Y212260D01*
X86907Y212356D01*
X86841Y212466D01*
X86799Y212587D01*
X86785Y212718D01*
X86814Y212938D01*
X86910Y213238D01*
X91018Y223462D01*
X91036Y223534D01*
X91170Y223808D01*
X91240Y223911D01*
X91314Y223992D01*
X91395Y224052D01*
X91485Y224094D01*
X91586Y224118D01*
X91700Y224126D01*
X91797Y224118D01*
X91886Y224092D01*
X91969Y224048D01*
X92047Y223985D01*
X92192Y223801D01*
X92328Y223534D01*
X96328Y213095D01*
X96330Y213086D01*
X96337Y213079D01*
X96346Y213023D01*
X96417Y212825D01*
X96433Y212745D01*
X96435Y212664D01*
X96421Y212545D01*
X96379Y212432D01*
X96315Y212329D01*
X96231Y212238D01*
X96131Y212162D01*
X96019Y212104D01*
X95898Y212067D01*
X95772Y212054D01*
G37*
%LPC*%
G36*
X93350Y216251D02*
X93465Y216259D01*
X93543Y216281D01*
X93587Y216320D01*
X93601Y216377D01*
X93565Y216503D01*
X93547Y216556D01*
X91771Y221166D01*
X91754Y221220D01*
X91718Y221292D01*
X91689Y221339D01*
X91646Y221346D01*
X91585Y221319D01*
X91558Y221275D01*
X91538Y221184D01*
X91538Y221166D01*
X89691Y216485D01*
X89673Y216431D01*
X89655Y216359D01*
X89662Y216320D01*
X89684Y216299D01*
X89780Y216251D01*
X93350Y216251D01*
G37*
%LPD*%
G36*
X112147Y212054D02*
X112025Y212061D01*
X111914Y212083D01*
X111813Y212120D01*
X111723Y212175D01*
X111642Y212249D01*
X111569Y212342D01*
X111504Y212456D01*
X111447Y212592D01*
X110640Y214691D01*
X110622Y214745D01*
X110582Y214833D01*
X110534Y214888D01*
X110463Y214916D01*
X110353Y214924D01*
X105492Y214924D01*
X105440Y214908D01*
X105419Y214891D01*
X105402Y214852D01*
X105391Y214851D01*
X105384Y214843D01*
X105366Y214781D01*
X105348Y214709D01*
X104523Y212682D01*
X104505Y212610D01*
X104384Y212367D01*
X104313Y212274D01*
X104236Y212200D01*
X104152Y212143D01*
X104061Y212103D01*
X103964Y212080D01*
X103859Y212072D01*
X103721Y212085D01*
X103591Y212123D01*
X103473Y212182D01*
X103368Y212260D01*
X103282Y212356D01*
X103216Y212466D01*
X103174Y212587D01*
X103160Y212718D01*
X103189Y212938D01*
X103285Y213238D01*
X107393Y223462D01*
X107411Y223534D01*
X107545Y223808D01*
X107615Y223911D01*
X107689Y223992D01*
X107770Y224052D01*
X107860Y224094D01*
X107961Y224118D01*
X108075Y224126D01*
X108172Y224118D01*
X108261Y224092D01*
X108344Y224048D01*
X108422Y223985D01*
X108567Y223801D01*
X108703Y223534D01*
X112703Y213095D01*
X112705Y213086D01*
X112712Y213079D01*
X112721Y213023D01*
X112792Y212825D01*
X112808Y212745D01*
X112810Y212664D01*
X112796Y212545D01*
X112754Y212432D01*
X112690Y212329D01*
X112606Y212238D01*
X112506Y212162D01*
X112394Y212104D01*
X112273Y212067D01*
X112147Y212054D01*
G37*
%LPC*%
G36*
X109725Y216251D02*
X109840Y216259D01*
X109918Y216281D01*
X109962Y216320D01*
X109976Y216377D01*
X109940Y216503D01*
X109922Y216556D01*
X108146Y221166D01*
X108129Y221220D01*
X108093Y221292D01*
X108064Y221339D01*
X108021Y221346D01*
X107960Y221319D01*
X107933Y221275D01*
X107913Y221184D01*
X107913Y221166D01*
X106066Y216485D01*
X106048Y216431D01*
X106030Y216359D01*
X106037Y216320D01*
X106059Y216299D01*
X106155Y216251D01*
X109725Y216251D01*
G37*
%LPD*%
G36*
X99769Y212018D02*
X99616Y212032D01*
X99481Y212072D01*
X99364Y212138D01*
X99267Y212231D01*
X99190Y212350D01*
X99133Y212495D01*
X99099Y212665D01*
X99087Y212861D01*
X99087Y222476D01*
X99077Y222573D01*
X99047Y222646D01*
X98997Y222693D01*
X98926Y222709D01*
X96415Y222709D01*
X96209Y222718D01*
X96033Y222747D01*
X95888Y222795D01*
X95771Y222864D01*
X95682Y222953D01*
X95620Y223065D01*
X95584Y223198D01*
X95572Y223355D01*
X95585Y223507D01*
X95625Y223640D01*
X95691Y223754D01*
X95782Y223848D01*
X95899Y223922D01*
X96041Y223975D01*
X96207Y224008D01*
X96397Y224018D01*
X103249Y224018D01*
X103448Y224009D01*
X103617Y223980D01*
X103757Y223930D01*
X103868Y223859D01*
X103952Y223765D01*
X104011Y223648D01*
X104045Y223505D01*
X104056Y223337D01*
X104044Y223176D01*
X104007Y223042D01*
X103943Y222933D01*
X103850Y222848D01*
X103727Y222785D01*
X103572Y222742D01*
X103383Y222717D01*
X103159Y222709D01*
X100648Y222709D01*
X100531Y222703D01*
X100466Y222678D01*
X100439Y222618D01*
X100433Y222512D01*
X100433Y212861D01*
X100422Y212660D01*
X100390Y212487D01*
X100336Y212342D01*
X100262Y212225D01*
X100168Y212134D01*
X100054Y212069D01*
X99921Y212031D01*
X99769Y212018D01*
G37*
D10*
X-64562Y280972D02*
X-76255Y280972D01*
X-19352Y275535D02*
X-19352Y287228D01*
X-13762Y280972D02*
X-25455Y280972D01*
X-276805Y18748D02*
X-288498Y18748D01*
X-333708Y24185D02*
X-333708Y12492D01*
X-339298Y18748D02*
X-327605Y18748D01*
X-160825Y280972D02*
X-149132Y280972D01*
X-103922Y275535D02*
X-103922Y287228D01*
X-98332Y280972D02*
X-110025Y280972D01*
X-244902Y281142D02*
X-256595Y281142D01*
X-199692Y275705D02*
X-199692Y287398D01*
X-194102Y281142D02*
X-205795Y281142D01*
X-328722Y281142D02*
X-340415Y281142D01*
X-283512Y275705D02*
X-283512Y287398D01*
X-277922Y281142D02*
X-289615Y281142D01*
X-425752Y172928D02*
X-425752Y161235D01*
X-420315Y218138D02*
X-432008Y218138D01*
X-425752Y223728D02*
X-425752Y212035D01*
X-425752Y87838D02*
X-425752Y76145D01*
X-420315Y133048D02*
X-432008Y133048D01*
X-425752Y138638D02*
X-425752Y126945D01*
X-24338Y18748D02*
X-12645Y18748D01*
X-69548Y24185D02*
X-69548Y12492D01*
X-75138Y18748D02*
X-63445Y18748D01*
X-97215Y18748D02*
X-108908Y18748D01*
X-154118Y24185D02*
X-154118Y12492D01*
X-159708Y18748D02*
X-148015Y18748D01*
X-192985Y18748D02*
X-204678Y18748D01*
X-249888Y24185D02*
X-249888Y12492D01*
X-255478Y18748D02*
X-243785Y18748D01*
D11*
X65974Y248583D02*
X65978Y248256D01*
X65990Y247928D01*
X66010Y247602D01*
X66037Y247276D01*
X66073Y246950D01*
X66116Y246626D01*
X66167Y246302D01*
X66226Y245980D01*
X66293Y245660D01*
X66368Y245341D01*
X66450Y245024D01*
X66540Y244709D01*
X66637Y244397D01*
X66742Y244087D01*
X66854Y243779D01*
X66974Y243474D01*
X67101Y243173D01*
X67236Y242874D01*
X67377Y242579D01*
X67526Y242287D01*
X67681Y241999D01*
X67844Y241715D01*
X68013Y241435D01*
X68189Y241159D01*
X68372Y240887D01*
X68561Y240620D01*
X68757Y240358D01*
X68959Y240100D01*
X69167Y239847D01*
X69381Y239600D01*
X69601Y239357D01*
X69827Y239120D01*
X70058Y238889D01*
X70295Y238663D01*
X70538Y238443D01*
X70785Y238229D01*
X71038Y238021D01*
X71296Y237819D01*
X71558Y237623D01*
X71825Y237434D01*
X72097Y237251D01*
X72373Y237075D01*
X72653Y236906D01*
X72937Y236743D01*
X73225Y236588D01*
X73517Y236439D01*
X73812Y236298D01*
X74111Y236163D01*
X74412Y236036D01*
X74717Y235916D01*
X75025Y235804D01*
X75335Y235699D01*
X75647Y235602D01*
X75962Y235512D01*
X76279Y235430D01*
X76598Y235355D01*
X76918Y235288D01*
X77240Y235229D01*
X77564Y235178D01*
X77888Y235135D01*
X78214Y235099D01*
X78540Y235072D01*
X78866Y235052D01*
X79194Y235040D01*
X79521Y235036D01*
X80720Y235036D01*
X65974Y248583D02*
X65974Y265430D01*
X65978Y265736D01*
X65989Y266043D01*
X66007Y266348D01*
X66033Y266654D01*
X66066Y266958D01*
X66107Y267262D01*
X66155Y267565D01*
X66210Y267866D01*
X66273Y268166D01*
X66342Y268464D01*
X66419Y268761D01*
X66503Y269056D01*
X66595Y269348D01*
X66693Y269638D01*
X66798Y269926D01*
X66910Y270211D01*
X67029Y270494D01*
X67155Y270773D01*
X67287Y271049D01*
X67426Y271322D01*
X67572Y271592D01*
X67724Y271858D01*
X67883Y272120D01*
X68047Y272378D01*
X68218Y272632D01*
X68395Y272883D01*
X68579Y273128D01*
X68768Y273369D01*
X68962Y273606D01*
X69163Y273838D01*
X69369Y274065D01*
X69580Y274286D01*
X69797Y274503D01*
X70018Y274714D01*
X70245Y274920D01*
X70477Y275121D01*
X70714Y275315D01*
X70955Y275504D01*
X71200Y275688D01*
X71451Y275865D01*
X71705Y276036D01*
X71963Y276200D01*
X72225Y276359D01*
X72491Y276511D01*
X72761Y276657D01*
X73034Y276796D01*
X73310Y276928D01*
X73589Y277054D01*
X73872Y277173D01*
X74157Y277285D01*
X74445Y277390D01*
X74735Y277488D01*
X75027Y277580D01*
X75322Y277664D01*
X75619Y277741D01*
X75917Y277810D01*
X76217Y277873D01*
X76518Y277928D01*
X76821Y277976D01*
X77125Y278017D01*
X77429Y278050D01*
X77735Y278076D01*
X78040Y278094D01*
X78347Y278105D01*
X78653Y278109D01*
X159900Y251460D02*
X159900Y236378D01*
X159895Y235941D01*
X159879Y235503D01*
X159852Y235067D01*
X159815Y234631D01*
X159768Y234196D01*
X159710Y233763D01*
X159642Y233331D01*
X159563Y232900D01*
X159474Y232472D01*
X159374Y232046D01*
X159264Y231623D01*
X159144Y231202D01*
X159014Y230784D01*
X158874Y230370D01*
X158724Y229959D01*
X158564Y229552D01*
X158394Y229149D01*
X158214Y228750D01*
X158025Y228356D01*
X157827Y227966D01*
X157619Y227581D01*
X157402Y227202D01*
X157175Y226827D01*
X156940Y226458D01*
X156696Y226095D01*
X156443Y225738D01*
X156182Y225388D01*
X155912Y225043D01*
X155634Y224706D01*
X155348Y224375D01*
X155054Y224051D01*
X154752Y223734D01*
X154443Y223425D01*
X154126Y223123D01*
X153802Y222829D01*
X153471Y222543D01*
X153134Y222265D01*
X152789Y221995D01*
X152439Y221734D01*
X152082Y221481D01*
X151719Y221237D01*
X151350Y221002D01*
X150975Y220775D01*
X150596Y220558D01*
X150211Y220350D01*
X149821Y220152D01*
X149427Y219963D01*
X149028Y219783D01*
X148625Y219613D01*
X148218Y219453D01*
X147807Y219303D01*
X147393Y219163D01*
X146975Y219033D01*
X146554Y218913D01*
X146131Y218803D01*
X145705Y218703D01*
X145277Y218614D01*
X144846Y218535D01*
X144414Y218467D01*
X143981Y218409D01*
X143546Y218362D01*
X143110Y218325D01*
X142674Y218298D01*
X142236Y218282D01*
X141799Y218277D01*
X132058Y218277D01*
D12*
X109079Y278109D02*
X83679Y278109D01*
X159900Y252730D02*
X159900Y251460D01*
M02*
