G04 EAGLE Gerber RS-274X export*
G75*
%MOMM*%
%FSLAX34Y34*%
%LPD*%
%INSoldermask Top*%
%IPPOS*%
%AMOC8*
5,1,8,0,0,1.08239X$1,22.5*%
G01*
G04 Define Apertures*
%ADD10C,2.003200*%
%ADD11P,1.8695X8X22.5*%
%ADD12P,1.64956X8X22.5*%
%ADD13R,1.053200X1.103200*%
%ADD14R,1.303200X1.203200*%
%ADD15C,0.959600*%
D10*
X-19050Y261620D03*
X-69850Y261620D03*
X-44450Y261620D03*
X-334010Y38100D03*
X-283210Y38100D03*
X-308610Y38100D03*
X-103620Y261620D03*
X-154420Y261620D03*
X-129020Y261620D03*
X-199390Y261790D03*
X-250190Y261790D03*
X-224790Y261790D03*
X-283210Y261790D03*
X-334010Y261790D03*
X-308610Y261790D03*
X-406400Y218440D03*
X-406400Y167640D03*
X-406400Y193040D03*
X-406400Y133350D03*
X-406400Y82550D03*
X-406400Y107950D03*
X-69850Y38100D03*
X-19050Y38100D03*
X-44450Y38100D03*
X-154420Y38100D03*
X-103620Y38100D03*
X-129020Y38100D03*
X-250190Y38100D03*
X-199390Y38100D03*
X-224790Y38100D03*
D11*
X83700Y252730D03*
X83700Y278130D03*
X109100Y252730D03*
X109100Y278130D03*
X134500Y252730D03*
X134500Y278130D03*
X159900Y252730D03*
X159900Y278130D03*
X185300Y252730D03*
X185300Y278130D03*
D12*
X-233680Y116840D03*
X-132080Y116840D03*
D13*
X-19600Y189020D03*
X-31200Y189020D03*
D14*
X-19440Y175260D03*
X-36440Y175260D03*
D15*
X-19050Y189230D03*
X-19050Y175260D03*
M02*
