%TF.GenerationSoftware,KiCad,Pcbnew,8.0.4*%
%TF.CreationDate,2025-02-21T13:16:46-08:00*%
%TF.ProjectId,TP100,54503130-302e-46b6-9963-61645f706362,rev?*%
%TF.SameCoordinates,Original*%
%TF.FileFunction,Drillmap*%
%TF.FilePolarity,Positive*%
%FSLAX45Y45*%
G04 Gerber Fmt 4.5, Leading zero omitted, Abs format (unit mm)*
G04 Created by KiCad (PCBNEW 8.0.4) date 2025-02-21 13:16:46*
%MOMM*%
%LPD*%
G01*
G04 APERTURE LIST*
%ADD10C,0.200000*%
%ADD11C,0.100000*%
%ADD12C,0.140000*%
G04 APERTURE END LIST*
D10*
X10900000Y-5000000D02*
X14000000Y-5000000D01*
X14000000Y-6850000D01*
X10900000Y-6850000D01*
X10900000Y-5000000D01*
D11*
X10995000Y-5095000D02*
X11025000Y-5125000D01*
X11025000Y-5095000D02*
X10995000Y-5125000D01*
X10995000Y-6720000D02*
X11025000Y-6750000D01*
X11025000Y-6720000D02*
X10995000Y-6750000D01*
X11055000Y-5655000D02*
X11085000Y-5685000D01*
X11085000Y-5655000D02*
X11055000Y-5685000D01*
X11055000Y-6165000D02*
X11085000Y-6195000D01*
X11085000Y-6165000D02*
X11055000Y-6195000D01*
X11350000Y-5655000D02*
X11380000Y-5685000D01*
X11380000Y-5655000D02*
X11350000Y-5685000D01*
X11350000Y-6165000D02*
X11380000Y-6195000D01*
X11380000Y-6165000D02*
X11350000Y-6195000D01*
X11530000Y-5580000D02*
X11560000Y-5610000D01*
X11560000Y-5580000D02*
X11530000Y-5610000D01*
X11530000Y-5775000D02*
X11560000Y-5805000D01*
X11560000Y-5775000D02*
X11530000Y-5805000D01*
X11530000Y-6050000D02*
X11560000Y-6080000D01*
X11560000Y-6050000D02*
X11530000Y-6080000D01*
X11530000Y-6285000D02*
X11560000Y-6315000D01*
X11560000Y-6285000D02*
X11530000Y-6315000D01*
X11530000Y-6560000D02*
X11560000Y-6590000D01*
X11560000Y-6560000D02*
X11530000Y-6590000D01*
X11565000Y-5275000D02*
X11595000Y-5305000D01*
X11595000Y-5275000D02*
X11565000Y-5305000D01*
X11730000Y-5415000D02*
X11760000Y-5445000D01*
X11760000Y-5415000D02*
X11730000Y-5445000D01*
X11795000Y-6295000D02*
X11825000Y-6325000D01*
X11825000Y-6295000D02*
X11795000Y-6325000D01*
X12085000Y-6555000D02*
X12115000Y-6585000D01*
X12115000Y-6555000D02*
X12085000Y-6585000D01*
X12720000Y-5415000D02*
X12750000Y-5445000D01*
X12750000Y-5415000D02*
X12720000Y-5445000D01*
X12910000Y-5250000D02*
X12940000Y-5280000D01*
X12940000Y-5250000D02*
X12910000Y-5280000D01*
X12940000Y-6555000D02*
X12970000Y-6585000D01*
X12970000Y-6555000D02*
X12940000Y-6585000D01*
X13255000Y-6185000D02*
X13285000Y-6215000D01*
X13285000Y-6185000D02*
X13255000Y-6215000D01*
X13290000Y-5100000D02*
X13320000Y-5130000D01*
X13320000Y-5100000D02*
X13290000Y-5130000D01*
X13295000Y-6530000D02*
X13325000Y-6560000D01*
X13325000Y-6530000D02*
X13295000Y-6560000D01*
X13490000Y-5480000D02*
X13520000Y-5510000D01*
X13520000Y-5480000D02*
X13490000Y-5510000D01*
X13625000Y-6170000D02*
X13655000Y-6200000D01*
X13655000Y-6170000D02*
X13625000Y-6200000D01*
X13625000Y-6395000D02*
X13655000Y-6425000D01*
X13655000Y-6395000D02*
X13625000Y-6425000D01*
X13730000Y-5565000D02*
X13760000Y-5595000D01*
X13760000Y-5565000D02*
X13730000Y-5595000D01*
X13835000Y-6170000D02*
X13865000Y-6200000D01*
X13865000Y-6170000D02*
X13835000Y-6200000D01*
X13835000Y-6395000D02*
X13865000Y-6425000D01*
X13865000Y-6395000D02*
X13835000Y-6425000D01*
X13870000Y-5100000D02*
X13900000Y-5130000D01*
X13900000Y-5100000D02*
X13870000Y-5130000D01*
X13870000Y-6720000D02*
X13900000Y-6750000D01*
X13900000Y-6720000D02*
X13870000Y-6750000D01*
X13545000Y-6060000D02*
G75*
G02*
X13445000Y-6060000I-50000J0D01*
G01*
X13445000Y-6060000D02*
G75*
G02*
X13545000Y-6060000I50000J0D01*
G01*
X13545000Y-6310000D02*
G75*
G02*
X13445000Y-6310000I-50000J0D01*
G01*
X13445000Y-6310000D02*
G75*
G02*
X13545000Y-6310000I50000J0D01*
G01*
X13545000Y-6560000D02*
G75*
G02*
X13445000Y-6560000I-50000J0D01*
G01*
X13445000Y-6560000D02*
G75*
G02*
X13545000Y-6560000I50000J0D01*
G01*
D12*
X11300000Y-5347000D02*
X11300000Y-5487000D01*
X11230000Y-5417000D02*
X11370000Y-5417000D01*
X11300000Y-5855000D02*
X11300000Y-5995000D01*
X11230000Y-5925000D02*
X11370000Y-5925000D01*
X11300000Y-6363000D02*
X11300000Y-6503000D01*
X11230000Y-6433000D02*
X11370000Y-6433000D01*
D10*
X11150777Y-7171484D02*
X11150777Y-6971484D01*
X11150777Y-6971484D02*
X11198396Y-6971484D01*
X11198396Y-6971484D02*
X11226967Y-6981008D01*
X11226967Y-6981008D02*
X11246015Y-7000055D01*
X11246015Y-7000055D02*
X11255539Y-7019103D01*
X11255539Y-7019103D02*
X11265062Y-7057198D01*
X11265062Y-7057198D02*
X11265062Y-7085769D01*
X11265062Y-7085769D02*
X11255539Y-7123865D01*
X11255539Y-7123865D02*
X11246015Y-7142912D01*
X11246015Y-7142912D02*
X11226967Y-7161960D01*
X11226967Y-7161960D02*
X11198396Y-7171484D01*
X11198396Y-7171484D02*
X11150777Y-7171484D01*
X11350777Y-7171484D02*
X11350777Y-7038150D01*
X11350777Y-7076246D02*
X11360301Y-7057198D01*
X11360301Y-7057198D02*
X11369824Y-7047674D01*
X11369824Y-7047674D02*
X11388872Y-7038150D01*
X11388872Y-7038150D02*
X11407920Y-7038150D01*
X11474586Y-7171484D02*
X11474586Y-7038150D01*
X11474586Y-6971484D02*
X11465062Y-6981008D01*
X11465062Y-6981008D02*
X11474586Y-6990531D01*
X11474586Y-6990531D02*
X11484110Y-6981008D01*
X11484110Y-6981008D02*
X11474586Y-6971484D01*
X11474586Y-6971484D02*
X11474586Y-6990531D01*
X11598396Y-7171484D02*
X11579348Y-7161960D01*
X11579348Y-7161960D02*
X11569824Y-7142912D01*
X11569824Y-7142912D02*
X11569824Y-6971484D01*
X11703158Y-7171484D02*
X11684110Y-7161960D01*
X11684110Y-7161960D02*
X11674586Y-7142912D01*
X11674586Y-7142912D02*
X11674586Y-6971484D01*
X11931729Y-7171484D02*
X11931729Y-6971484D01*
X11931729Y-6971484D02*
X11998396Y-7114341D01*
X11998396Y-7114341D02*
X12065062Y-6971484D01*
X12065062Y-6971484D02*
X12065062Y-7171484D01*
X12246015Y-7171484D02*
X12246015Y-7066722D01*
X12246015Y-7066722D02*
X12236491Y-7047674D01*
X12236491Y-7047674D02*
X12217443Y-7038150D01*
X12217443Y-7038150D02*
X12179348Y-7038150D01*
X12179348Y-7038150D02*
X12160301Y-7047674D01*
X12246015Y-7161960D02*
X12226967Y-7171484D01*
X12226967Y-7171484D02*
X12179348Y-7171484D01*
X12179348Y-7171484D02*
X12160301Y-7161960D01*
X12160301Y-7161960D02*
X12150777Y-7142912D01*
X12150777Y-7142912D02*
X12150777Y-7123865D01*
X12150777Y-7123865D02*
X12160301Y-7104817D01*
X12160301Y-7104817D02*
X12179348Y-7095293D01*
X12179348Y-7095293D02*
X12226967Y-7095293D01*
X12226967Y-7095293D02*
X12246015Y-7085769D01*
X12341253Y-7038150D02*
X12341253Y-7238150D01*
X12341253Y-7047674D02*
X12360301Y-7038150D01*
X12360301Y-7038150D02*
X12398396Y-7038150D01*
X12398396Y-7038150D02*
X12417443Y-7047674D01*
X12417443Y-7047674D02*
X12426967Y-7057198D01*
X12426967Y-7057198D02*
X12436491Y-7076246D01*
X12436491Y-7076246D02*
X12436491Y-7133388D01*
X12436491Y-7133388D02*
X12426967Y-7152436D01*
X12426967Y-7152436D02*
X12417443Y-7161960D01*
X12417443Y-7161960D02*
X12398396Y-7171484D01*
X12398396Y-7171484D02*
X12360301Y-7171484D01*
X12360301Y-7171484D02*
X12341253Y-7161960D01*
X12522205Y-7152436D02*
X12531729Y-7161960D01*
X12531729Y-7161960D02*
X12522205Y-7171484D01*
X12522205Y-7171484D02*
X12512682Y-7161960D01*
X12512682Y-7161960D02*
X12522205Y-7152436D01*
X12522205Y-7152436D02*
X12522205Y-7171484D01*
X12522205Y-7047674D02*
X12531729Y-7057198D01*
X12531729Y-7057198D02*
X12522205Y-7066722D01*
X12522205Y-7066722D02*
X12512682Y-7057198D01*
X12512682Y-7057198D02*
X12522205Y-7047674D01*
X12522205Y-7047674D02*
X12522205Y-7066722D01*
D11*
X10860000Y-7485000D02*
X10890000Y-7515000D01*
X10890000Y-7485000D02*
X10860000Y-7515000D01*
D10*
X11188872Y-7391484D02*
X11207920Y-7391484D01*
X11207920Y-7391484D02*
X11226967Y-7401008D01*
X11226967Y-7401008D02*
X11236491Y-7410531D01*
X11236491Y-7410531D02*
X11246015Y-7429579D01*
X11246015Y-7429579D02*
X11255539Y-7467674D01*
X11255539Y-7467674D02*
X11255539Y-7515293D01*
X11255539Y-7515293D02*
X11246015Y-7553388D01*
X11246015Y-7553388D02*
X11236491Y-7572436D01*
X11236491Y-7572436D02*
X11226967Y-7581960D01*
X11226967Y-7581960D02*
X11207920Y-7591484D01*
X11207920Y-7591484D02*
X11188872Y-7591484D01*
X11188872Y-7591484D02*
X11169824Y-7581960D01*
X11169824Y-7581960D02*
X11160301Y-7572436D01*
X11160301Y-7572436D02*
X11150777Y-7553388D01*
X11150777Y-7553388D02*
X11141253Y-7515293D01*
X11141253Y-7515293D02*
X11141253Y-7467674D01*
X11141253Y-7467674D02*
X11150777Y-7429579D01*
X11150777Y-7429579D02*
X11160301Y-7410531D01*
X11160301Y-7410531D02*
X11169824Y-7401008D01*
X11169824Y-7401008D02*
X11188872Y-7391484D01*
X11341253Y-7572436D02*
X11350777Y-7581960D01*
X11350777Y-7581960D02*
X11341253Y-7591484D01*
X11341253Y-7591484D02*
X11331729Y-7581960D01*
X11331729Y-7581960D02*
X11341253Y-7572436D01*
X11341253Y-7572436D02*
X11341253Y-7591484D01*
X11417443Y-7391484D02*
X11541253Y-7391484D01*
X11541253Y-7391484D02*
X11474586Y-7467674D01*
X11474586Y-7467674D02*
X11503158Y-7467674D01*
X11503158Y-7467674D02*
X11522205Y-7477198D01*
X11522205Y-7477198D02*
X11531729Y-7486722D01*
X11531729Y-7486722D02*
X11541253Y-7505769D01*
X11541253Y-7505769D02*
X11541253Y-7553388D01*
X11541253Y-7553388D02*
X11531729Y-7572436D01*
X11531729Y-7572436D02*
X11522205Y-7581960D01*
X11522205Y-7581960D02*
X11503158Y-7591484D01*
X11503158Y-7591484D02*
X11446015Y-7591484D01*
X11446015Y-7591484D02*
X11426967Y-7581960D01*
X11426967Y-7581960D02*
X11417443Y-7572436D01*
X11665062Y-7391484D02*
X11684110Y-7391484D01*
X11684110Y-7391484D02*
X11703158Y-7401008D01*
X11703158Y-7401008D02*
X11712682Y-7410531D01*
X11712682Y-7410531D02*
X11722205Y-7429579D01*
X11722205Y-7429579D02*
X11731729Y-7467674D01*
X11731729Y-7467674D02*
X11731729Y-7515293D01*
X11731729Y-7515293D02*
X11722205Y-7553388D01*
X11722205Y-7553388D02*
X11712682Y-7572436D01*
X11712682Y-7572436D02*
X11703158Y-7581960D01*
X11703158Y-7581960D02*
X11684110Y-7591484D01*
X11684110Y-7591484D02*
X11665062Y-7591484D01*
X11665062Y-7591484D02*
X11646015Y-7581960D01*
X11646015Y-7581960D02*
X11636491Y-7572436D01*
X11636491Y-7572436D02*
X11626967Y-7553388D01*
X11626967Y-7553388D02*
X11617443Y-7515293D01*
X11617443Y-7515293D02*
X11617443Y-7467674D01*
X11617443Y-7467674D02*
X11626967Y-7429579D01*
X11626967Y-7429579D02*
X11636491Y-7410531D01*
X11636491Y-7410531D02*
X11646015Y-7401008D01*
X11646015Y-7401008D02*
X11665062Y-7391484D01*
X11855539Y-7391484D02*
X11874586Y-7391484D01*
X11874586Y-7391484D02*
X11893634Y-7401008D01*
X11893634Y-7401008D02*
X11903158Y-7410531D01*
X11903158Y-7410531D02*
X11912682Y-7429579D01*
X11912682Y-7429579D02*
X11922205Y-7467674D01*
X11922205Y-7467674D02*
X11922205Y-7515293D01*
X11922205Y-7515293D02*
X11912682Y-7553388D01*
X11912682Y-7553388D02*
X11903158Y-7572436D01*
X11903158Y-7572436D02*
X11893634Y-7581960D01*
X11893634Y-7581960D02*
X11874586Y-7591484D01*
X11874586Y-7591484D02*
X11855539Y-7591484D01*
X11855539Y-7591484D02*
X11836491Y-7581960D01*
X11836491Y-7581960D02*
X11826967Y-7572436D01*
X11826967Y-7572436D02*
X11817443Y-7553388D01*
X11817443Y-7553388D02*
X11807920Y-7515293D01*
X11807920Y-7515293D02*
X11807920Y-7467674D01*
X11807920Y-7467674D02*
X11817443Y-7429579D01*
X11817443Y-7429579D02*
X11826967Y-7410531D01*
X11826967Y-7410531D02*
X11836491Y-7401008D01*
X11836491Y-7401008D02*
X11855539Y-7391484D01*
X12007920Y-7591484D02*
X12007920Y-7458150D01*
X12007920Y-7477198D02*
X12017443Y-7467674D01*
X12017443Y-7467674D02*
X12036491Y-7458150D01*
X12036491Y-7458150D02*
X12065063Y-7458150D01*
X12065063Y-7458150D02*
X12084110Y-7467674D01*
X12084110Y-7467674D02*
X12093634Y-7486722D01*
X12093634Y-7486722D02*
X12093634Y-7591484D01*
X12093634Y-7486722D02*
X12103158Y-7467674D01*
X12103158Y-7467674D02*
X12122205Y-7458150D01*
X12122205Y-7458150D02*
X12150777Y-7458150D01*
X12150777Y-7458150D02*
X12169824Y-7467674D01*
X12169824Y-7467674D02*
X12179348Y-7486722D01*
X12179348Y-7486722D02*
X12179348Y-7591484D01*
X12274586Y-7591484D02*
X12274586Y-7458150D01*
X12274586Y-7477198D02*
X12284110Y-7467674D01*
X12284110Y-7467674D02*
X12303158Y-7458150D01*
X12303158Y-7458150D02*
X12331729Y-7458150D01*
X12331729Y-7458150D02*
X12350777Y-7467674D01*
X12350777Y-7467674D02*
X12360301Y-7486722D01*
X12360301Y-7486722D02*
X12360301Y-7591484D01*
X12360301Y-7486722D02*
X12369824Y-7467674D01*
X12369824Y-7467674D02*
X12388872Y-7458150D01*
X12388872Y-7458150D02*
X12417443Y-7458150D01*
X12417443Y-7458150D02*
X12436491Y-7467674D01*
X12436491Y-7467674D02*
X12446015Y-7486722D01*
X12446015Y-7486722D02*
X12446015Y-7591484D01*
X12836491Y-7381960D02*
X12665063Y-7639103D01*
X13093634Y-7391484D02*
X13112682Y-7391484D01*
X13112682Y-7391484D02*
X13131729Y-7401008D01*
X13131729Y-7401008D02*
X13141253Y-7410531D01*
X13141253Y-7410531D02*
X13150777Y-7429579D01*
X13150777Y-7429579D02*
X13160301Y-7467674D01*
X13160301Y-7467674D02*
X13160301Y-7515293D01*
X13160301Y-7515293D02*
X13150777Y-7553388D01*
X13150777Y-7553388D02*
X13141253Y-7572436D01*
X13141253Y-7572436D02*
X13131729Y-7581960D01*
X13131729Y-7581960D02*
X13112682Y-7591484D01*
X13112682Y-7591484D02*
X13093634Y-7591484D01*
X13093634Y-7591484D02*
X13074586Y-7581960D01*
X13074586Y-7581960D02*
X13065063Y-7572436D01*
X13065063Y-7572436D02*
X13055539Y-7553388D01*
X13055539Y-7553388D02*
X13046015Y-7515293D01*
X13046015Y-7515293D02*
X13046015Y-7467674D01*
X13046015Y-7467674D02*
X13055539Y-7429579D01*
X13055539Y-7429579D02*
X13065063Y-7410531D01*
X13065063Y-7410531D02*
X13074586Y-7401008D01*
X13074586Y-7401008D02*
X13093634Y-7391484D01*
X13246015Y-7572436D02*
X13255539Y-7581960D01*
X13255539Y-7581960D02*
X13246015Y-7591484D01*
X13246015Y-7591484D02*
X13236491Y-7581960D01*
X13236491Y-7581960D02*
X13246015Y-7572436D01*
X13246015Y-7572436D02*
X13246015Y-7591484D01*
X13379348Y-7391484D02*
X13398396Y-7391484D01*
X13398396Y-7391484D02*
X13417444Y-7401008D01*
X13417444Y-7401008D02*
X13426967Y-7410531D01*
X13426967Y-7410531D02*
X13436491Y-7429579D01*
X13436491Y-7429579D02*
X13446015Y-7467674D01*
X13446015Y-7467674D02*
X13446015Y-7515293D01*
X13446015Y-7515293D02*
X13436491Y-7553388D01*
X13436491Y-7553388D02*
X13426967Y-7572436D01*
X13426967Y-7572436D02*
X13417444Y-7581960D01*
X13417444Y-7581960D02*
X13398396Y-7591484D01*
X13398396Y-7591484D02*
X13379348Y-7591484D01*
X13379348Y-7591484D02*
X13360301Y-7581960D01*
X13360301Y-7581960D02*
X13350777Y-7572436D01*
X13350777Y-7572436D02*
X13341253Y-7553388D01*
X13341253Y-7553388D02*
X13331729Y-7515293D01*
X13331729Y-7515293D02*
X13331729Y-7467674D01*
X13331729Y-7467674D02*
X13341253Y-7429579D01*
X13341253Y-7429579D02*
X13350777Y-7410531D01*
X13350777Y-7410531D02*
X13360301Y-7401008D01*
X13360301Y-7401008D02*
X13379348Y-7391484D01*
X13636491Y-7591484D02*
X13522206Y-7591484D01*
X13579348Y-7591484D02*
X13579348Y-7391484D01*
X13579348Y-7391484D02*
X13560301Y-7420055D01*
X13560301Y-7420055D02*
X13541253Y-7439103D01*
X13541253Y-7439103D02*
X13522206Y-7448627D01*
X13826967Y-7591484D02*
X13712682Y-7591484D01*
X13769825Y-7591484D02*
X13769825Y-7391484D01*
X13769825Y-7391484D02*
X13750777Y-7420055D01*
X13750777Y-7420055D02*
X13731729Y-7439103D01*
X13731729Y-7439103D02*
X13712682Y-7448627D01*
X13941253Y-7477198D02*
X13922206Y-7467674D01*
X13922206Y-7467674D02*
X13912682Y-7458150D01*
X13912682Y-7458150D02*
X13903158Y-7439103D01*
X13903158Y-7439103D02*
X13903158Y-7429579D01*
X13903158Y-7429579D02*
X13912682Y-7410531D01*
X13912682Y-7410531D02*
X13922206Y-7401008D01*
X13922206Y-7401008D02*
X13941253Y-7391484D01*
X13941253Y-7391484D02*
X13979348Y-7391484D01*
X13979348Y-7391484D02*
X13998396Y-7401008D01*
X13998396Y-7401008D02*
X14007920Y-7410531D01*
X14007920Y-7410531D02*
X14017444Y-7429579D01*
X14017444Y-7429579D02*
X14017444Y-7439103D01*
X14017444Y-7439103D02*
X14007920Y-7458150D01*
X14007920Y-7458150D02*
X13998396Y-7467674D01*
X13998396Y-7467674D02*
X13979348Y-7477198D01*
X13979348Y-7477198D02*
X13941253Y-7477198D01*
X13941253Y-7477198D02*
X13922206Y-7486722D01*
X13922206Y-7486722D02*
X13912682Y-7496246D01*
X13912682Y-7496246D02*
X13903158Y-7515293D01*
X13903158Y-7515293D02*
X13903158Y-7553388D01*
X13903158Y-7553388D02*
X13912682Y-7572436D01*
X13912682Y-7572436D02*
X13922206Y-7581960D01*
X13922206Y-7581960D02*
X13941253Y-7591484D01*
X13941253Y-7591484D02*
X13979348Y-7591484D01*
X13979348Y-7591484D02*
X13998396Y-7581960D01*
X13998396Y-7581960D02*
X14007920Y-7572436D01*
X14007920Y-7572436D02*
X14017444Y-7553388D01*
X14017444Y-7553388D02*
X14017444Y-7515293D01*
X14017444Y-7515293D02*
X14007920Y-7496246D01*
X14007920Y-7496246D02*
X13998396Y-7486722D01*
X13998396Y-7486722D02*
X13979348Y-7477198D01*
X14093634Y-7391484D02*
X14093634Y-7429579D01*
X14169825Y-7391484D02*
X14169825Y-7429579D01*
X14465063Y-7667674D02*
X14455539Y-7658150D01*
X14455539Y-7658150D02*
X14436491Y-7629579D01*
X14436491Y-7629579D02*
X14426968Y-7610531D01*
X14426968Y-7610531D02*
X14417444Y-7581960D01*
X14417444Y-7581960D02*
X14407920Y-7534341D01*
X14407920Y-7534341D02*
X14407920Y-7496246D01*
X14407920Y-7496246D02*
X14417444Y-7448627D01*
X14417444Y-7448627D02*
X14426968Y-7420055D01*
X14426968Y-7420055D02*
X14436491Y-7401008D01*
X14436491Y-7401008D02*
X14455539Y-7372436D01*
X14455539Y-7372436D02*
X14465063Y-7362912D01*
X14531729Y-7410531D02*
X14541253Y-7401008D01*
X14541253Y-7401008D02*
X14560301Y-7391484D01*
X14560301Y-7391484D02*
X14607920Y-7391484D01*
X14607920Y-7391484D02*
X14626968Y-7401008D01*
X14626968Y-7401008D02*
X14636491Y-7410531D01*
X14636491Y-7410531D02*
X14646015Y-7429579D01*
X14646015Y-7429579D02*
X14646015Y-7448627D01*
X14646015Y-7448627D02*
X14636491Y-7477198D01*
X14636491Y-7477198D02*
X14522206Y-7591484D01*
X14522206Y-7591484D02*
X14646015Y-7591484D01*
X14741253Y-7591484D02*
X14779348Y-7591484D01*
X14779348Y-7591484D02*
X14798396Y-7581960D01*
X14798396Y-7581960D02*
X14807920Y-7572436D01*
X14807920Y-7572436D02*
X14826968Y-7543865D01*
X14826968Y-7543865D02*
X14836491Y-7505769D01*
X14836491Y-7505769D02*
X14836491Y-7429579D01*
X14836491Y-7429579D02*
X14826968Y-7410531D01*
X14826968Y-7410531D02*
X14817444Y-7401008D01*
X14817444Y-7401008D02*
X14798396Y-7391484D01*
X14798396Y-7391484D02*
X14760301Y-7391484D01*
X14760301Y-7391484D02*
X14741253Y-7401008D01*
X14741253Y-7401008D02*
X14731729Y-7410531D01*
X14731729Y-7410531D02*
X14722206Y-7429579D01*
X14722206Y-7429579D02*
X14722206Y-7477198D01*
X14722206Y-7477198D02*
X14731729Y-7496246D01*
X14731729Y-7496246D02*
X14741253Y-7505769D01*
X14741253Y-7505769D02*
X14760301Y-7515293D01*
X14760301Y-7515293D02*
X14798396Y-7515293D01*
X14798396Y-7515293D02*
X14817444Y-7505769D01*
X14817444Y-7505769D02*
X14826968Y-7496246D01*
X14826968Y-7496246D02*
X14836491Y-7477198D01*
X15074587Y-7591484D02*
X15074587Y-7391484D01*
X15160301Y-7591484D02*
X15160301Y-7486722D01*
X15160301Y-7486722D02*
X15150777Y-7467674D01*
X15150777Y-7467674D02*
X15131730Y-7458150D01*
X15131730Y-7458150D02*
X15103158Y-7458150D01*
X15103158Y-7458150D02*
X15084110Y-7467674D01*
X15084110Y-7467674D02*
X15074587Y-7477198D01*
X15284110Y-7591484D02*
X15265063Y-7581960D01*
X15265063Y-7581960D02*
X15255539Y-7572436D01*
X15255539Y-7572436D02*
X15246015Y-7553388D01*
X15246015Y-7553388D02*
X15246015Y-7496246D01*
X15246015Y-7496246D02*
X15255539Y-7477198D01*
X15255539Y-7477198D02*
X15265063Y-7467674D01*
X15265063Y-7467674D02*
X15284110Y-7458150D01*
X15284110Y-7458150D02*
X15312682Y-7458150D01*
X15312682Y-7458150D02*
X15331730Y-7467674D01*
X15331730Y-7467674D02*
X15341253Y-7477198D01*
X15341253Y-7477198D02*
X15350777Y-7496246D01*
X15350777Y-7496246D02*
X15350777Y-7553388D01*
X15350777Y-7553388D02*
X15341253Y-7572436D01*
X15341253Y-7572436D02*
X15331730Y-7581960D01*
X15331730Y-7581960D02*
X15312682Y-7591484D01*
X15312682Y-7591484D02*
X15284110Y-7591484D01*
X15465063Y-7591484D02*
X15446015Y-7581960D01*
X15446015Y-7581960D02*
X15436491Y-7562912D01*
X15436491Y-7562912D02*
X15436491Y-7391484D01*
X15617444Y-7581960D02*
X15598396Y-7591484D01*
X15598396Y-7591484D02*
X15560301Y-7591484D01*
X15560301Y-7591484D02*
X15541253Y-7581960D01*
X15541253Y-7581960D02*
X15531730Y-7562912D01*
X15531730Y-7562912D02*
X15531730Y-7486722D01*
X15531730Y-7486722D02*
X15541253Y-7467674D01*
X15541253Y-7467674D02*
X15560301Y-7458150D01*
X15560301Y-7458150D02*
X15598396Y-7458150D01*
X15598396Y-7458150D02*
X15617444Y-7467674D01*
X15617444Y-7467674D02*
X15626968Y-7486722D01*
X15626968Y-7486722D02*
X15626968Y-7505769D01*
X15626968Y-7505769D02*
X15531730Y-7524817D01*
X15703158Y-7581960D02*
X15722206Y-7591484D01*
X15722206Y-7591484D02*
X15760301Y-7591484D01*
X15760301Y-7591484D02*
X15779349Y-7581960D01*
X15779349Y-7581960D02*
X15788872Y-7562912D01*
X15788872Y-7562912D02*
X15788872Y-7553388D01*
X15788872Y-7553388D02*
X15779349Y-7534341D01*
X15779349Y-7534341D02*
X15760301Y-7524817D01*
X15760301Y-7524817D02*
X15731730Y-7524817D01*
X15731730Y-7524817D02*
X15712682Y-7515293D01*
X15712682Y-7515293D02*
X15703158Y-7496246D01*
X15703158Y-7496246D02*
X15703158Y-7486722D01*
X15703158Y-7486722D02*
X15712682Y-7467674D01*
X15712682Y-7467674D02*
X15731730Y-7458150D01*
X15731730Y-7458150D02*
X15760301Y-7458150D01*
X15760301Y-7458150D02*
X15779349Y-7467674D01*
X15855539Y-7667674D02*
X15865063Y-7658150D01*
X15865063Y-7658150D02*
X15884111Y-7629579D01*
X15884111Y-7629579D02*
X15893634Y-7610531D01*
X15893634Y-7610531D02*
X15903158Y-7581960D01*
X15903158Y-7581960D02*
X15912682Y-7534341D01*
X15912682Y-7534341D02*
X15912682Y-7496246D01*
X15912682Y-7496246D02*
X15903158Y-7448627D01*
X15903158Y-7448627D02*
X15893634Y-7420055D01*
X15893634Y-7420055D02*
X15884111Y-7401008D01*
X15884111Y-7401008D02*
X15865063Y-7372436D01*
X15865063Y-7372436D02*
X15855539Y-7362912D01*
D11*
X10890000Y-7764000D02*
G75*
G02*
X10790000Y-7764000I-50000J0D01*
G01*
X10790000Y-7764000D02*
G75*
G02*
X10890000Y-7764000I50000J0D01*
G01*
D10*
X11255539Y-7855484D02*
X11141253Y-7855484D01*
X11198396Y-7855484D02*
X11198396Y-7655484D01*
X11198396Y-7655484D02*
X11179348Y-7684055D01*
X11179348Y-7684055D02*
X11160301Y-7703103D01*
X11160301Y-7703103D02*
X11141253Y-7712627D01*
X11341253Y-7836436D02*
X11350777Y-7845960D01*
X11350777Y-7845960D02*
X11341253Y-7855484D01*
X11341253Y-7855484D02*
X11331729Y-7845960D01*
X11331729Y-7845960D02*
X11341253Y-7836436D01*
X11341253Y-7836436D02*
X11341253Y-7855484D01*
X11474586Y-7655484D02*
X11493634Y-7655484D01*
X11493634Y-7655484D02*
X11512682Y-7665008D01*
X11512682Y-7665008D02*
X11522205Y-7674531D01*
X11522205Y-7674531D02*
X11531729Y-7693579D01*
X11531729Y-7693579D02*
X11541253Y-7731674D01*
X11541253Y-7731674D02*
X11541253Y-7779293D01*
X11541253Y-7779293D02*
X11531729Y-7817388D01*
X11531729Y-7817388D02*
X11522205Y-7836436D01*
X11522205Y-7836436D02*
X11512682Y-7845960D01*
X11512682Y-7845960D02*
X11493634Y-7855484D01*
X11493634Y-7855484D02*
X11474586Y-7855484D01*
X11474586Y-7855484D02*
X11455539Y-7845960D01*
X11455539Y-7845960D02*
X11446015Y-7836436D01*
X11446015Y-7836436D02*
X11436491Y-7817388D01*
X11436491Y-7817388D02*
X11426967Y-7779293D01*
X11426967Y-7779293D02*
X11426967Y-7731674D01*
X11426967Y-7731674D02*
X11436491Y-7693579D01*
X11436491Y-7693579D02*
X11446015Y-7674531D01*
X11446015Y-7674531D02*
X11455539Y-7665008D01*
X11455539Y-7665008D02*
X11474586Y-7655484D01*
X11665062Y-7655484D02*
X11684110Y-7655484D01*
X11684110Y-7655484D02*
X11703158Y-7665008D01*
X11703158Y-7665008D02*
X11712682Y-7674531D01*
X11712682Y-7674531D02*
X11722205Y-7693579D01*
X11722205Y-7693579D02*
X11731729Y-7731674D01*
X11731729Y-7731674D02*
X11731729Y-7779293D01*
X11731729Y-7779293D02*
X11722205Y-7817388D01*
X11722205Y-7817388D02*
X11712682Y-7836436D01*
X11712682Y-7836436D02*
X11703158Y-7845960D01*
X11703158Y-7845960D02*
X11684110Y-7855484D01*
X11684110Y-7855484D02*
X11665062Y-7855484D01*
X11665062Y-7855484D02*
X11646015Y-7845960D01*
X11646015Y-7845960D02*
X11636491Y-7836436D01*
X11636491Y-7836436D02*
X11626967Y-7817388D01*
X11626967Y-7817388D02*
X11617443Y-7779293D01*
X11617443Y-7779293D02*
X11617443Y-7731674D01*
X11617443Y-7731674D02*
X11626967Y-7693579D01*
X11626967Y-7693579D02*
X11636491Y-7674531D01*
X11636491Y-7674531D02*
X11646015Y-7665008D01*
X11646015Y-7665008D02*
X11665062Y-7655484D01*
X11855539Y-7655484D02*
X11874586Y-7655484D01*
X11874586Y-7655484D02*
X11893634Y-7665008D01*
X11893634Y-7665008D02*
X11903158Y-7674531D01*
X11903158Y-7674531D02*
X11912682Y-7693579D01*
X11912682Y-7693579D02*
X11922205Y-7731674D01*
X11922205Y-7731674D02*
X11922205Y-7779293D01*
X11922205Y-7779293D02*
X11912682Y-7817388D01*
X11912682Y-7817388D02*
X11903158Y-7836436D01*
X11903158Y-7836436D02*
X11893634Y-7845960D01*
X11893634Y-7845960D02*
X11874586Y-7855484D01*
X11874586Y-7855484D02*
X11855539Y-7855484D01*
X11855539Y-7855484D02*
X11836491Y-7845960D01*
X11836491Y-7845960D02*
X11826967Y-7836436D01*
X11826967Y-7836436D02*
X11817443Y-7817388D01*
X11817443Y-7817388D02*
X11807920Y-7779293D01*
X11807920Y-7779293D02*
X11807920Y-7731674D01*
X11807920Y-7731674D02*
X11817443Y-7693579D01*
X11817443Y-7693579D02*
X11826967Y-7674531D01*
X11826967Y-7674531D02*
X11836491Y-7665008D01*
X11836491Y-7665008D02*
X11855539Y-7655484D01*
X12007920Y-7855484D02*
X12007920Y-7722150D01*
X12007920Y-7741198D02*
X12017443Y-7731674D01*
X12017443Y-7731674D02*
X12036491Y-7722150D01*
X12036491Y-7722150D02*
X12065063Y-7722150D01*
X12065063Y-7722150D02*
X12084110Y-7731674D01*
X12084110Y-7731674D02*
X12093634Y-7750722D01*
X12093634Y-7750722D02*
X12093634Y-7855484D01*
X12093634Y-7750722D02*
X12103158Y-7731674D01*
X12103158Y-7731674D02*
X12122205Y-7722150D01*
X12122205Y-7722150D02*
X12150777Y-7722150D01*
X12150777Y-7722150D02*
X12169824Y-7731674D01*
X12169824Y-7731674D02*
X12179348Y-7750722D01*
X12179348Y-7750722D02*
X12179348Y-7855484D01*
X12274586Y-7855484D02*
X12274586Y-7722150D01*
X12274586Y-7741198D02*
X12284110Y-7731674D01*
X12284110Y-7731674D02*
X12303158Y-7722150D01*
X12303158Y-7722150D02*
X12331729Y-7722150D01*
X12331729Y-7722150D02*
X12350777Y-7731674D01*
X12350777Y-7731674D02*
X12360301Y-7750722D01*
X12360301Y-7750722D02*
X12360301Y-7855484D01*
X12360301Y-7750722D02*
X12369824Y-7731674D01*
X12369824Y-7731674D02*
X12388872Y-7722150D01*
X12388872Y-7722150D02*
X12417443Y-7722150D01*
X12417443Y-7722150D02*
X12436491Y-7731674D01*
X12436491Y-7731674D02*
X12446015Y-7750722D01*
X12446015Y-7750722D02*
X12446015Y-7855484D01*
X12836491Y-7645960D02*
X12665063Y-7903103D01*
X13093634Y-7655484D02*
X13112682Y-7655484D01*
X13112682Y-7655484D02*
X13131729Y-7665008D01*
X13131729Y-7665008D02*
X13141253Y-7674531D01*
X13141253Y-7674531D02*
X13150777Y-7693579D01*
X13150777Y-7693579D02*
X13160301Y-7731674D01*
X13160301Y-7731674D02*
X13160301Y-7779293D01*
X13160301Y-7779293D02*
X13150777Y-7817388D01*
X13150777Y-7817388D02*
X13141253Y-7836436D01*
X13141253Y-7836436D02*
X13131729Y-7845960D01*
X13131729Y-7845960D02*
X13112682Y-7855484D01*
X13112682Y-7855484D02*
X13093634Y-7855484D01*
X13093634Y-7855484D02*
X13074586Y-7845960D01*
X13074586Y-7845960D02*
X13065063Y-7836436D01*
X13065063Y-7836436D02*
X13055539Y-7817388D01*
X13055539Y-7817388D02*
X13046015Y-7779293D01*
X13046015Y-7779293D02*
X13046015Y-7731674D01*
X13046015Y-7731674D02*
X13055539Y-7693579D01*
X13055539Y-7693579D02*
X13065063Y-7674531D01*
X13065063Y-7674531D02*
X13074586Y-7665008D01*
X13074586Y-7665008D02*
X13093634Y-7655484D01*
X13246015Y-7836436D02*
X13255539Y-7845960D01*
X13255539Y-7845960D02*
X13246015Y-7855484D01*
X13246015Y-7855484D02*
X13236491Y-7845960D01*
X13236491Y-7845960D02*
X13246015Y-7836436D01*
X13246015Y-7836436D02*
X13246015Y-7855484D01*
X13379348Y-7655484D02*
X13398396Y-7655484D01*
X13398396Y-7655484D02*
X13417444Y-7665008D01*
X13417444Y-7665008D02*
X13426967Y-7674531D01*
X13426967Y-7674531D02*
X13436491Y-7693579D01*
X13436491Y-7693579D02*
X13446015Y-7731674D01*
X13446015Y-7731674D02*
X13446015Y-7779293D01*
X13446015Y-7779293D02*
X13436491Y-7817388D01*
X13436491Y-7817388D02*
X13426967Y-7836436D01*
X13426967Y-7836436D02*
X13417444Y-7845960D01*
X13417444Y-7845960D02*
X13398396Y-7855484D01*
X13398396Y-7855484D02*
X13379348Y-7855484D01*
X13379348Y-7855484D02*
X13360301Y-7845960D01*
X13360301Y-7845960D02*
X13350777Y-7836436D01*
X13350777Y-7836436D02*
X13341253Y-7817388D01*
X13341253Y-7817388D02*
X13331729Y-7779293D01*
X13331729Y-7779293D02*
X13331729Y-7731674D01*
X13331729Y-7731674D02*
X13341253Y-7693579D01*
X13341253Y-7693579D02*
X13350777Y-7674531D01*
X13350777Y-7674531D02*
X13360301Y-7665008D01*
X13360301Y-7665008D02*
X13379348Y-7655484D01*
X13512682Y-7655484D02*
X13636491Y-7655484D01*
X13636491Y-7655484D02*
X13569825Y-7731674D01*
X13569825Y-7731674D02*
X13598396Y-7731674D01*
X13598396Y-7731674D02*
X13617444Y-7741198D01*
X13617444Y-7741198D02*
X13626967Y-7750722D01*
X13626967Y-7750722D02*
X13636491Y-7769769D01*
X13636491Y-7769769D02*
X13636491Y-7817388D01*
X13636491Y-7817388D02*
X13626967Y-7836436D01*
X13626967Y-7836436D02*
X13617444Y-7845960D01*
X13617444Y-7845960D02*
X13598396Y-7855484D01*
X13598396Y-7855484D02*
X13541253Y-7855484D01*
X13541253Y-7855484D02*
X13522206Y-7845960D01*
X13522206Y-7845960D02*
X13512682Y-7836436D01*
X13731729Y-7855484D02*
X13769825Y-7855484D01*
X13769825Y-7855484D02*
X13788872Y-7845960D01*
X13788872Y-7845960D02*
X13798396Y-7836436D01*
X13798396Y-7836436D02*
X13817444Y-7807865D01*
X13817444Y-7807865D02*
X13826967Y-7769769D01*
X13826967Y-7769769D02*
X13826967Y-7693579D01*
X13826967Y-7693579D02*
X13817444Y-7674531D01*
X13817444Y-7674531D02*
X13807920Y-7665008D01*
X13807920Y-7665008D02*
X13788872Y-7655484D01*
X13788872Y-7655484D02*
X13750777Y-7655484D01*
X13750777Y-7655484D02*
X13731729Y-7665008D01*
X13731729Y-7665008D02*
X13722206Y-7674531D01*
X13722206Y-7674531D02*
X13712682Y-7693579D01*
X13712682Y-7693579D02*
X13712682Y-7741198D01*
X13712682Y-7741198D02*
X13722206Y-7760246D01*
X13722206Y-7760246D02*
X13731729Y-7769769D01*
X13731729Y-7769769D02*
X13750777Y-7779293D01*
X13750777Y-7779293D02*
X13788872Y-7779293D01*
X13788872Y-7779293D02*
X13807920Y-7769769D01*
X13807920Y-7769769D02*
X13817444Y-7760246D01*
X13817444Y-7760246D02*
X13826967Y-7741198D01*
X13998396Y-7722150D02*
X13998396Y-7855484D01*
X13950777Y-7645960D02*
X13903158Y-7788817D01*
X13903158Y-7788817D02*
X14026967Y-7788817D01*
X14093634Y-7655484D02*
X14093634Y-7693579D01*
X14169825Y-7655484D02*
X14169825Y-7693579D01*
X14465063Y-7931674D02*
X14455539Y-7922150D01*
X14455539Y-7922150D02*
X14436491Y-7893579D01*
X14436491Y-7893579D02*
X14426968Y-7874531D01*
X14426968Y-7874531D02*
X14417444Y-7845960D01*
X14417444Y-7845960D02*
X14407920Y-7798341D01*
X14407920Y-7798341D02*
X14407920Y-7760246D01*
X14407920Y-7760246D02*
X14417444Y-7712627D01*
X14417444Y-7712627D02*
X14426968Y-7684055D01*
X14426968Y-7684055D02*
X14436491Y-7665008D01*
X14436491Y-7665008D02*
X14455539Y-7636436D01*
X14455539Y-7636436D02*
X14465063Y-7626912D01*
X14522206Y-7655484D02*
X14646015Y-7655484D01*
X14646015Y-7655484D02*
X14579348Y-7731674D01*
X14579348Y-7731674D02*
X14607920Y-7731674D01*
X14607920Y-7731674D02*
X14626968Y-7741198D01*
X14626968Y-7741198D02*
X14636491Y-7750722D01*
X14636491Y-7750722D02*
X14646015Y-7769769D01*
X14646015Y-7769769D02*
X14646015Y-7817388D01*
X14646015Y-7817388D02*
X14636491Y-7836436D01*
X14636491Y-7836436D02*
X14626968Y-7845960D01*
X14626968Y-7845960D02*
X14607920Y-7855484D01*
X14607920Y-7855484D02*
X14550777Y-7855484D01*
X14550777Y-7855484D02*
X14531729Y-7845960D01*
X14531729Y-7845960D02*
X14522206Y-7836436D01*
X14884110Y-7855484D02*
X14884110Y-7655484D01*
X14969825Y-7855484D02*
X14969825Y-7750722D01*
X14969825Y-7750722D02*
X14960301Y-7731674D01*
X14960301Y-7731674D02*
X14941253Y-7722150D01*
X14941253Y-7722150D02*
X14912682Y-7722150D01*
X14912682Y-7722150D02*
X14893634Y-7731674D01*
X14893634Y-7731674D02*
X14884110Y-7741198D01*
X15093634Y-7855484D02*
X15074587Y-7845960D01*
X15074587Y-7845960D02*
X15065063Y-7836436D01*
X15065063Y-7836436D02*
X15055539Y-7817388D01*
X15055539Y-7817388D02*
X15055539Y-7760246D01*
X15055539Y-7760246D02*
X15065063Y-7741198D01*
X15065063Y-7741198D02*
X15074587Y-7731674D01*
X15074587Y-7731674D02*
X15093634Y-7722150D01*
X15093634Y-7722150D02*
X15122206Y-7722150D01*
X15122206Y-7722150D02*
X15141253Y-7731674D01*
X15141253Y-7731674D02*
X15150777Y-7741198D01*
X15150777Y-7741198D02*
X15160301Y-7760246D01*
X15160301Y-7760246D02*
X15160301Y-7817388D01*
X15160301Y-7817388D02*
X15150777Y-7836436D01*
X15150777Y-7836436D02*
X15141253Y-7845960D01*
X15141253Y-7845960D02*
X15122206Y-7855484D01*
X15122206Y-7855484D02*
X15093634Y-7855484D01*
X15274587Y-7855484D02*
X15255539Y-7845960D01*
X15255539Y-7845960D02*
X15246015Y-7826912D01*
X15246015Y-7826912D02*
X15246015Y-7655484D01*
X15426968Y-7845960D02*
X15407920Y-7855484D01*
X15407920Y-7855484D02*
X15369825Y-7855484D01*
X15369825Y-7855484D02*
X15350777Y-7845960D01*
X15350777Y-7845960D02*
X15341253Y-7826912D01*
X15341253Y-7826912D02*
X15341253Y-7750722D01*
X15341253Y-7750722D02*
X15350777Y-7731674D01*
X15350777Y-7731674D02*
X15369825Y-7722150D01*
X15369825Y-7722150D02*
X15407920Y-7722150D01*
X15407920Y-7722150D02*
X15426968Y-7731674D01*
X15426968Y-7731674D02*
X15436491Y-7750722D01*
X15436491Y-7750722D02*
X15436491Y-7769769D01*
X15436491Y-7769769D02*
X15341253Y-7788817D01*
X15512682Y-7845960D02*
X15531730Y-7855484D01*
X15531730Y-7855484D02*
X15569825Y-7855484D01*
X15569825Y-7855484D02*
X15588872Y-7845960D01*
X15588872Y-7845960D02*
X15598396Y-7826912D01*
X15598396Y-7826912D02*
X15598396Y-7817388D01*
X15598396Y-7817388D02*
X15588872Y-7798341D01*
X15588872Y-7798341D02*
X15569825Y-7788817D01*
X15569825Y-7788817D02*
X15541253Y-7788817D01*
X15541253Y-7788817D02*
X15522206Y-7779293D01*
X15522206Y-7779293D02*
X15512682Y-7760246D01*
X15512682Y-7760246D02*
X15512682Y-7750722D01*
X15512682Y-7750722D02*
X15522206Y-7731674D01*
X15522206Y-7731674D02*
X15541253Y-7722150D01*
X15541253Y-7722150D02*
X15569825Y-7722150D01*
X15569825Y-7722150D02*
X15588872Y-7731674D01*
X15665063Y-7931674D02*
X15674587Y-7922150D01*
X15674587Y-7922150D02*
X15693634Y-7893579D01*
X15693634Y-7893579D02*
X15703158Y-7874531D01*
X15703158Y-7874531D02*
X15712682Y-7845960D01*
X15712682Y-7845960D02*
X15722206Y-7798341D01*
X15722206Y-7798341D02*
X15722206Y-7760246D01*
X15722206Y-7760246D02*
X15712682Y-7712627D01*
X15712682Y-7712627D02*
X15703158Y-7684055D01*
X15703158Y-7684055D02*
X15693634Y-7665008D01*
X15693634Y-7665008D02*
X15674587Y-7636436D01*
X15674587Y-7636436D02*
X15665063Y-7626912D01*
D12*
X10820000Y-7958000D02*
X10820000Y-8098000D01*
X10750000Y-8028000D02*
X10890000Y-8028000D01*
D10*
X11255539Y-8119484D02*
X11141253Y-8119484D01*
X11198396Y-8119484D02*
X11198396Y-7919484D01*
X11198396Y-7919484D02*
X11179348Y-7948055D01*
X11179348Y-7948055D02*
X11160301Y-7967103D01*
X11160301Y-7967103D02*
X11141253Y-7976627D01*
X11341253Y-8100436D02*
X11350777Y-8109960D01*
X11350777Y-8109960D02*
X11341253Y-8119484D01*
X11341253Y-8119484D02*
X11331729Y-8109960D01*
X11331729Y-8109960D02*
X11341253Y-8100436D01*
X11341253Y-8100436D02*
X11341253Y-8119484D01*
X11522205Y-7986150D02*
X11522205Y-8119484D01*
X11474586Y-7909960D02*
X11426967Y-8052817D01*
X11426967Y-8052817D02*
X11550777Y-8052817D01*
X11665062Y-7919484D02*
X11684110Y-7919484D01*
X11684110Y-7919484D02*
X11703158Y-7929008D01*
X11703158Y-7929008D02*
X11712682Y-7938531D01*
X11712682Y-7938531D02*
X11722205Y-7957579D01*
X11722205Y-7957579D02*
X11731729Y-7995674D01*
X11731729Y-7995674D02*
X11731729Y-8043293D01*
X11731729Y-8043293D02*
X11722205Y-8081388D01*
X11722205Y-8081388D02*
X11712682Y-8100436D01*
X11712682Y-8100436D02*
X11703158Y-8109960D01*
X11703158Y-8109960D02*
X11684110Y-8119484D01*
X11684110Y-8119484D02*
X11665062Y-8119484D01*
X11665062Y-8119484D02*
X11646015Y-8109960D01*
X11646015Y-8109960D02*
X11636491Y-8100436D01*
X11636491Y-8100436D02*
X11626967Y-8081388D01*
X11626967Y-8081388D02*
X11617443Y-8043293D01*
X11617443Y-8043293D02*
X11617443Y-7995674D01*
X11617443Y-7995674D02*
X11626967Y-7957579D01*
X11626967Y-7957579D02*
X11636491Y-7938531D01*
X11636491Y-7938531D02*
X11646015Y-7929008D01*
X11646015Y-7929008D02*
X11665062Y-7919484D01*
X11855539Y-7919484D02*
X11874586Y-7919484D01*
X11874586Y-7919484D02*
X11893634Y-7929008D01*
X11893634Y-7929008D02*
X11903158Y-7938531D01*
X11903158Y-7938531D02*
X11912682Y-7957579D01*
X11912682Y-7957579D02*
X11922205Y-7995674D01*
X11922205Y-7995674D02*
X11922205Y-8043293D01*
X11922205Y-8043293D02*
X11912682Y-8081388D01*
X11912682Y-8081388D02*
X11903158Y-8100436D01*
X11903158Y-8100436D02*
X11893634Y-8109960D01*
X11893634Y-8109960D02*
X11874586Y-8119484D01*
X11874586Y-8119484D02*
X11855539Y-8119484D01*
X11855539Y-8119484D02*
X11836491Y-8109960D01*
X11836491Y-8109960D02*
X11826967Y-8100436D01*
X11826967Y-8100436D02*
X11817443Y-8081388D01*
X11817443Y-8081388D02*
X11807920Y-8043293D01*
X11807920Y-8043293D02*
X11807920Y-7995674D01*
X11807920Y-7995674D02*
X11817443Y-7957579D01*
X11817443Y-7957579D02*
X11826967Y-7938531D01*
X11826967Y-7938531D02*
X11836491Y-7929008D01*
X11836491Y-7929008D02*
X11855539Y-7919484D01*
X12007920Y-8119484D02*
X12007920Y-7986150D01*
X12007920Y-8005198D02*
X12017443Y-7995674D01*
X12017443Y-7995674D02*
X12036491Y-7986150D01*
X12036491Y-7986150D02*
X12065063Y-7986150D01*
X12065063Y-7986150D02*
X12084110Y-7995674D01*
X12084110Y-7995674D02*
X12093634Y-8014722D01*
X12093634Y-8014722D02*
X12093634Y-8119484D01*
X12093634Y-8014722D02*
X12103158Y-7995674D01*
X12103158Y-7995674D02*
X12122205Y-7986150D01*
X12122205Y-7986150D02*
X12150777Y-7986150D01*
X12150777Y-7986150D02*
X12169824Y-7995674D01*
X12169824Y-7995674D02*
X12179348Y-8014722D01*
X12179348Y-8014722D02*
X12179348Y-8119484D01*
X12274586Y-8119484D02*
X12274586Y-7986150D01*
X12274586Y-8005198D02*
X12284110Y-7995674D01*
X12284110Y-7995674D02*
X12303158Y-7986150D01*
X12303158Y-7986150D02*
X12331729Y-7986150D01*
X12331729Y-7986150D02*
X12350777Y-7995674D01*
X12350777Y-7995674D02*
X12360301Y-8014722D01*
X12360301Y-8014722D02*
X12360301Y-8119484D01*
X12360301Y-8014722D02*
X12369824Y-7995674D01*
X12369824Y-7995674D02*
X12388872Y-7986150D01*
X12388872Y-7986150D02*
X12417443Y-7986150D01*
X12417443Y-7986150D02*
X12436491Y-7995674D01*
X12436491Y-7995674D02*
X12446015Y-8014722D01*
X12446015Y-8014722D02*
X12446015Y-8119484D01*
X12836491Y-7909960D02*
X12665063Y-8167103D01*
X13093634Y-7919484D02*
X13112682Y-7919484D01*
X13112682Y-7919484D02*
X13131729Y-7929008D01*
X13131729Y-7929008D02*
X13141253Y-7938531D01*
X13141253Y-7938531D02*
X13150777Y-7957579D01*
X13150777Y-7957579D02*
X13160301Y-7995674D01*
X13160301Y-7995674D02*
X13160301Y-8043293D01*
X13160301Y-8043293D02*
X13150777Y-8081388D01*
X13150777Y-8081388D02*
X13141253Y-8100436D01*
X13141253Y-8100436D02*
X13131729Y-8109960D01*
X13131729Y-8109960D02*
X13112682Y-8119484D01*
X13112682Y-8119484D02*
X13093634Y-8119484D01*
X13093634Y-8119484D02*
X13074586Y-8109960D01*
X13074586Y-8109960D02*
X13065063Y-8100436D01*
X13065063Y-8100436D02*
X13055539Y-8081388D01*
X13055539Y-8081388D02*
X13046015Y-8043293D01*
X13046015Y-8043293D02*
X13046015Y-7995674D01*
X13046015Y-7995674D02*
X13055539Y-7957579D01*
X13055539Y-7957579D02*
X13065063Y-7938531D01*
X13065063Y-7938531D02*
X13074586Y-7929008D01*
X13074586Y-7929008D02*
X13093634Y-7919484D01*
X13246015Y-8100436D02*
X13255539Y-8109960D01*
X13255539Y-8109960D02*
X13246015Y-8119484D01*
X13246015Y-8119484D02*
X13236491Y-8109960D01*
X13236491Y-8109960D02*
X13246015Y-8100436D01*
X13246015Y-8100436D02*
X13246015Y-8119484D01*
X13379348Y-7919484D02*
X13398396Y-7919484D01*
X13398396Y-7919484D02*
X13417444Y-7929008D01*
X13417444Y-7929008D02*
X13426967Y-7938531D01*
X13426967Y-7938531D02*
X13436491Y-7957579D01*
X13436491Y-7957579D02*
X13446015Y-7995674D01*
X13446015Y-7995674D02*
X13446015Y-8043293D01*
X13446015Y-8043293D02*
X13436491Y-8081388D01*
X13436491Y-8081388D02*
X13426967Y-8100436D01*
X13426967Y-8100436D02*
X13417444Y-8109960D01*
X13417444Y-8109960D02*
X13398396Y-8119484D01*
X13398396Y-8119484D02*
X13379348Y-8119484D01*
X13379348Y-8119484D02*
X13360301Y-8109960D01*
X13360301Y-8109960D02*
X13350777Y-8100436D01*
X13350777Y-8100436D02*
X13341253Y-8081388D01*
X13341253Y-8081388D02*
X13331729Y-8043293D01*
X13331729Y-8043293D02*
X13331729Y-7995674D01*
X13331729Y-7995674D02*
X13341253Y-7957579D01*
X13341253Y-7957579D02*
X13350777Y-7938531D01*
X13350777Y-7938531D02*
X13360301Y-7929008D01*
X13360301Y-7929008D02*
X13379348Y-7919484D01*
X13626967Y-7919484D02*
X13531729Y-7919484D01*
X13531729Y-7919484D02*
X13522206Y-8014722D01*
X13522206Y-8014722D02*
X13531729Y-8005198D01*
X13531729Y-8005198D02*
X13550777Y-7995674D01*
X13550777Y-7995674D02*
X13598396Y-7995674D01*
X13598396Y-7995674D02*
X13617444Y-8005198D01*
X13617444Y-8005198D02*
X13626967Y-8014722D01*
X13626967Y-8014722D02*
X13636491Y-8033769D01*
X13636491Y-8033769D02*
X13636491Y-8081388D01*
X13636491Y-8081388D02*
X13626967Y-8100436D01*
X13626967Y-8100436D02*
X13617444Y-8109960D01*
X13617444Y-8109960D02*
X13598396Y-8119484D01*
X13598396Y-8119484D02*
X13550777Y-8119484D01*
X13550777Y-8119484D02*
X13531729Y-8109960D01*
X13531729Y-8109960D02*
X13522206Y-8100436D01*
X13817444Y-7919484D02*
X13722206Y-7919484D01*
X13722206Y-7919484D02*
X13712682Y-8014722D01*
X13712682Y-8014722D02*
X13722206Y-8005198D01*
X13722206Y-8005198D02*
X13741253Y-7995674D01*
X13741253Y-7995674D02*
X13788872Y-7995674D01*
X13788872Y-7995674D02*
X13807920Y-8005198D01*
X13807920Y-8005198D02*
X13817444Y-8014722D01*
X13817444Y-8014722D02*
X13826967Y-8033769D01*
X13826967Y-8033769D02*
X13826967Y-8081388D01*
X13826967Y-8081388D02*
X13817444Y-8100436D01*
X13817444Y-8100436D02*
X13807920Y-8109960D01*
X13807920Y-8109960D02*
X13788872Y-8119484D01*
X13788872Y-8119484D02*
X13741253Y-8119484D01*
X13741253Y-8119484D02*
X13722206Y-8109960D01*
X13722206Y-8109960D02*
X13712682Y-8100436D01*
X14017444Y-8119484D02*
X13903158Y-8119484D01*
X13960301Y-8119484D02*
X13960301Y-7919484D01*
X13960301Y-7919484D02*
X13941253Y-7948055D01*
X13941253Y-7948055D02*
X13922206Y-7967103D01*
X13922206Y-7967103D02*
X13903158Y-7976627D01*
X14093634Y-7919484D02*
X14093634Y-7957579D01*
X14169825Y-7919484D02*
X14169825Y-7957579D01*
X14465063Y-8195674D02*
X14455539Y-8186150D01*
X14455539Y-8186150D02*
X14436491Y-8157579D01*
X14436491Y-8157579D02*
X14426968Y-8138531D01*
X14426968Y-8138531D02*
X14417444Y-8109960D01*
X14417444Y-8109960D02*
X14407920Y-8062341D01*
X14407920Y-8062341D02*
X14407920Y-8024246D01*
X14407920Y-8024246D02*
X14417444Y-7976627D01*
X14417444Y-7976627D02*
X14426968Y-7948055D01*
X14426968Y-7948055D02*
X14436491Y-7929008D01*
X14436491Y-7929008D02*
X14455539Y-7900436D01*
X14455539Y-7900436D02*
X14465063Y-7890912D01*
X14522206Y-7919484D02*
X14646015Y-7919484D01*
X14646015Y-7919484D02*
X14579348Y-7995674D01*
X14579348Y-7995674D02*
X14607920Y-7995674D01*
X14607920Y-7995674D02*
X14626968Y-8005198D01*
X14626968Y-8005198D02*
X14636491Y-8014722D01*
X14636491Y-8014722D02*
X14646015Y-8033769D01*
X14646015Y-8033769D02*
X14646015Y-8081388D01*
X14646015Y-8081388D02*
X14636491Y-8100436D01*
X14636491Y-8100436D02*
X14626968Y-8109960D01*
X14626968Y-8109960D02*
X14607920Y-8119484D01*
X14607920Y-8119484D02*
X14550777Y-8119484D01*
X14550777Y-8119484D02*
X14531729Y-8109960D01*
X14531729Y-8109960D02*
X14522206Y-8100436D01*
X14884110Y-8119484D02*
X14884110Y-7919484D01*
X14969825Y-8119484D02*
X14969825Y-8014722D01*
X14969825Y-8014722D02*
X14960301Y-7995674D01*
X14960301Y-7995674D02*
X14941253Y-7986150D01*
X14941253Y-7986150D02*
X14912682Y-7986150D01*
X14912682Y-7986150D02*
X14893634Y-7995674D01*
X14893634Y-7995674D02*
X14884110Y-8005198D01*
X15093634Y-8119484D02*
X15074587Y-8109960D01*
X15074587Y-8109960D02*
X15065063Y-8100436D01*
X15065063Y-8100436D02*
X15055539Y-8081388D01*
X15055539Y-8081388D02*
X15055539Y-8024246D01*
X15055539Y-8024246D02*
X15065063Y-8005198D01*
X15065063Y-8005198D02*
X15074587Y-7995674D01*
X15074587Y-7995674D02*
X15093634Y-7986150D01*
X15093634Y-7986150D02*
X15122206Y-7986150D01*
X15122206Y-7986150D02*
X15141253Y-7995674D01*
X15141253Y-7995674D02*
X15150777Y-8005198D01*
X15150777Y-8005198D02*
X15160301Y-8024246D01*
X15160301Y-8024246D02*
X15160301Y-8081388D01*
X15160301Y-8081388D02*
X15150777Y-8100436D01*
X15150777Y-8100436D02*
X15141253Y-8109960D01*
X15141253Y-8109960D02*
X15122206Y-8119484D01*
X15122206Y-8119484D02*
X15093634Y-8119484D01*
X15274587Y-8119484D02*
X15255539Y-8109960D01*
X15255539Y-8109960D02*
X15246015Y-8090912D01*
X15246015Y-8090912D02*
X15246015Y-7919484D01*
X15426968Y-8109960D02*
X15407920Y-8119484D01*
X15407920Y-8119484D02*
X15369825Y-8119484D01*
X15369825Y-8119484D02*
X15350777Y-8109960D01*
X15350777Y-8109960D02*
X15341253Y-8090912D01*
X15341253Y-8090912D02*
X15341253Y-8014722D01*
X15341253Y-8014722D02*
X15350777Y-7995674D01*
X15350777Y-7995674D02*
X15369825Y-7986150D01*
X15369825Y-7986150D02*
X15407920Y-7986150D01*
X15407920Y-7986150D02*
X15426968Y-7995674D01*
X15426968Y-7995674D02*
X15436491Y-8014722D01*
X15436491Y-8014722D02*
X15436491Y-8033769D01*
X15436491Y-8033769D02*
X15341253Y-8052817D01*
X15512682Y-8109960D02*
X15531730Y-8119484D01*
X15531730Y-8119484D02*
X15569825Y-8119484D01*
X15569825Y-8119484D02*
X15588872Y-8109960D01*
X15588872Y-8109960D02*
X15598396Y-8090912D01*
X15598396Y-8090912D02*
X15598396Y-8081388D01*
X15598396Y-8081388D02*
X15588872Y-8062341D01*
X15588872Y-8062341D02*
X15569825Y-8052817D01*
X15569825Y-8052817D02*
X15541253Y-8052817D01*
X15541253Y-8052817D02*
X15522206Y-8043293D01*
X15522206Y-8043293D02*
X15512682Y-8024246D01*
X15512682Y-8024246D02*
X15512682Y-8014722D01*
X15512682Y-8014722D02*
X15522206Y-7995674D01*
X15522206Y-7995674D02*
X15541253Y-7986150D01*
X15541253Y-7986150D02*
X15569825Y-7986150D01*
X15569825Y-7986150D02*
X15588872Y-7995674D01*
X15665063Y-8195674D02*
X15674587Y-8186150D01*
X15674587Y-8186150D02*
X15693634Y-8157579D01*
X15693634Y-8157579D02*
X15703158Y-8138531D01*
X15703158Y-8138531D02*
X15712682Y-8109960D01*
X15712682Y-8109960D02*
X15722206Y-8062341D01*
X15722206Y-8062341D02*
X15722206Y-8024246D01*
X15722206Y-8024246D02*
X15712682Y-7976627D01*
X15712682Y-7976627D02*
X15703158Y-7948055D01*
X15703158Y-7948055D02*
X15693634Y-7929008D01*
X15693634Y-7929008D02*
X15674587Y-7900436D01*
X15674587Y-7900436D02*
X15665063Y-7890912D01*
M02*
