M48
;GenerationSoftware,Autodesk,EAGLE,9.7.0*%
;CreationDate,2024-10-23T00:12:10Z*%
FMAT,2
ICI,OFF
METRIC,TZ,000.000
T4C0.350
T3C0.813
T2C1.016
T1C1.200
%
G90
M71
T1
X-40640Y10795
X-22479Y3810
X-1905Y26162
X-6985Y26162
X-4445Y26162
X-33401Y3810
X-28321Y3810
X-30861Y3810
X-10362Y26162
X-15442Y26162
X-12902Y26162
X-19939Y26179
X-25019Y26179
X-22479Y26179
X-28321Y26179
X-33401Y26179
X-30861Y26179
X-40640Y21844
X-40640Y16764
X-40640Y19304
X-40640Y13335
X-40640Y8255
X-19939Y3810
X-6985Y3810
X-1905Y3810
X-4445Y3810
X-15442Y3810
X-10362Y3810
X-12902Y3810
X-25019Y3810
T2
X18530Y25273
X18530Y27813
X8370Y25273
X8370Y27813
X10910Y25273
X10910Y27813
X13450Y25273
X13450Y27813
X15990Y25273
X15990Y27813
T3
X-13208Y11684
X-23368Y11684
T4
X-1905Y17526
X-1905Y18923
M30