G04 #@! TF.GenerationSoftware,KiCad,Pcbnew,8.0.4*
G04 #@! TF.CreationDate,2025-02-21T13:16:47-08:00*
G04 #@! TF.ProjectId,TP100,54503130-302e-46b6-9963-61645f706362,rev?*
G04 #@! TF.SameCoordinates,Original*
G04 #@! TF.FileFunction,Copper,L1,Top*
G04 #@! TF.FilePolarity,Positive*
%FSLAX46Y46*%
G04 Gerber Fmt 4.6, Leading zero omitted, Abs format (unit mm)*
G04 Created by KiCad (PCBNEW 8.0.4) date 2025-02-21 13:16:47*
%MOMM*%
%LPD*%
G01*
G04 APERTURE LIST*
G04 Aperture macros list*
%AMRoundRect*
0 Rectangle with rounded corners*
0 $1 Rounding radius*
0 $2 $3 $4 $5 $6 $7 $8 $9 X,Y pos of 4 corners*
0 Add a 4 corners polygon primitive as box body*
4,1,4,$2,$3,$4,$5,$6,$7,$8,$9,$2,$3,0*
0 Add four circle primitives for the rounded corners*
1,1,$1+$1,$2,$3*
1,1,$1+$1,$4,$5*
1,1,$1+$1,$6,$7*
1,1,$1+$1,$8,$9*
0 Add four rect primitives between the rounded corners*
20,1,$1+$1,$2,$3,$4,$5,0*
20,1,$1+$1,$4,$5,$6,$7,0*
20,1,$1+$1,$6,$7,$8,$9,0*
20,1,$1+$1,$8,$9,$2,$3,0*%
G04 Aperture macros list end*
G04 #@! TA.AperFunction,SMDPad,CuDef*
%ADD10RoundRect,0.237500X-0.300000X-0.237500X0.300000X-0.237500X0.300000X0.237500X-0.300000X0.237500X0*%
G04 #@! TD*
G04 #@! TA.AperFunction,ComponentPad*
%ADD11RoundRect,0.249999X-1.550001X0.790001X-1.550001X-0.790001X1.550001X-0.790001X1.550001X0.790001X0*%
G04 #@! TD*
G04 #@! TA.AperFunction,ComponentPad*
%ADD12O,3.600000X2.080000*%
G04 #@! TD*
G04 #@! TA.AperFunction,SMDPad,CuDef*
%ADD13RoundRect,0.237500X-0.250000X-0.237500X0.250000X-0.237500X0.250000X0.237500X-0.250000X0.237500X0*%
G04 #@! TD*
G04 #@! TA.AperFunction,SMDPad,CuDef*
%ADD14RoundRect,0.100000X0.650000X0.100000X-0.650000X0.100000X-0.650000X-0.100000X0.650000X-0.100000X0*%
G04 #@! TD*
G04 #@! TA.AperFunction,SMDPad,CuDef*
%ADD15RoundRect,0.237500X0.250000X0.237500X-0.250000X0.237500X-0.250000X-0.237500X0.250000X-0.237500X0*%
G04 #@! TD*
G04 #@! TA.AperFunction,SMDPad,CuDef*
%ADD16RoundRect,0.237500X0.237500X-0.300000X0.237500X0.300000X-0.237500X0.300000X-0.237500X-0.300000X0*%
G04 #@! TD*
G04 #@! TA.AperFunction,SMDPad,CuDef*
%ADD17R,1.460500X0.558800*%
G04 #@! TD*
G04 #@! TA.AperFunction,ComponentPad*
%ADD18R,1.508000X1.508000*%
G04 #@! TD*
G04 #@! TA.AperFunction,ComponentPad*
%ADD19C,1.508000*%
G04 #@! TD*
G04 #@! TA.AperFunction,ViaPad*
%ADD20C,0.600000*%
G04 #@! TD*
G04 #@! TA.AperFunction,Conductor*
%ADD21C,0.400000*%
G04 #@! TD*
G04 #@! TA.AperFunction,Conductor*
%ADD22C,0.500000*%
G04 #@! TD*
G04 #@! TA.AperFunction,Conductor*
%ADD23C,0.200000*%
G04 #@! TD*
G04 #@! TA.AperFunction,Conductor*
%ADD24C,0.600000*%
G04 #@! TD*
G04 #@! TA.AperFunction,Conductor*
%ADD25C,0.300000*%
G04 #@! TD*
G04 #@! TA.AperFunction,Conductor*
%ADD26C,0.700000*%
G04 #@! TD*
G04 APERTURE END LIST*
D10*
X133900000Y-52700000D03*
X135625000Y-52700000D03*
X129848300Y-63100000D03*
X131573300Y-63100000D03*
X135000000Y-57125000D03*
X136725000Y-57125000D03*
D11*
X113000000Y-54170000D03*
D12*
X113000000Y-59250000D03*
X113000000Y-64330000D03*
D13*
X116900000Y-57450000D03*
X118725000Y-57450000D03*
D14*
X133110000Y-55600000D03*
X133110000Y-54950000D03*
X133110000Y-54300000D03*
X130450000Y-54300000D03*
X130450000Y-55600000D03*
D15*
X118725000Y-61200000D03*
X116900000Y-61200000D03*
D16*
X128550000Y-55600000D03*
X128550000Y-53875000D03*
D17*
X122550000Y-61860000D03*
X122550000Y-63130000D03*
X122550000Y-64400000D03*
X122550000Y-65670000D03*
X127998300Y-65670000D03*
X127998300Y-64400000D03*
X127998300Y-63130000D03*
X127998300Y-61860000D03*
D18*
X134950000Y-65600000D03*
D19*
X134950000Y-63100000D03*
X134950000Y-60600000D03*
D13*
X116900000Y-59325000D03*
X118725000Y-59325000D03*
D10*
X130550000Y-52700000D03*
X132275000Y-52700000D03*
D13*
X124385800Y-59850000D03*
X126210800Y-59850000D03*
D20*
X115800000Y-52900000D03*
X136400000Y-61850000D03*
X127350000Y-54300000D03*
X110100000Y-67350000D03*
X115450000Y-65750000D03*
X133100000Y-65450000D03*
X138850000Y-67350000D03*
X129550000Y-65700000D03*
X132700000Y-62000000D03*
X118100000Y-63100000D03*
X137450000Y-55800000D03*
X113650000Y-61800000D03*
X138850000Y-51150000D03*
X129250000Y-52650000D03*
X110700000Y-56700000D03*
X115450000Y-60650000D03*
X115450000Y-63000000D03*
X135050000Y-54950000D03*
X110100000Y-51100000D03*
X117450000Y-54300000D03*
X115450000Y-57900000D03*
X113650000Y-56700000D03*
X115450000Y-55950000D03*
X136400000Y-64100000D03*
X138500000Y-61850000D03*
X110700000Y-61800000D03*
X138500000Y-64100000D03*
X121000000Y-65700000D03*
X133050000Y-51150000D03*
D21*
X116900000Y-59325000D02*
X113075000Y-59325000D01*
D22*
X113000000Y-59250000D02*
X113650000Y-59250000D01*
X112450000Y-59250000D02*
X113000000Y-59250000D01*
D21*
X113075000Y-59325000D02*
X113000000Y-59250000D01*
D23*
X136250000Y-53325000D02*
X136250000Y-55950000D01*
X135625000Y-52700000D02*
X136250000Y-53325000D01*
X136250000Y-55950000D02*
X135075000Y-57125000D01*
X135075000Y-57125000D02*
X135000000Y-57125000D01*
D21*
X122550000Y-64400000D02*
X113070000Y-64400000D01*
D24*
X113070000Y-64400000D02*
X113000000Y-64330000D01*
D21*
X118725000Y-57450000D02*
X119850000Y-58575000D01*
X119980000Y-63130000D02*
X122550000Y-63130000D01*
X118725000Y-61200000D02*
X118725000Y-61875000D01*
X118725000Y-61875000D02*
X119980000Y-63130000D01*
X119850000Y-58575000D02*
X119850000Y-60075000D01*
X119850000Y-60075000D02*
X118725000Y-61200000D01*
D24*
X118812500Y-59250000D02*
X118712500Y-59350000D01*
D25*
X132700000Y-62000000D02*
X131863350Y-62836650D01*
X135050000Y-54950000D02*
X133110000Y-54950000D01*
D21*
X118450000Y-60250000D02*
X117200000Y-60250000D01*
X118725000Y-59325000D02*
X118725000Y-59975000D01*
X131600000Y-63123300D02*
X131573300Y-63150000D01*
X118725000Y-59975000D02*
X118450000Y-60250000D01*
D25*
X131863350Y-62836650D02*
X131600000Y-62836650D01*
D21*
X117200000Y-60250000D02*
X116900000Y-60550000D01*
X116900000Y-60550000D02*
X116900000Y-61200000D01*
X128550000Y-56300000D02*
X128550000Y-56275000D01*
D26*
X129900000Y-58250000D02*
X129900000Y-63058300D01*
X116900000Y-55600000D02*
X117200000Y-55600000D01*
X116900000Y-56000000D02*
X117300000Y-55600000D01*
D21*
X129900000Y-63058300D02*
X129828300Y-63130000D01*
D26*
X113020000Y-54150000D02*
X115450000Y-54150000D01*
X128550000Y-56900000D02*
X129900000Y-58250000D01*
D24*
X113770000Y-54170000D02*
X113000000Y-54170000D01*
D26*
X116900000Y-56000000D02*
X116900000Y-57450000D01*
D25*
X129225000Y-55600000D02*
X129350000Y-55600000D01*
D26*
X128550000Y-55900000D02*
X128550000Y-56350000D01*
D21*
X129828300Y-63130000D02*
X127998300Y-63130000D01*
X127850000Y-55600000D02*
X128550000Y-56300000D01*
X117300000Y-55600000D02*
X117700000Y-55600000D01*
X128550000Y-55600000D02*
X130450000Y-55600000D01*
D26*
X116900000Y-55600000D02*
X116900000Y-56000000D01*
D21*
X128550000Y-56300000D02*
X128550000Y-56350000D01*
D26*
X128550000Y-56350000D02*
X128550000Y-56900000D01*
X127850000Y-55600000D02*
X128550000Y-55600000D01*
D21*
X128850000Y-55600000D02*
X129350000Y-55600000D01*
X129350000Y-55600000D02*
X130450000Y-55600000D01*
D26*
X117200000Y-55600000D02*
X127850000Y-55600000D01*
D21*
X113000000Y-54170000D02*
X113020000Y-54150000D01*
X128550000Y-56275000D02*
X129225000Y-55600000D01*
D26*
X115450000Y-54150000D02*
X116900000Y-55600000D01*
D21*
X133700000Y-63100000D02*
X134950000Y-63100000D01*
X127998300Y-64400000D02*
X132400000Y-64400000D01*
X132400000Y-64400000D02*
X133700000Y-63100000D01*
X127998300Y-61860000D02*
X126810000Y-61860000D01*
X126810000Y-61860000D02*
X126210800Y-61260800D01*
X126210800Y-61260800D02*
X126210800Y-59850000D01*
X124385800Y-61264200D02*
X124385800Y-59850000D01*
X122550000Y-61860000D02*
X123790000Y-61860000D01*
X123790000Y-61860000D02*
X124385800Y-61264200D01*
D23*
X133110000Y-54300000D02*
X133110000Y-52740000D01*
X132275000Y-52700000D02*
X133150000Y-52700000D01*
X133150000Y-52700000D02*
X133900000Y-52700000D01*
X133110000Y-52740000D02*
X133150000Y-52700000D01*
G04 #@! TA.AperFunction,Conductor*
G36*
X130748300Y-67630000D02*
G01*
X116482399Y-67630000D01*
X116503714Y-65080000D01*
X130676709Y-65080000D01*
X130748300Y-67630000D01*
G37*
G04 #@! TD.AperFunction*
G04 #@! TA.AperFunction,Conductor*
G36*
X133865677Y-55419685D02*
G01*
X133886319Y-55436319D01*
X135100000Y-56650000D01*
X135426000Y-56650000D01*
X135493039Y-56669685D01*
X135538794Y-56722489D01*
X135550000Y-56774000D01*
X135550000Y-57800000D01*
X136163681Y-58413681D01*
X136197166Y-58475004D01*
X136200000Y-58501362D01*
X136200000Y-59698637D01*
X136180315Y-59765676D01*
X136163681Y-59786319D01*
X136079592Y-59870407D01*
X136018268Y-59903891D01*
X135998398Y-59905153D01*
X135432962Y-60470589D01*
X135415925Y-60407007D01*
X135350099Y-60292993D01*
X135257007Y-60199901D01*
X135142993Y-60134075D01*
X135079409Y-60117037D01*
X135642443Y-59554003D01*
X135579392Y-59509854D01*
X135380533Y-59417125D01*
X135380524Y-59417121D01*
X135168592Y-59360335D01*
X135168582Y-59360333D01*
X134950001Y-59341210D01*
X134949999Y-59341210D01*
X134731417Y-59360333D01*
X134731407Y-59360335D01*
X134519475Y-59417121D01*
X134519466Y-59417124D01*
X134320606Y-59509855D01*
X134320604Y-59509856D01*
X134257556Y-59554003D01*
X134257555Y-59554003D01*
X134820590Y-60117037D01*
X134757007Y-60134075D01*
X134642993Y-60199901D01*
X134549901Y-60292993D01*
X134484075Y-60407007D01*
X134467037Y-60470589D01*
X133904003Y-59907555D01*
X133904003Y-59907556D01*
X133859856Y-59970604D01*
X133859855Y-59970606D01*
X133767124Y-60169466D01*
X133767121Y-60169475D01*
X133710335Y-60381407D01*
X133710333Y-60381417D01*
X133691210Y-60599999D01*
X133691210Y-60600000D01*
X133710333Y-60818582D01*
X133710335Y-60818592D01*
X133767121Y-61030524D01*
X133767125Y-61030533D01*
X133859854Y-61229392D01*
X133904003Y-61292443D01*
X134467037Y-60729409D01*
X134484075Y-60792993D01*
X134549901Y-60907007D01*
X134642993Y-61000099D01*
X134757007Y-61065925D01*
X134820590Y-61082962D01*
X134239871Y-61663681D01*
X134178548Y-61697166D01*
X134152190Y-61700000D01*
X133751362Y-61700000D01*
X133684323Y-61680315D01*
X133663681Y-61663681D01*
X132386319Y-60386319D01*
X132352834Y-60324996D01*
X132350000Y-60298638D01*
X132350000Y-55524000D01*
X132369685Y-55456961D01*
X132422489Y-55411206D01*
X132474000Y-55400000D01*
X133798638Y-55400000D01*
X133865677Y-55419685D01*
G37*
G04 #@! TD.AperFunction*
G04 #@! TA.AperFunction,Conductor*
G36*
X126950283Y-65080000D02*
G01*
X123598255Y-65080000D01*
X123627897Y-65068944D01*
X123636745Y-65068628D01*
X126911555Y-65068628D01*
X126950283Y-65080000D01*
G37*
G04 #@! TD.AperFunction*
G04 #@! TA.AperFunction,Conductor*
G36*
X139442539Y-50520185D02*
G01*
X139488294Y-50572989D01*
X139499500Y-50624500D01*
X139499500Y-67726580D01*
X139479815Y-67793619D01*
X139427011Y-67839374D01*
X139375913Y-67850579D01*
X109624913Y-67949583D01*
X109557808Y-67930122D01*
X109511878Y-67877471D01*
X109500500Y-67825584D01*
X109500500Y-53329982D01*
X110699500Y-53329982D01*
X110699500Y-55010017D01*
X110710000Y-55112796D01*
X110765185Y-55279332D01*
X110765187Y-55279337D01*
X110774875Y-55295044D01*
X110857288Y-55428656D01*
X110981344Y-55552712D01*
X111130665Y-55644814D01*
X111297202Y-55699999D01*
X111399990Y-55710500D01*
X111399995Y-55710500D01*
X114600005Y-55710500D01*
X114600010Y-55710500D01*
X114702798Y-55699999D01*
X114869335Y-55644814D01*
X115018656Y-55552712D01*
X115142712Y-55428656D01*
X115206556Y-55325147D01*
X115258503Y-55278424D01*
X115327465Y-55267201D01*
X115391547Y-55295044D01*
X115399775Y-55302564D01*
X116013181Y-55915970D01*
X116046666Y-55977293D01*
X116049500Y-56003651D01*
X116049500Y-56745114D01*
X116031039Y-56810210D01*
X115976595Y-56898477D01*
X115976592Y-56898484D01*
X115922326Y-57062247D01*
X115922326Y-57062248D01*
X115922325Y-57062248D01*
X115912000Y-57163315D01*
X115912000Y-57736669D01*
X115912001Y-57736687D01*
X115922325Y-57837752D01*
X115976592Y-58001515D01*
X115976593Y-58001518D01*
X116067161Y-58148351D01*
X116189150Y-58270340D01*
X116207992Y-58281962D01*
X116254716Y-58333910D01*
X116265937Y-58402873D01*
X116238094Y-58466955D01*
X116207992Y-58493038D01*
X116189150Y-58504659D01*
X116189149Y-58504660D01*
X116105629Y-58588181D01*
X116044306Y-58621666D01*
X116017948Y-58624500D01*
X115246223Y-58624500D01*
X115179184Y-58604815D01*
X115135738Y-58556795D01*
X115077554Y-58442602D01*
X115017414Y-58359826D01*
X114935033Y-58246437D01*
X114935029Y-58246432D01*
X114763567Y-58074970D01*
X114763562Y-58074966D01*
X114567401Y-57932448D01*
X114567400Y-57932447D01*
X114567398Y-57932446D01*
X114443532Y-57869333D01*
X114351344Y-57822360D01*
X114120736Y-57747432D01*
X113881245Y-57709500D01*
X113881240Y-57709500D01*
X112118760Y-57709500D01*
X112118755Y-57709500D01*
X111879263Y-57747432D01*
X111648655Y-57822360D01*
X111432598Y-57932448D01*
X111236437Y-58074966D01*
X111236432Y-58074970D01*
X111064970Y-58246432D01*
X111064966Y-58246437D01*
X110922448Y-58442598D01*
X110812360Y-58658655D01*
X110737432Y-58889263D01*
X110699500Y-59128754D01*
X110699500Y-59371245D01*
X110737432Y-59610736D01*
X110812360Y-59841344D01*
X110846372Y-59908096D01*
X110916223Y-60045185D01*
X110922448Y-60057401D01*
X111064966Y-60253562D01*
X111064970Y-60253567D01*
X111236432Y-60425029D01*
X111236437Y-60425033D01*
X111369273Y-60521543D01*
X111432602Y-60567554D01*
X111648653Y-60677638D01*
X111648655Y-60677639D01*
X111763959Y-60715103D01*
X111879265Y-60752568D01*
X111990186Y-60770136D01*
X112118755Y-60790500D01*
X112118760Y-60790500D01*
X113881245Y-60790500D01*
X113997347Y-60772110D01*
X114120735Y-60752568D01*
X114351347Y-60677638D01*
X114567398Y-60567554D01*
X114763569Y-60425028D01*
X114935028Y-60253569D01*
X115013661Y-60145340D01*
X115063593Y-60076615D01*
X115118923Y-60033949D01*
X115163911Y-60025500D01*
X116017948Y-60025500D01*
X116084987Y-60045185D01*
X116105629Y-60061819D01*
X116189150Y-60145340D01*
X116335984Y-60235908D01*
X116499747Y-60290174D01*
X116600823Y-60300500D01*
X117199176Y-60300499D01*
X117199184Y-60300498D01*
X117199187Y-60300498D01*
X117254530Y-60294844D01*
X117300253Y-60290174D01*
X117464016Y-60235908D01*
X117610850Y-60145340D01*
X117732840Y-60023350D01*
X117823408Y-59876516D01*
X117877674Y-59712753D01*
X117888000Y-59611677D01*
X117887999Y-59038324D01*
X117877674Y-58937247D01*
X117823408Y-58773484D01*
X117732840Y-58626650D01*
X117610850Y-58504660D01*
X117610849Y-58504659D01*
X117592009Y-58493039D01*
X117545284Y-58441092D01*
X117534061Y-58372129D01*
X117561904Y-58308047D01*
X117592009Y-58281961D01*
X117610850Y-58270340D01*
X117724819Y-58156371D01*
X117786142Y-58122886D01*
X117855834Y-58127870D01*
X117900181Y-58156371D01*
X118014150Y-58270340D01*
X118160984Y-58360908D01*
X118324747Y-58415174D01*
X118425823Y-58425500D01*
X118658479Y-58425499D01*
X118725519Y-58445183D01*
X118746161Y-58461818D01*
X119113181Y-58828838D01*
X119146666Y-58890161D01*
X119149500Y-58916519D01*
X119149500Y-59733480D01*
X119129815Y-59800519D01*
X119113181Y-59821161D01*
X118746160Y-60188181D01*
X118684837Y-60221666D01*
X118658480Y-60224500D01*
X118425831Y-60224500D01*
X118425812Y-60224501D01*
X118324747Y-60234825D01*
X118160984Y-60289092D01*
X118160981Y-60289093D01*
X118014148Y-60379661D01*
X117892161Y-60501648D01*
X117801593Y-60648481D01*
X117801592Y-60648484D01*
X117747326Y-60812247D01*
X117747326Y-60812248D01*
X117747325Y-60812248D01*
X117737000Y-60913315D01*
X117737000Y-61486669D01*
X117737001Y-61486687D01*
X117747325Y-61587752D01*
X117801592Y-61751515D01*
X117801593Y-61751518D01*
X117823045Y-61786297D01*
X117862337Y-61850000D01*
X117892161Y-61898351D01*
X118019257Y-62025447D01*
X118017104Y-62027599D01*
X118049555Y-62073454D01*
X118050913Y-62077658D01*
X118051419Y-62079328D01*
X118104222Y-62206807D01*
X118180887Y-62321545D01*
X119347161Y-63487819D01*
X119380646Y-63549142D01*
X119375662Y-63618834D01*
X119333790Y-63674767D01*
X119268326Y-63699184D01*
X119259480Y-63699500D01*
X115243676Y-63699500D01*
X115176637Y-63679815D01*
X115133191Y-63631795D01*
X115116621Y-63599275D01*
X115077554Y-63522602D01*
X115052283Y-63487819D01*
X114935033Y-63326437D01*
X114935029Y-63326432D01*
X114763567Y-63154970D01*
X114763562Y-63154966D01*
X114567401Y-63012448D01*
X114567400Y-63012447D01*
X114567398Y-63012446D01*
X114459372Y-62957404D01*
X114351344Y-62902360D01*
X114120736Y-62827432D01*
X113881245Y-62789500D01*
X113881240Y-62789500D01*
X112118760Y-62789500D01*
X112118755Y-62789500D01*
X111879263Y-62827432D01*
X111648655Y-62902360D01*
X111432598Y-63012448D01*
X111236437Y-63154966D01*
X111236432Y-63154970D01*
X111064970Y-63326432D01*
X111064966Y-63326437D01*
X110922448Y-63522598D01*
X110812360Y-63738655D01*
X110737432Y-63969263D01*
X110699500Y-64208754D01*
X110699500Y-64451245D01*
X110737432Y-64690736D01*
X110812360Y-64921344D01*
X110812362Y-64921347D01*
X110915210Y-65123197D01*
X110922448Y-65137401D01*
X111064966Y-65333562D01*
X111064970Y-65333567D01*
X111236432Y-65505029D01*
X111236437Y-65505033D01*
X111276547Y-65534174D01*
X111432602Y-65647554D01*
X111648653Y-65757638D01*
X111648655Y-65757639D01*
X111757465Y-65792993D01*
X111879265Y-65832568D01*
X111989327Y-65850000D01*
X112118755Y-65870500D01*
X112118760Y-65870500D01*
X113881245Y-65870500D01*
X113997347Y-65852110D01*
X114120735Y-65832568D01*
X114351347Y-65757638D01*
X114567398Y-65647554D01*
X114763569Y-65505028D01*
X114935028Y-65333569D01*
X114964508Y-65292993D01*
X115067226Y-65151615D01*
X115122556Y-65108949D01*
X115167544Y-65100500D01*
X116503543Y-65100500D01*
X116482399Y-67630000D01*
X130748300Y-67630000D01*
X130677285Y-65100500D01*
X132468996Y-65100500D01*
X132560040Y-65082389D01*
X132604328Y-65073580D01*
X132668069Y-65047177D01*
X132731807Y-65020777D01*
X132731808Y-65020776D01*
X132731811Y-65020775D01*
X132846543Y-64944114D01*
X133845583Y-63945072D01*
X133906904Y-63911589D01*
X133976595Y-63916573D01*
X134020943Y-63945074D01*
X134140542Y-64064673D01*
X134220164Y-64120425D01*
X134263788Y-64175002D01*
X134270981Y-64244501D01*
X134239459Y-64306855D01*
X134179229Y-64342269D01*
X134151472Y-64345699D01*
X134151479Y-64345823D01*
X134149702Y-64345918D01*
X134149040Y-64346000D01*
X134148155Y-64346000D01*
X134088627Y-64352401D01*
X134088620Y-64352403D01*
X133953913Y-64402645D01*
X133953906Y-64402649D01*
X133838812Y-64488809D01*
X133838809Y-64488812D01*
X133752649Y-64603906D01*
X133752645Y-64603913D01*
X133702403Y-64738620D01*
X133702401Y-64738627D01*
X133696000Y-64798155D01*
X133696000Y-65350000D01*
X134516988Y-65350000D01*
X134484075Y-65407007D01*
X134450000Y-65534174D01*
X134450000Y-65665826D01*
X134484075Y-65792993D01*
X134516988Y-65850000D01*
X133696000Y-65850000D01*
X133696000Y-66401844D01*
X133702401Y-66461372D01*
X133702403Y-66461379D01*
X133752645Y-66596086D01*
X133752649Y-66596093D01*
X133838809Y-66711187D01*
X133838812Y-66711190D01*
X133953906Y-66797350D01*
X133953913Y-66797354D01*
X134088620Y-66847596D01*
X134088627Y-66847598D01*
X134148155Y-66853999D01*
X134148172Y-66854000D01*
X134700000Y-66854000D01*
X134700000Y-66033012D01*
X134757007Y-66065925D01*
X134884174Y-66100000D01*
X135015826Y-66100000D01*
X135142993Y-66065925D01*
X135200000Y-66033012D01*
X135200000Y-66854000D01*
X135751828Y-66854000D01*
X135751844Y-66853999D01*
X135811372Y-66847598D01*
X135811379Y-66847596D01*
X135946086Y-66797354D01*
X135946093Y-66797350D01*
X136061187Y-66711190D01*
X136061190Y-66711187D01*
X136147350Y-66596093D01*
X136147354Y-66596086D01*
X136197596Y-66461379D01*
X136197598Y-66461372D01*
X136203999Y-66401844D01*
X136204000Y-66401827D01*
X136204000Y-65850000D01*
X135383012Y-65850000D01*
X135415925Y-65792993D01*
X135450000Y-65665826D01*
X135450000Y-65534174D01*
X135415925Y-65407007D01*
X135383012Y-65350000D01*
X136204000Y-65350000D01*
X136204000Y-64798172D01*
X136203999Y-64798155D01*
X136197598Y-64738627D01*
X136197596Y-64738620D01*
X136147354Y-64603913D01*
X136147350Y-64603906D01*
X136061190Y-64488812D01*
X136061187Y-64488809D01*
X135946093Y-64402649D01*
X135946086Y-64402645D01*
X135811379Y-64352403D01*
X135811372Y-64352401D01*
X135751844Y-64346000D01*
X135750960Y-64346000D01*
X135750766Y-64345943D01*
X135748521Y-64345823D01*
X135748530Y-64345644D01*
X135748525Y-64345644D01*
X135748536Y-64345540D01*
X135748549Y-64345292D01*
X135683921Y-64326315D01*
X135638166Y-64273511D01*
X135628222Y-64204353D01*
X135657247Y-64140797D01*
X135679836Y-64120425D01*
X135759457Y-64064674D01*
X135914674Y-63909457D01*
X136040579Y-63729646D01*
X136133347Y-63530703D01*
X136190161Y-63318674D01*
X136209292Y-63100000D01*
X136190161Y-62881326D01*
X136133347Y-62669297D01*
X136040579Y-62470354D01*
X136040577Y-62470351D01*
X136040576Y-62470349D01*
X135914677Y-62290547D01*
X135914672Y-62290541D01*
X135759458Y-62135327D01*
X135759452Y-62135322D01*
X135579650Y-62009423D01*
X135579642Y-62009419D01*
X135478770Y-61962382D01*
X135426330Y-61916210D01*
X135407178Y-61849017D01*
X135427393Y-61782135D01*
X135478770Y-61737618D01*
X135486860Y-61733845D01*
X135579646Y-61690579D01*
X135759457Y-61564674D01*
X135914674Y-61409457D01*
X136040579Y-61229646D01*
X136133347Y-61030703D01*
X136190161Y-60818674D01*
X136209292Y-60600000D01*
X136198976Y-60482096D01*
X136212742Y-60413599D01*
X136234824Y-60383609D01*
X136238773Y-60379661D01*
X136270717Y-60347717D01*
X136298970Y-60326567D01*
X136319930Y-60315122D01*
X136321376Y-60314367D01*
X136321833Y-60314083D01*
X136321844Y-60314078D01*
X136321850Y-60314075D01*
X136437032Y-60227852D01*
X136521121Y-60143764D01*
X136557295Y-60103491D01*
X136573929Y-60082848D01*
X136605567Y-60038973D01*
X136665338Y-59908096D01*
X136685023Y-59841057D01*
X136685024Y-59841053D01*
X136705500Y-59698637D01*
X136705500Y-58501362D01*
X136702603Y-58447322D01*
X136699769Y-58420964D01*
X136698655Y-58414092D01*
X136694346Y-58387500D01*
X136691114Y-58367552D01*
X136640832Y-58232743D01*
X136607347Y-58171420D01*
X136521123Y-58056239D01*
X136521118Y-58056234D01*
X136521113Y-58056228D01*
X136091819Y-57626934D01*
X136058334Y-57565611D01*
X136055500Y-57539253D01*
X136055500Y-57045096D01*
X136075185Y-56978057D01*
X136091815Y-56957419D01*
X136608506Y-56440727D01*
X136608511Y-56440724D01*
X136618714Y-56430520D01*
X136618716Y-56430520D01*
X136730520Y-56318716D01*
X136795593Y-56206006D01*
X136809577Y-56181785D01*
X136850501Y-56029057D01*
X136850501Y-55870943D01*
X136850501Y-55863348D01*
X136850500Y-55863330D01*
X136850500Y-53245942D01*
X136845478Y-53227202D01*
X136845477Y-53227198D01*
X136832970Y-53180520D01*
X136809577Y-53093216D01*
X136748063Y-52986669D01*
X136730524Y-52956290D01*
X136730518Y-52956282D01*
X136699318Y-52925082D01*
X136665833Y-52863759D01*
X136662999Y-52837401D01*
X136662999Y-52413330D01*
X136662998Y-52413313D01*
X136652674Y-52312247D01*
X136598408Y-52148484D01*
X136507840Y-52001650D01*
X136385850Y-51879660D01*
X136239016Y-51789092D01*
X136075253Y-51734826D01*
X136075251Y-51734825D01*
X135974178Y-51724500D01*
X135275830Y-51724500D01*
X135275812Y-51724501D01*
X135174747Y-51734825D01*
X135010984Y-51789092D01*
X135010981Y-51789093D01*
X134864148Y-51879661D01*
X134850181Y-51893629D01*
X134788858Y-51927114D01*
X134719166Y-51922130D01*
X134674819Y-51893629D01*
X134660851Y-51879661D01*
X134660850Y-51879660D01*
X134514016Y-51789092D01*
X134350253Y-51734826D01*
X134350251Y-51734825D01*
X134249178Y-51724500D01*
X133550830Y-51724500D01*
X133550812Y-51724501D01*
X133449747Y-51734825D01*
X133285984Y-51789092D01*
X133285981Y-51789093D01*
X133152597Y-51871366D01*
X133085204Y-51889806D01*
X133022403Y-51871366D01*
X132889018Y-51789093D01*
X132889013Y-51789091D01*
X132887569Y-51788612D01*
X132725253Y-51734826D01*
X132725251Y-51734825D01*
X132624178Y-51724500D01*
X131925830Y-51724500D01*
X131925812Y-51724501D01*
X131824747Y-51734825D01*
X131660984Y-51789092D01*
X131660981Y-51789093D01*
X131514148Y-51879661D01*
X131392161Y-52001648D01*
X131301593Y-52148481D01*
X131301592Y-52148484D01*
X131247326Y-52312247D01*
X131247326Y-52312248D01*
X131247325Y-52312248D01*
X131237000Y-52413315D01*
X131237000Y-52986669D01*
X131237001Y-52986687D01*
X131247325Y-53087752D01*
X131249136Y-53093216D01*
X131301592Y-53251516D01*
X131351348Y-53332184D01*
X131392161Y-53398351D01*
X131416868Y-53423058D01*
X131450353Y-53484381D01*
X131445369Y-53554073D01*
X131403497Y-53610006D01*
X131338033Y-53634423D01*
X131281734Y-53625300D01*
X131256762Y-53614956D01*
X131256760Y-53614955D01*
X131139370Y-53599501D01*
X131139367Y-53599500D01*
X131139361Y-53599500D01*
X131139354Y-53599500D01*
X129760636Y-53599500D01*
X129643246Y-53614953D01*
X129643237Y-53614956D01*
X129497160Y-53675463D01*
X129371718Y-53771718D01*
X129275463Y-53897160D01*
X129214956Y-54043237D01*
X129214955Y-54043239D01*
X129199500Y-54160638D01*
X129199500Y-54439356D01*
X129203926Y-54472976D01*
X129193158Y-54542011D01*
X129146776Y-54594266D01*
X129079507Y-54613149D01*
X129041983Y-54606864D01*
X128937755Y-54572326D01*
X128937751Y-54572325D01*
X128836678Y-54562000D01*
X128263330Y-54562000D01*
X128263312Y-54562001D01*
X128162247Y-54572325D01*
X127998484Y-54626592D01*
X127998481Y-54626593D01*
X127851647Y-54717161D01*
X127845987Y-54721638D01*
X127844224Y-54719408D01*
X127794306Y-54746666D01*
X127767948Y-54749500D01*
X117303651Y-54749500D01*
X117236612Y-54729815D01*
X117215970Y-54713181D01*
X115992165Y-53489375D01*
X115992161Y-53489372D01*
X115852866Y-53396297D01*
X115852863Y-53396296D01*
X115743416Y-53350962D01*
X115743414Y-53350961D01*
X115698086Y-53332185D01*
X115698074Y-53332182D01*
X115533771Y-53299500D01*
X115533767Y-53299500D01*
X115403497Y-53299500D01*
X115336458Y-53279815D01*
X115290703Y-53227011D01*
X115285791Y-53214504D01*
X115245600Y-53093216D01*
X115234814Y-53060665D01*
X115142712Y-52911344D01*
X115018656Y-52787288D01*
X114869335Y-52695186D01*
X114702798Y-52640001D01*
X114702796Y-52640000D01*
X114600017Y-52629500D01*
X114600010Y-52629500D01*
X111399990Y-52629500D01*
X111399982Y-52629500D01*
X111297203Y-52640000D01*
X111297202Y-52640001D01*
X111214669Y-52667349D01*
X111130667Y-52695185D01*
X111130662Y-52695187D01*
X110981342Y-52787289D01*
X110857289Y-52911342D01*
X110765187Y-53060662D01*
X110765185Y-53060667D01*
X110710001Y-53227202D01*
X110699500Y-53329982D01*
X109500500Y-53329982D01*
X109500500Y-50624500D01*
X109520185Y-50557461D01*
X109572989Y-50511706D01*
X109624500Y-50500500D01*
X139375500Y-50500500D01*
X139442539Y-50520185D01*
G37*
G04 #@! TD.AperFunction*
M02*
