G04 #@! TF.GenerationSoftware,KiCad,Pcbnew,8.0.4*
G04 #@! TF.CreationDate,2025-02-21T13:16:47-08:00*
G04 #@! TF.ProjectId,TP100,54503130-302e-46b6-9963-61645f706362,rev?*
G04 #@! TF.SameCoordinates,Original*
G04 #@! TF.FileFunction,Copper,L2,Bot*
G04 #@! TF.FilePolarity,Positive*
%FSLAX46Y46*%
G04 Gerber Fmt 4.6, Leading zero omitted, Abs format (unit mm)*
G04 Created by KiCad (PCBNEW 8.0.4) date 2025-02-21 13:16:47*
%MOMM*%
%LPD*%
G01*
G04 APERTURE LIST*
G04 Aperture macros list*
%AMRoundRect*
0 Rectangle with rounded corners*
0 $1 Rounding radius*
0 $2 $3 $4 $5 $6 $7 $8 $9 X,Y pos of 4 corners*
0 Add a 4 corners polygon primitive as box body*
4,1,4,$2,$3,$4,$5,$6,$7,$8,$9,$2,$3,0*
0 Add four circle primitives for the rounded corners*
1,1,$1+$1,$2,$3*
1,1,$1+$1,$4,$5*
1,1,$1+$1,$6,$7*
1,1,$1+$1,$8,$9*
0 Add four rect primitives between the rounded corners*
20,1,$1+$1,$2,$3,$4,$5,0*
20,1,$1+$1,$4,$5,$6,$7,0*
20,1,$1+$1,$6,$7,$8,$9,0*
20,1,$1+$1,$8,$9,$2,$3,0*%
G04 Aperture macros list end*
G04 #@! TA.AperFunction,ComponentPad*
%ADD10RoundRect,0.249999X-1.550001X0.790001X-1.550001X-0.790001X1.550001X-0.790001X1.550001X0.790001X0*%
G04 #@! TD*
G04 #@! TA.AperFunction,ComponentPad*
%ADD11O,3.600000X2.080000*%
G04 #@! TD*
G04 #@! TA.AperFunction,ComponentPad*
%ADD12R,1.508000X1.508000*%
G04 #@! TD*
G04 #@! TA.AperFunction,ComponentPad*
%ADD13C,1.508000*%
G04 #@! TD*
G04 #@! TA.AperFunction,ViaPad*
%ADD14C,0.600000*%
G04 #@! TD*
G04 APERTURE END LIST*
D10*
X113000000Y-54170000D03*
D11*
X113000000Y-59250000D03*
X113000000Y-64330000D03*
D12*
X134950000Y-65600000D03*
D13*
X134950000Y-63100000D03*
X134950000Y-60600000D03*
D14*
X115800000Y-52900000D03*
X136400000Y-61850000D03*
X127350000Y-54300000D03*
X110100000Y-67350000D03*
X115450000Y-65750000D03*
X133100000Y-65450000D03*
X138850000Y-67350000D03*
X129550000Y-65700000D03*
X132700000Y-62000000D03*
X118100000Y-63100000D03*
X137450000Y-55800000D03*
X113650000Y-61800000D03*
X138850000Y-51150000D03*
X129250000Y-52650000D03*
X110700000Y-56700000D03*
X115450000Y-60650000D03*
X115450000Y-63000000D03*
X135050000Y-54950000D03*
X110100000Y-51100000D03*
X117450000Y-54300000D03*
X115450000Y-57900000D03*
X113650000Y-56700000D03*
X115450000Y-55950000D03*
X136400000Y-64100000D03*
X138500000Y-61850000D03*
X110700000Y-61800000D03*
X138500000Y-64100000D03*
X121000000Y-65700000D03*
X133050000Y-51150000D03*
G04 #@! TA.AperFunction,Conductor*
G36*
X139442539Y-50520185D02*
G01*
X139488294Y-50572989D01*
X139499500Y-50624500D01*
X139499500Y-67726580D01*
X139479815Y-67793619D01*
X139427011Y-67839374D01*
X139375913Y-67850579D01*
X109624913Y-67949583D01*
X109557808Y-67930122D01*
X109511878Y-67877471D01*
X109500500Y-67825584D01*
X109500500Y-64208754D01*
X110699500Y-64208754D01*
X110699500Y-64451245D01*
X110737432Y-64690736D01*
X110812360Y-64921344D01*
X110922448Y-65137401D01*
X111064966Y-65333562D01*
X111064970Y-65333567D01*
X111236432Y-65505029D01*
X111236437Y-65505033D01*
X111276547Y-65534174D01*
X111432602Y-65647554D01*
X111648653Y-65757638D01*
X111648655Y-65757639D01*
X111757465Y-65792993D01*
X111879265Y-65832568D01*
X111989327Y-65850000D01*
X112118755Y-65870500D01*
X112118760Y-65870500D01*
X113881245Y-65870500D01*
X113997347Y-65852110D01*
X114120735Y-65832568D01*
X114351347Y-65757638D01*
X114567398Y-65647554D01*
X114763569Y-65505028D01*
X114935028Y-65333569D01*
X115077554Y-65137398D01*
X115187638Y-64921347D01*
X115262568Y-64690735D01*
X115282110Y-64567347D01*
X115300500Y-64451245D01*
X115300500Y-64208754D01*
X115277679Y-64064673D01*
X115262568Y-63969265D01*
X115187638Y-63738653D01*
X115077554Y-63522602D01*
X115059345Y-63497539D01*
X114935033Y-63326437D01*
X114935029Y-63326432D01*
X114763567Y-63154970D01*
X114763562Y-63154966D01*
X114567401Y-63012448D01*
X114567400Y-63012447D01*
X114567398Y-63012446D01*
X114459372Y-62957404D01*
X114351344Y-62902360D01*
X114120736Y-62827432D01*
X113881245Y-62789500D01*
X113881240Y-62789500D01*
X112118760Y-62789500D01*
X112118755Y-62789500D01*
X111879263Y-62827432D01*
X111648655Y-62902360D01*
X111432598Y-63012448D01*
X111236437Y-63154966D01*
X111236432Y-63154970D01*
X111064970Y-63326432D01*
X111064966Y-63326437D01*
X110922448Y-63522598D01*
X110812360Y-63738655D01*
X110737432Y-63969263D01*
X110699500Y-64208754D01*
X109500500Y-64208754D01*
X109500500Y-62300000D01*
X121648300Y-62300000D01*
X128898300Y-62300000D01*
X128898300Y-60599997D01*
X133690708Y-60599997D01*
X133690708Y-60600002D01*
X133704055Y-60752568D01*
X133709839Y-60818674D01*
X133766653Y-61030703D01*
X133766654Y-61030706D01*
X133766655Y-61030708D01*
X133859419Y-61229642D01*
X133859423Y-61229650D01*
X133985322Y-61409452D01*
X133985327Y-61409458D01*
X134140541Y-61564672D01*
X134140547Y-61564677D01*
X134320349Y-61690576D01*
X134320351Y-61690577D01*
X134320354Y-61690579D01*
X134408736Y-61731791D01*
X134421230Y-61737618D01*
X134473669Y-61783790D01*
X134492821Y-61850984D01*
X134472605Y-61917865D01*
X134421230Y-61962382D01*
X134320353Y-62009421D01*
X134320349Y-62009423D01*
X134140547Y-62135322D01*
X134140541Y-62135327D01*
X133985327Y-62290541D01*
X133985322Y-62290547D01*
X133859423Y-62470349D01*
X133859419Y-62470357D01*
X133766655Y-62669291D01*
X133709839Y-62881324D01*
X133709838Y-62881331D01*
X133690708Y-63099997D01*
X133690708Y-63100002D01*
X133709838Y-63318668D01*
X133709839Y-63318675D01*
X133711918Y-63326432D01*
X133766653Y-63530703D01*
X133766654Y-63530706D01*
X133766655Y-63530708D01*
X133859419Y-63729642D01*
X133859423Y-63729650D01*
X133985322Y-63909452D01*
X133985327Y-63909458D01*
X134140542Y-64064673D01*
X134220164Y-64120425D01*
X134263788Y-64175002D01*
X134270981Y-64244501D01*
X134239459Y-64306855D01*
X134179229Y-64342269D01*
X134151472Y-64345699D01*
X134151479Y-64345823D01*
X134149702Y-64345918D01*
X134149040Y-64346000D01*
X134148155Y-64346000D01*
X134088627Y-64352401D01*
X134088620Y-64352403D01*
X133953913Y-64402645D01*
X133953906Y-64402649D01*
X133838812Y-64488809D01*
X133838809Y-64488812D01*
X133752649Y-64603906D01*
X133752645Y-64603913D01*
X133702403Y-64738620D01*
X133702401Y-64738627D01*
X133696000Y-64798155D01*
X133696000Y-65350000D01*
X134516988Y-65350000D01*
X134484075Y-65407007D01*
X134450000Y-65534174D01*
X134450000Y-65665826D01*
X134484075Y-65792993D01*
X134516988Y-65850000D01*
X133696000Y-65850000D01*
X133696000Y-66401844D01*
X133702401Y-66461372D01*
X133702403Y-66461379D01*
X133752645Y-66596086D01*
X133752649Y-66596093D01*
X133838809Y-66711187D01*
X133838812Y-66711190D01*
X133953906Y-66797350D01*
X133953913Y-66797354D01*
X134088620Y-66847596D01*
X134088627Y-66847598D01*
X134148155Y-66853999D01*
X134148172Y-66854000D01*
X134700000Y-66854000D01*
X134700000Y-66033012D01*
X134757007Y-66065925D01*
X134884174Y-66100000D01*
X135015826Y-66100000D01*
X135142993Y-66065925D01*
X135200000Y-66033012D01*
X135200000Y-66854000D01*
X135751828Y-66854000D01*
X135751844Y-66853999D01*
X135811372Y-66847598D01*
X135811379Y-66847596D01*
X135946086Y-66797354D01*
X135946093Y-66797350D01*
X136061187Y-66711190D01*
X136061190Y-66711187D01*
X136147350Y-66596093D01*
X136147354Y-66596086D01*
X136197596Y-66461379D01*
X136197598Y-66461372D01*
X136203999Y-66401844D01*
X136204000Y-66401827D01*
X136204000Y-65850000D01*
X135383012Y-65850000D01*
X135415925Y-65792993D01*
X135450000Y-65665826D01*
X135450000Y-65534174D01*
X135415925Y-65407007D01*
X135383012Y-65350000D01*
X136204000Y-65350000D01*
X136204000Y-64798172D01*
X136203999Y-64798155D01*
X136197598Y-64738627D01*
X136197596Y-64738620D01*
X136147354Y-64603913D01*
X136147350Y-64603906D01*
X136061190Y-64488812D01*
X136061187Y-64488809D01*
X135946093Y-64402649D01*
X135946086Y-64402645D01*
X135811379Y-64352403D01*
X135811372Y-64352401D01*
X135751844Y-64346000D01*
X135750960Y-64346000D01*
X135750766Y-64345943D01*
X135748521Y-64345823D01*
X135748530Y-64345644D01*
X135748525Y-64345644D01*
X135748536Y-64345540D01*
X135748549Y-64345292D01*
X135683921Y-64326315D01*
X135638166Y-64273511D01*
X135628222Y-64204353D01*
X135657247Y-64140797D01*
X135679836Y-64120425D01*
X135759457Y-64064674D01*
X135914674Y-63909457D01*
X136040579Y-63729646D01*
X136133347Y-63530703D01*
X136190161Y-63318674D01*
X136209292Y-63100000D01*
X136190161Y-62881326D01*
X136133347Y-62669297D01*
X136040579Y-62470354D01*
X136040577Y-62470351D01*
X136040576Y-62470349D01*
X135914677Y-62290547D01*
X135914672Y-62290541D01*
X135759458Y-62135327D01*
X135759452Y-62135322D01*
X135579650Y-62009423D01*
X135579642Y-62009419D01*
X135478770Y-61962382D01*
X135426330Y-61916210D01*
X135407178Y-61849017D01*
X135427393Y-61782135D01*
X135478770Y-61737618D01*
X135486860Y-61733845D01*
X135579646Y-61690579D01*
X135759457Y-61564674D01*
X135914674Y-61409457D01*
X136040579Y-61229646D01*
X136133347Y-61030703D01*
X136190161Y-60818674D01*
X136209292Y-60600000D01*
X136206453Y-60567554D01*
X136202117Y-60517997D01*
X136190161Y-60381326D01*
X136133347Y-60169297D01*
X136040579Y-59970354D01*
X136040577Y-59970351D01*
X136040576Y-59970349D01*
X135914677Y-59790547D01*
X135914672Y-59790541D01*
X135759458Y-59635327D01*
X135759452Y-59635322D01*
X135579650Y-59509423D01*
X135579642Y-59509419D01*
X135380708Y-59416655D01*
X135380706Y-59416654D01*
X135380703Y-59416653D01*
X135211241Y-59371245D01*
X135168675Y-59359839D01*
X135168668Y-59359838D01*
X134950002Y-59340708D01*
X134949998Y-59340708D01*
X134731331Y-59359838D01*
X134731324Y-59359839D01*
X134608902Y-59392642D01*
X134519297Y-59416653D01*
X134519295Y-59416653D01*
X134519291Y-59416655D01*
X134320357Y-59509419D01*
X134320349Y-59509423D01*
X134140547Y-59635322D01*
X134140541Y-59635327D01*
X133985327Y-59790541D01*
X133985322Y-59790547D01*
X133859423Y-59970349D01*
X133859419Y-59970357D01*
X133766655Y-60169291D01*
X133709839Y-60381324D01*
X133709838Y-60381331D01*
X133690708Y-60599997D01*
X128898300Y-60599997D01*
X128898300Y-57950000D01*
X121648300Y-57950000D01*
X121648300Y-62300000D01*
X109500500Y-62300000D01*
X109500500Y-59128754D01*
X110699500Y-59128754D01*
X110699500Y-59371245D01*
X110737432Y-59610736D01*
X110812360Y-59841344D01*
X110922448Y-60057401D01*
X111064966Y-60253562D01*
X111064970Y-60253567D01*
X111236432Y-60425029D01*
X111236437Y-60425033D01*
X111407539Y-60549345D01*
X111432602Y-60567554D01*
X111648653Y-60677638D01*
X111648655Y-60677639D01*
X111763959Y-60715103D01*
X111879265Y-60752568D01*
X111990186Y-60770136D01*
X112118755Y-60790500D01*
X112118760Y-60790500D01*
X113881245Y-60790500D01*
X113997347Y-60772110D01*
X114120735Y-60752568D01*
X114351347Y-60677638D01*
X114567398Y-60567554D01*
X114763569Y-60425028D01*
X114935028Y-60253569D01*
X115077554Y-60057398D01*
X115187638Y-59841347D01*
X115262568Y-59610735D01*
X115282110Y-59487347D01*
X115300500Y-59371245D01*
X115300500Y-59128754D01*
X115278432Y-58989431D01*
X115262568Y-58889265D01*
X115187638Y-58658653D01*
X115077554Y-58442602D01*
X115059345Y-58417539D01*
X114935033Y-58246437D01*
X114935029Y-58246432D01*
X114763567Y-58074970D01*
X114763562Y-58074966D01*
X114567401Y-57932448D01*
X114567400Y-57932447D01*
X114567398Y-57932446D01*
X114459372Y-57877404D01*
X114351344Y-57822360D01*
X114120736Y-57747432D01*
X113881245Y-57709500D01*
X113881240Y-57709500D01*
X112118760Y-57709500D01*
X112118755Y-57709500D01*
X111879263Y-57747432D01*
X111648655Y-57822360D01*
X111432598Y-57932448D01*
X111236437Y-58074966D01*
X111236432Y-58074970D01*
X111064970Y-58246432D01*
X111064966Y-58246437D01*
X110922448Y-58442598D01*
X110812360Y-58658655D01*
X110737432Y-58889263D01*
X110699500Y-59128754D01*
X109500500Y-59128754D01*
X109500500Y-53329982D01*
X110699500Y-53329982D01*
X110699500Y-55010017D01*
X110710000Y-55112796D01*
X110710001Y-55112798D01*
X110765186Y-55279335D01*
X110857288Y-55428656D01*
X110981344Y-55552712D01*
X111130665Y-55644814D01*
X111297202Y-55699999D01*
X111399990Y-55710500D01*
X111399995Y-55710500D01*
X114600005Y-55710500D01*
X114600010Y-55710500D01*
X114702798Y-55699999D01*
X114869335Y-55644814D01*
X115018656Y-55552712D01*
X115142712Y-55428656D01*
X115234814Y-55279335D01*
X115289999Y-55112798D01*
X115300500Y-55010010D01*
X115300500Y-53329990D01*
X115289999Y-53227202D01*
X115234814Y-53060665D01*
X115142712Y-52911344D01*
X115018656Y-52787288D01*
X114869335Y-52695186D01*
X114702798Y-52640001D01*
X114702796Y-52640000D01*
X114600017Y-52629500D01*
X114600010Y-52629500D01*
X111399990Y-52629500D01*
X111399982Y-52629500D01*
X111297203Y-52640000D01*
X111297202Y-52640001D01*
X111214669Y-52667349D01*
X111130667Y-52695185D01*
X111130662Y-52695187D01*
X110981342Y-52787289D01*
X110857289Y-52911342D01*
X110765187Y-53060662D01*
X110765186Y-53060665D01*
X110710001Y-53227202D01*
X110710001Y-53227203D01*
X110710000Y-53227203D01*
X110699500Y-53329982D01*
X109500500Y-53329982D01*
X109500500Y-50624500D01*
X109520185Y-50557461D01*
X109572989Y-50511706D01*
X109624500Y-50500500D01*
X139375500Y-50500500D01*
X139442539Y-50520185D01*
G37*
G04 #@! TD.AperFunction*
M02*
