M48
; DRILL file {KiCad 8.0.4} date 2025-02-21T13:16:45-0800
; FORMAT={-:-/ absolute / metric / decimal}
; #@! TF.CreationDate,2025-02-21T13:16:45-08:00
; #@! TF.GenerationSoftware,Kicad,Pcbnew,8.0.4
; #@! TF.FileFunction,Plated,1,2,PTH
FMAT,2
METRIC
; #@! TA.AperFunction,Plated,PTH,ViaDrill
T1C0.300
; #@! TA.AperFunction,Plated,PTH,ComponentDrill
T2C1.000
; #@! TA.AperFunction,Plated,PTH,ComponentDrill
T3C1.400
%
G90
G05
T1
X110.1Y-51.1
X110.1Y-67.35
X110.7Y-56.7
X110.7Y-61.8
X113.65Y-56.7
X113.65Y-61.8
X115.45Y-55.95
X115.45Y-57.9
X115.45Y-60.65
X115.45Y-63.0
X115.45Y-65.75
X115.8Y-52.9
X117.45Y-54.3
X118.1Y-63.1
X121.0Y-65.7
X127.35Y-54.3
X129.25Y-52.65
X129.55Y-65.7
X132.7Y-62.0
X133.05Y-51.15
X133.1Y-65.45
X135.05Y-54.95
X136.4Y-61.85
X136.4Y-64.1
X137.45Y-55.8
X138.5Y-61.85
X138.5Y-64.1
X138.85Y-51.15
X138.85Y-67.35
T2
X134.95Y-60.6
X134.95Y-63.1
X134.95Y-65.6
T3
X113.0Y-54.17
X113.0Y-59.25
X113.0Y-64.33
M30
